<svg xmlns="http://www.w3.org/2000/svg" xmlns:xlink="http://www.w3.org/1999/xlink" viewBox="0 0 48 48"><defs><style>.cls-1{fill:#764097;}.cls-2{fill:url(#radial-gradient);}.cls-3{fill:#a467c8;}.cls-4{fill:#522574;}.cls-5{fill:#f6fafd;}.cls-6{fill:#273941;}.cls-7{fill:#141e21;}.cls-8{fill:#415b62;}.cls-9{fill:#632e86;}.cls-10{fill:#ae2d4c;}</style><radialGradient id="radial-gradient" cx="-118.624" cy="9.363" r="6" gradientTransform="translate(379.871 -4.408) scale(3 2.5)" gradientUnits="userSpaceOnUse"><stop offset="0" stop-color="#a467c8"/><stop offset="0.296" stop-color="#9b5fbe"/><stop offset="0.793" stop-color="#824aa4"/><stop offset="1" stop-color="#764097"/></radialGradient></defs><title>29-demon</title><g id="_29-demon" data-name="29-demon"><circle class="cls-1" cx="24" cy="24" r="23"/><ellipse class="cls-2" cx="24" cy="19" rx="18" ry="15"/><path class="cls-3" d="M24,4c12.15,0,22,8.507,22,19h.975a23,23,0,0,0-45.95,0H2C2,12.507,11.85,4,24,4Z"/><path class="cls-4" d="M46,23c0,10.493-9.85,19-22,19S2,33.493,2,23H1.025c-.014.332-.025.665-.025,1a23,23,0,0,0,46,0c0-.335-.011-.668-.025-1Z"/><ellipse class="cls-5" cx="35.5" cy="8.5" rx="0.825" ry="1.148" transform="translate(4.394 27.603) rotate(-45.02)"/><ellipse class="cls-5" cx="29.246" cy="4" rx="0.413" ry="0.574" transform="translate(5.743 21.86) rotate(-45.02)"/><ellipse class="cls-5" cx="32.5" cy="6.5" rx="1.65" ry="2.297" transform="translate(4.929 24.894) rotate(-45.02)"/><path class="cls-6" d="M43,11q-6,0-6-6A18.536,18.536,0,0,0,47,1C47,7.364,45,11,43,11Z"/><path class="cls-6" d="M5,11q6,0,6-6A18.536,18.536,0,0,1,1,1C1,7.364,3,11,5,11Z"/><path class="cls-7" d="M24,38c-5.233,0-10-2.859-10-6h2c0,1.61,3.359,4,8,4s8-2.39,8-4h2C34,35.141,29.233,38,24,38Z"/><path class="cls-8" d="M47,1A18.536,18.536,0,0,1,37,5a8.806,8.806,0,0,0,.228,1.987,18.765,18.765,0,0,0,9.7-3.934C46.971,2.4,47,1.722,47,1Z"/><path class="cls-8" d="M1,1c0,.722.029,1.4.077,2.053a18.765,18.765,0,0,0,9.7,3.934A8.806,8.806,0,0,0,11,5,18.536,18.536,0,0,1,1,1Z"/><path class="cls-7" d="M43,9c-3.262,0-5.17-1.353-5.772-4.013-.073,0-.16.013-.228.013q0,6,6,6c2,0,4-3.636,4-10-.026.019-.052.034-.077.053C46.543,6.137,44.773,9,43,9Z"/><path class="cls-7" d="M5,9C3.227,9,1.457,6.137,1.077,1.053,1.052,1.034,1.026,1.019,1,1,1,7.364,3,11,5,11q6,0,6-6c-.068,0-.155-.011-.228-.013C10.17,7.647,8.262,9,5,9Z"/><path class="cls-9" d="M39.528,19.9,39.1,19l-.466.216A4.96,4.96,0,0,1,36.1,25.532a5.034,5.034,0,0,1-5.183-.593A5.042,5.042,0,0,0,37.1,26.532,4.972,4.972,0,0,0,39.528,19.9Z"/><path class="cls-9" d="M11.9,25.532a4.96,4.96,0,0,1-2.539-6.316L8.9,19l-.424.9A4.972,4.972,0,0,0,10.9,26.532a5.042,5.042,0,0,0,6.183-1.593A5.034,5.034,0,0,1,11.9,25.532Z"/><path class="cls-6" d="M36.1,25.532h0a5.037,5.037,0,0,1-6.674-2.413l-.425-.9L38.1,18l.424.9A4.972,4.972,0,0,1,36.1,25.532Z"/><path class="cls-6" d="M11.9,25.532h0a5.037,5.037,0,0,0,6.674-2.413l.425-.9L9.9,18l-.424.9A4.972,4.972,0,0,0,11.9,25.532Z"/><path class="cls-7" d="M36.1,24.532a5.038,5.038,0,0,1-6.675-2.413l-.038-.082L29,22.215l.424.9A5.038,5.038,0,0,0,36.1,25.532a4.967,4.967,0,0,0,2.855-5.012A4.968,4.968,0,0,1,36.1,24.532Z"/><path class="cls-7" d="M11.9,24.532A4.968,4.968,0,0,1,9.046,20.52,4.967,4.967,0,0,0,11.9,25.532a5.038,5.038,0,0,0,6.675-2.413l.424-.9-.386-.178-.038.082A5.038,5.038,0,0,1,11.9,24.532Z"/><path class="cls-4" d="M38.528,18.9a4.885,4.885,0,0,1,.426,1.616,4.9,4.9,0,0,0-.426-2.616L38.1,17,29,21.215l.386.822L38.1,18Z"/><path class="cls-4" d="M9.9,17l-.424.9a4.9,4.9,0,0,0-.426,2.616A4.885,4.885,0,0,1,9.472,18.9L9.9,18l8.718,4.037L19,21.215Z"/><path class="cls-10" d="M34.5,24a2.5,2.5,0,0,0,.995-4.792l-1.392.644,1.729,2.593-1.664,1.11-1.9-2.852-.146.067A2.466,2.466,0,0,0,34.5,24Z"/><path class="cls-10" d="M11,21.5a2.5,2.5,0,1,0,4.879-.73l-.146-.067-1.9,2.852-1.664-1.11L13.9,19.852l-1.392-.644A2.5,2.5,0,0,0,11,21.5Z"/><polygon class="cls-7" points="35.832 22.445 34.103 19.852 32.267 20.703 34.168 23.555 35.832 22.445"/><polygon class="cls-7" points="13.832 23.555 15.733 20.703 13.897 19.852 12.168 22.445 13.832 23.555"/></g></svg>