<svg xmlns="http://www.w3.org/2000/svg" viewBox="0 0 48 48"><defs><style>.cls-1{fill:#ffce52;}.cls-2{fill:#f6fafd;}.cls-3{fill:#ae2d4c;}.cls-4{fill:#273941;}.cls-5{fill:#ffe369;}.cls-6{fill:#ffb32b;}.cls-7{fill:#ededed;}.cls-8{fill:#8a293d;}.cls-9{fill:#3bc5f6;}.cls-10{fill:#00a3e1;}</style></defs><title>09-disbelief</title><g id="_09-disbelief" data-name="09-disbelief"><circle class="cls-1" cx="24" cy="24" r="23"/><path class="cls-2" d="M38,27c0,3.32-6.26,6-14,6s-14-2.68-14-6c3.5.86,10.71,1,14,1A116.223,116.223,0,0,0,38,27Z"/><path class="cls-3" d="M10,27c0,3.32,6.26,6,14,6s14-2.68,14-6a10.919,10.919,0,0,1-4.61,8.89,15.731,15.731,0,0,1-18.78,0A10.919,10.919,0,0,1,10,27Z"/><path class="cls-4" d="M31,21H29c0-1.165,1.247-5,4-5s4,3.835,4,5H35c0-.607-.884-3-2-3S31,20.393,31,21Z"/><path class="cls-4" d="M13,21H11c0-1.165,1.247-5,4-5s4,3.835,4,5H17c0-.607-.884-3-2-3S13,20.393,13,21Z"/><path class="cls-4" d="M11,15V13c3.722,0,6-1.295,6-2h2C19,13.626,14.976,15,11,15Z"/><path class="cls-4" d="M37,15c-3.976,0-8-1.374-8-4h2c0,.705,2.278,2,6,2Z"/><path class="cls-5" d="M24,4c12.15,0,22,8.507,22,19h.975a23,23,0,0,0-45.95,0H2C2,12.507,11.85,4,24,4Z"/><path class="cls-6" d="M46,23c0,10.493-9.85,19-22,19S2,33.493,2,23H1.025c-.014.332-.025.665-.025,1a23,23,0,0,0,46,0c0-.335-.011-.668-.025-1Z"/><ellipse class="cls-2" cx="37" cy="9" rx="0.825" ry="1.148" transform="translate(4.48 28.81) rotate(-45.02)"/><ellipse class="cls-2" cx="30.746" cy="4.5" rx="0.413" ry="0.574" transform="translate(5.829 23.067) rotate(-45.02)"/><ellipse class="cls-2" cx="34" cy="7" rx="1.65" ry="2.297" transform="translate(5.015 26.102) rotate(-45.02)"/><path class="cls-7" d="M37.107,29.1A3.208,3.208,0,0,0,38,27a116.223,116.223,0,0,1-14,1c-3.29,0-10.5-.14-14-1a3.277,3.277,0,0,0,.984,2.2A89.683,89.683,0,0,0,24,30,110.378,110.378,0,0,0,37.107,29.1Z"/><path class="cls-8" d="M37.783,28.023C36.65,30.853,30.925,33,24,33c-6.9,0-12.616-2.134-13.773-4.95-.054-.013-.112-.024-.164-.036.029.318.073.629.128.934C11.251,31.815,17.015,34,24,34s12.749-2.185,13.809-5.052c.055-.307.1-.62.128-.941Z"/><path class="cls-9" d="M45.28,15.28A3.993,3.993,0,0,1,39,12a12.1,12.1,0,0,1,1.32-4.2C41.25,5.81,42.44,4,43,4c1,0,4,5.79,4,8A3.981,3.981,0,0,1,45.28,15.28Z"/><path class="cls-6" d="M39.022,12.221c-.012.157-.022.309-.022.446C39,15.613,40.79,18,43,18a3.261,3.261,0,0,0,1.982-.725q-.284-.774-.642-1.519A3.92,3.92,0,0,1,43,16,3.989,3.989,0,0,1,39.022,12.221Z"/><path class="cls-1" d="M45.28,17.04a4.581,4.581,0,0,0,.47-.518l-.056-.165c-.1-.269-.2-.535-.3-.8-.031-.079-.061-.158-.093-.237l-.019-.043,0,0a4.071,4.071,0,0,1-.94.476q.357.744.642,1.519C45.082,17.2,45.185,17.127,45.28,17.04Z"/><path class="cls-10" d="M43,4c-.56,0-1.75,1.81-2.68,3.8A12.1,12.1,0,0,0,39,12a4,4,0,0,0,8,0C47,9.79,44,4,43,4Zm1.71,8.52A3.273,3.273,0,0,1,43,13a2.847,2.847,0,0,1-3-2.667,7.43,7.43,0,0,1,.99-2.8C41.687,6.207,42.58,5,43,5c.75,0,3,3.86,3,5.333A2.584,2.584,0,0,1,44.71,12.52Z"/><ellipse class="cls-2" cx="45" cy="11" rx="0.825" ry="1.148" transform="translate(5.41 35.055) rotate(-45.02)"/><ellipse class="cls-2" cx="44.746" cy="8.5" rx="0.413" ry="0.574" transform="translate(7.104 34.143) rotate(-45.02)"/></g></svg>