<svg xmlns="http://www.w3.org/2000/svg" viewBox="0 0 48 48"><defs><style>.cls-1{fill:#ffce52;}.cls-2{fill:#ae2d4c;}.cls-3{fill:#f6fafd;}.cls-4{fill:#273941;}.cls-5{fill:#ffe369;}.cls-6{fill:#ffb32b;}.cls-7{fill:#ededed;}.cls-8{fill:#8a293d;}</style></defs><title>06-haha</title><g id="_06-haha" data-name="06-haha"><circle class="cls-1" cx="24" cy="24" r="23"/><path class="cls-2" d="M36.99,27.2c.63-.06,1.3-.13,2.01-.2a10.71,10.71,0,0,1-4.94,8.89,17.826,17.826,0,0,1-20.12,0A10.71,10.71,0,0,1,9,27c.59.13,1.27.25,2.02.35C11.35,31.06,17.03,34,24,34,31.07,34,36.8,30.98,36.99,27.2Z"/><path class="cls-3" d="M36.99,27.2C36.8,30.98,31.07,34,24,34c-6.97,0-12.65-2.94-12.98-6.65A113.09,113.09,0,0,0,24,28,119.54,119.54,0,0,0,36.99,27.2Z"/><path class="cls-4" d="M37,21H35c0-1.569-1.142-5-2-5s-2,3.431-2,5H29c0-.832.845-7,4-7S37,20.168,37,21Z"/><path class="cls-4" d="M19,21H17c0-1.569-1.142-5-2-5s-2,3.431-2,5H11c0-.832.845-7,4-7S19,20.168,19,21Z"/><path class="cls-5" d="M24,4c12.15,0,22,8.507,22,19h.975a23,23,0,0,0-45.95,0H2C2,12.507,11.85,4,24,4Z"/><path class="cls-6" d="M46,23c0,10.493-9.85,19-22,19S2,33.493,2,23H1.025c-.014.332-.025.665-.025,1a23,23,0,0,0,46,0c0-.335-.011-.668-.025-1Z"/><ellipse class="cls-3" cx="37" cy="9" rx="0.825" ry="1.148" transform="translate(4.48 28.81) rotate(-45.02)"/><ellipse class="cls-3" cx="30.746" cy="4.5" rx="0.413" ry="0.574" transform="translate(5.829 23.067) rotate(-45.02)"/><ellipse class="cls-3" cx="34" cy="7" rx="1.65" ry="2.297" transform="translate(5.015 26.102) rotate(-45.02)"/><path class="cls-7" d="M36.3,29.266A4.247,4.247,0,0,0,36.99,27.2,119.54,119.54,0,0,1,24,28a113.09,113.09,0,0,1-12.98-.65,4.377,4.377,0,0,0,.806,2.1A121.226,121.226,0,0,0,24,30,115.21,115.21,0,0,0,36.3,29.266Z"/><path class="cls-8" d="M24,36c7.57,0,13.709-3.944,13.993-8.9l-1,.1C36.8,30.98,31.07,34,24,34c-6.969,0-12.648-2.939-12.98-6.648-.349-.048-.692-.1-1.02-.154C10.356,32.109,16.48,36,24,36Z"/></g></svg>