<svg xmlns="http://www.w3.org/2000/svg" viewBox="0 0 48 48"><defs><style>.cls-1{fill:#ffce52;}.cls-2{fill:#273941;}.cls-3{fill:#ae2d4c;}.cls-4{fill:#f6fafd;}.cls-5{fill:#ffe369;}.cls-6{fill:#ffb32b;}.cls-7{fill:#141e21;}.cls-8{fill:#8a293d;}.cls-9{fill:#ededed;}</style></defs><title>05-haha</title><g id="_05-haha" data-name="05-haha"><circle class="cls-1" cx="24" cy="24" r="23"/><path class="cls-2" d="M7.37,29H40.63a12.861,12.861,0,0,1-4.64,6.93C35.87,33.77,30.01,33,24,33c-6.69,0-11.89.77-11.99,2.93A12.861,12.861,0,0,1,7.37,29Z"/><path class="cls-3" d="M35.99,35.93c-.19.15-.39.3-.59.45a19.76,19.76,0,0,1-22.8,0c-.2-.15-.4-.3-.59-.45C12.11,33.77,17.31,33,24,33,30.01,33,35.87,33.77,35.99,35.93Z"/><path class="cls-4" d="M41,26a12.085,12.085,0,0,1-.37,3H7.37A12.085,12.085,0,0,1,7,26c0-1.11,7.6-2,17-2S41,24.89,41,26Z"/><path class="cls-2" d="M37.553,19.9C35.764,19,33.717,19,30,19a1,1,0,0,1-1-1c0-2.265,3.568-5,8-5v2a7.807,7.807,0,0,0-5.419,2c3.058.018,4.963.151,6.866,1.1Z"/><path class="cls-2" d="M10.447,19.9l-.894-1.79c1.9-.951,3.808-1.084,6.866-1.1A7.807,7.807,0,0,0,11,15V13c4.432,0,8,2.735,8,5a1,1,0,0,1-1,1C14.283,19,12.236,19,10.447,19.9Z"/><path class="cls-5" d="M24,4c12.15,0,22,8.507,22,19h.975a23,23,0,0,0-45.95,0H2C2,12.507,11.85,4,24,4Z"/><path class="cls-6" d="M46,23c0,10.493-9.85,19-22,19S2,33.493,2,23H1.025c-.014.332-.025.665-.025,1a23,23,0,0,0,46,0c0-.335-.011-.668-.025-1Z"/><ellipse class="cls-4" cx="37" cy="9" rx="0.825" ry="1.148" transform="translate(4.48 28.81) rotate(-45.02)"/><ellipse class="cls-4" cx="30.746" cy="4.5" rx="0.413" ry="0.574" transform="translate(5.829 23.067) rotate(-45.02)"/><ellipse class="cls-4" cx="34" cy="7" rx="1.65" ry="2.297" transform="translate(5.015 26.102) rotate(-45.02)"/><path class="cls-7" d="M12.933,34.6c-.109-.075-.226-.141-.333-.219-.2-.15-.4-.3-.59-.45A13.4,13.4,0,0,1,8.07,29h-.7a12.861,12.861,0,0,0,4.64,6.93A1.72,1.72,0,0,1,12.933,34.6Z"/><path class="cls-7" d="M35.99,33.93c-.19.15-.39.3-.59.45-.123.089-.257.166-.383.252a1.718,1.718,0,0,1,.973,1.3A12.861,12.861,0,0,0,40.63,29h-.7A13.4,13.4,0,0,1,35.99,33.93Z"/><path class="cls-8" d="M35.017,34.632A20.117,20.117,0,0,1,24,38a20.105,20.105,0,0,1-11.067-3.4,1.72,1.72,0,0,0-.923,1.331c.19.15.39.3.59.45a19.76,19.76,0,0,0,22.8,0c.2-.15.4-.3.59-.45A1.718,1.718,0,0,0,35.017,34.632Z"/><path class="cls-9" d="M40.865,27.758A12.375,12.375,0,0,0,41,26c0-1.11-7.6-2-17-2S7,24.89,7,26a12.387,12.387,0,0,0,.135,1.758C8.148,26.764,15.3,26,24,26S39.852,26.764,40.865,27.758Z"/></g></svg>