<svg xmlns="http://www.w3.org/2000/svg" viewBox="0 0 48 48"><defs><style>.cls-1{fill:#ffce52;}.cls-2{fill:#273941;}.cls-3{fill:#ae2d4c;}.cls-4{fill:#f6fafd;}.cls-5{fill:#ffe369;}.cls-6{fill:#ffb32b;}.cls-7{fill:#8a293d;}.cls-8{fill:#ededed;}.cls-9{fill:#3bc5f6;}.cls-10{fill:#00a3e1;}.cls-11{fill:#ffc943;}</style></defs><title>18-laughing</title><g id="_18-laughing" data-name="18-laughing"><circle class="cls-1" cx="24" cy="24" r="23"/><path class="cls-2" d="M37.553,20.9C35.764,20,33.717,20,30,20a1,1,0,0,1-1-1c0-2.265,3.568-5,8-5v2a7.807,7.807,0,0,0-5.419,2c3.058.018,4.963.151,6.866,1.1Z"/><path class="cls-2" d="M10.447,20.9l-.894-1.79c1.9-.951,3.808-1.084,6.866-1.1A7.807,7.807,0,0,0,11,16V14c4.432,0,8,2.735,8,5a1,1,0,0,1-1,1C14.283,20,12.236,20,10.447,20.9Z"/><path class="cls-3" d="M35.2,26H38c0,8.36-6.53,13-14,13a14.971,14.971,0,0,1-9.8-3.36A12.283,12.283,0,0,1,10,26h2.8c0,3.87,5.01,7,11.2,7S35.2,29.87,35.2,26Z"/><path class="cls-4" d="M12.8,26H35.2c0,3.87-5.01,7-11.2,7S12.8,29.87,12.8,26Z"/><path class="cls-5" d="M24,4c12.15,0,22,8.507,22,19h.975a23,23,0,0,0-45.95,0H2C2,12.507,11.85,4,24,4Z"/><path class="cls-6" d="M46,23c0,10.493-9.85,19-22,19S2,33.493,2,23H1.025c-.014.332-.025.665-.025,1a23,23,0,0,0,46,0c0-.335-.011-.668-.025-1Z"/><ellipse class="cls-4" cx="37" cy="9" rx="0.825" ry="1.148" transform="translate(4.48 28.81) rotate(-45.02)"/><ellipse class="cls-4" cx="30.746" cy="4.5" rx="0.413" ry="0.574" transform="translate(5.829 23.067) rotate(-45.02)"/><ellipse class="cls-4" cx="34" cy="7" rx="1.65" ry="2.297" transform="translate(5.015 26.102) rotate(-45.02)"/><path class="cls-7" d="M35.2,26c0,3.87-5.01,7-11.2,7s-11.2-3.13-11.2-7H12c0,4.976,5.368,9,12,9s12-4.024,12-9Z"/><path class="cls-8" d="M35.2,26H12.8a4.622,4.622,0,0,0,.469,2H34.731A4.622,4.622,0,0,0,35.2,26Z"/><path class="cls-9" d="M46.044,22.429a3.263,3.263,0,0,1-4.615,4.615c-1.275-1.274-2.885-6.346-2.308-6.923S44.77,21.154,46.044,22.429Z"/><path class="cls-9" d="M1.956,22.429a3.263,3.263,0,0,0,4.615,4.615C7.846,25.77,9.456,20.7,8.879,20.121S3.23,21.154,1.956,22.429Z"/><path class="cls-10" d="M46.044,22.428c-1.12-1.12-5.173-2.5-6.529-2.424a10.448,10.448,0,0,1,4.768,1.817,2.448,2.448,0,0,1-3.462,3.462A10.453,10.453,0,0,1,39,20.515c-.075,1.355,1.3,5.408,2.425,6.529a3.264,3.264,0,1,0,4.615-4.616Z"/><path class="cls-10" d="M3.717,25.283a2.448,2.448,0,0,1,0-3.462A10.448,10.448,0,0,1,8.485,20c-1.356-.075-5.409,1.3-6.529,2.424a3.264,3.264,0,0,0,4.615,4.616C7.692,25.923,9.071,21.87,9,20.515a10.453,10.453,0,0,1-1.817,4.768A2.448,2.448,0,0,1,3.717,25.283Z"/><ellipse class="cls-4" cx="45" cy="23" rx="0.825" ry="1.148" transform="translate(-3.078 38.573) rotate(-45.02)"/><ellipse class="cls-4" cx="44.746" cy="24.5" rx="0.413" ry="0.574" transform="translate(-4.214 38.833) rotate(-45.02)"/><ellipse class="cls-4" cx="3" cy="23" rx="1.148" ry="0.825" transform="translate(-15.38 8.852) rotate(-44.98)"/><ellipse class="cls-4" cx="3.254" cy="24.5" rx="0.574" ry="0.413" transform="translate(-16.366 9.47) rotate(-44.98)"/><path class="cls-11" d="M41.429,27.044a13.329,13.329,0,0,1-2.206-4.977.328.328,0,0,0-.1.054c-.577.577,1.033,5.649,2.308,6.923A3.249,3.249,0,0,0,44.5,29.9a17.065,17.065,0,0,0,.862-2.346A3.255,3.255,0,0,1,41.429,27.044Z"/><path class="cls-6" d="M46.829,25.736a3.069,3.069,0,0,1-1.469,1.817A17.065,17.065,0,0,1,44.5,29.9a3.2,3.2,0,0,0,2.091-1.581q.213-1.12.316-2.277C46.882,25.939,46.861,25.836,46.829,25.736Z"/><path class="cls-11" d="M6.571,29.044C7.846,27.77,9.456,22.7,8.879,22.121a.328.328,0,0,0-.1-.054,13.329,13.329,0,0,1-2.206,4.977,3.255,3.255,0,0,1-3.931.509A17.065,17.065,0,0,0,3.5,29.9,3.249,3.249,0,0,0,6.571,29.044Z"/><path class="cls-6" d="M3.5,29.9a17.065,17.065,0,0,1-.862-2.346,3.069,3.069,0,0,1-1.469-1.817c-.032.1-.053.2-.076.3q.1,1.157.316,2.277A3.2,3.2,0,0,0,3.5,29.9Z"/></g></svg>