<svg xmlns="http://www.w3.org/2000/svg" viewBox="0 0 48 48"><defs><style>.cls-1{fill:#ffce52;}.cls-2{fill:#ffe369;}.cls-3{fill:#ffb32b;}.cls-4{fill:#88d6f9;}.cls-5{fill:#e5ebf7;}.cls-6{fill:#ccedfc;}.cls-7{fill:#ededed;}.cls-8{fill:#273941;}.cls-9{fill:#3bc5f6;}.cls-10{fill:#f6fafd;}</style></defs><title>25-mask</title><g id="_25-mask" data-name="25-mask"><circle class="cls-1" cx="24" cy="24" r="23"/><path class="cls-2" d="M24,4c12.15,0,22,8.507,22,19h.975a23,23,0,0,0-45.95,0H2C2,12.507,11.85,4,24,4Z"/><path class="cls-3" d="M46,23c0,10.493-9.85,19-22,19S2,33.493,2,23H1.025c-.014.332-.025.665-.025,1a23,23,0,0,0,46,0c0-.335-.011-.668-.025-1Z"/><path class="cls-4" d="M13,32.6V28.4c0-1.325,1.407-2.4,3.143-2.4H31.857C33.593,26,35,27.075,35,28.4v4.2c0,1.658-4.92,5.4-11,5.4S13,34.258,13,32.6Z"/><path class="cls-5" d="M9,33V26a4.151,4.151,0,0,1,4.286-4H34.714A4.151,4.151,0,0,1,39,26v7c0,2.764-6.709,9-15,9S9,35.764,9,33Z"/><path class="cls-6" d="M12,32.7V27.8c0-1.546,1.535-2.8,3.429-2.8H32.571C34.465,25,36,26.254,36,27.8v4.9c0,1.935-5.367,6.3-12,6.3S12,34.635,12,32.7Z"/><path class="cls-7" d="M34.714,22H13.286A4.151,4.151,0,0,0,9,26v2a4.151,4.151,0,0,1,4.286-4H34.714A4.151,4.151,0,0,1,39,28V26A4.151,4.151,0,0,0,34.714,22Z"/><path class="cls-8" d="M29,15v2c4.883,0,8,1.776,8,3h2C39,17.149,34.7,15,29,15Z"/><path class="cls-8" d="M9,20h2c0-1.224,3.117-3,8-3V15C13.3,15,9,17.149,9,20Z"/><path class="cls-5" d="M39,26v.25l7.727-5.8q-.169-1.1-.443-2.167l-7.8,5.849A3.752,3.752,0,0,1,39,26Z"/><path class="cls-5" d="M39.153,32v1a1.932,1.932,0,0,1-.392,1h5.956q.472-.975.851-2Z"/><path class="cls-5" d="M9,26a3.752,3.752,0,0,1,.515-1.864l-7.8-5.849q-.272,1.065-.443,2.167L9,26.25Z"/><path class="cls-5" d="M9,33V32H2.432q.38,1.023.851,2H9.239A2.776,2.776,0,0,1,9,33Z"/><path class="cls-4" d="M31.857,26H16.143a3.009,3.009,0,0,0-3.09,2H34.947A3.009,3.009,0,0,0,31.857,26Z"/><path class="cls-9" d="M24,38a15.9,15.9,0,0,0,7.634-2H16.366A15.9,15.9,0,0,0,24,38Z"/><path class="cls-9" d="M35,28.4a1.843,1.843,0,0,0-.053-.4H13.053a1.843,1.843,0,0,0-.053.4V32H35Z"/><path class="cls-4" d="M35,32.6V32H13v.6c0,.848,1.294,2.241,3.366,3.4H31.634C33.706,34.841,35,33.448,35,32.6Z"/><ellipse class="cls-10" cx="37" cy="9" rx="0.825" ry="1.148" transform="translate(4.48 28.81) rotate(-45.02)"/><ellipse class="cls-10" cx="30.746" cy="4.5" rx="0.413" ry="0.574" transform="translate(5.829 23.067) rotate(-45.02)"/><ellipse class="cls-10" cx="34" cy="7" rx="1.65" ry="2.297" transform="translate(5.015 26.102) rotate(-45.02)"/></g></svg>