<svg xmlns="http://www.w3.org/2000/svg" xmlns:xlink="http://www.w3.org/1999/xlink" viewBox="0 0 48 48"><defs><style>.cls-1{fill:#ffce52;}.cls-2{fill:#ffe369;}.cls-3{fill:#ffb32b;}.cls-4{fill:#f6fafd;}.cls-5{fill:url(#radial-gradient);}.cls-6{fill:#273941;}.cls-7{fill:#78b300;}.cls-8{fill:#4f813b;}.cls-9{fill:#141e21;}.cls-10{fill:#426704;}.cls-11{fill:#a9cc11;}</style><radialGradient id="radial-gradient" cx="14.714" cy="2.714" r="6" gradientTransform="translate(-15.238 17.833) scale(2.667 1.167)" gradientUnits="userSpaceOnUse"><stop offset="0" stop-color="#63b300"/><stop offset="0.13" stop-color="#7ab80f"/><stop offset="0.547" stop-color="#c1c63d"/><stop offset="0.848" stop-color="#eed059"/><stop offset="1" stop-color="#ffd364"/></radialGradient></defs><title>26-puke</title><g id="_26-puke" data-name="26-puke"><circle class="cls-1" cx="24" cy="24" r="23"/><path class="cls-2" d="M24,4c12.15,0,22,8.507,22,19h.975a23,23,0,0,0-45.95,0H2C2,12.507,11.85,4,24,4Z"/><path class="cls-3" d="M46,23c0,10.493-9.85,19-22,19S2,33.493,2,23H1.025c-.014.332-.025.665-.025,1a23,23,0,0,0,46,0c0-.335-.011-.668-.025-1Z"/><ellipse class="cls-4" cx="37" cy="9" rx="0.825" ry="1.148" transform="translate(4.48 28.81) rotate(-45.02)"/><ellipse class="cls-4" cx="30.746" cy="4.5" rx="0.413" ry="0.574" transform="translate(5.829 23.067) rotate(-45.02)"/><ellipse class="cls-4" cx="34" cy="7" rx="1.65" ry="2.297" transform="translate(5.015 26.102) rotate(-45.02)"/><ellipse class="cls-5" cx="24" cy="21" rx="16" ry="7"/><ellipse class="cls-6" cx="24" cy="30" rx="13" ry="7"/><path class="cls-7" d="M9.6,41.93A3.324,3.324,0,0,1,12,41a2.959,2.959,0,0,1,2.92,1.74A2.486,2.486,0,0,1,16,42.5a2.354,2.354,0,0,1,1.38.42A3.259,3.259,0,0,1,20,41.75a3.259,3.259,0,0,1,2.62,1.17,2.477,2.477,0,0,1,2.76,0,3.519,3.519,0,0,1,5.24,0A2.354,2.354,0,0,1,32,42.5c.06,0,.12.01.18.01A3.047,3.047,0,0,1,35,41a3.394,3.394,0,0,1,.97.13,2.943,2.943,0,0,1,1.56.92,3.68,3.68,0,0,1,1.06-.28h.01c.13-.01.26-.02.4-.02a3.347,3.347,0,0,1,2.5,1.01A3.347,3.347,0,0,1,44,41.75c1.66,0,3,1.01,3,2.25v3H1V44c0-.83.9-1.5,2-1.5a2.354,2.354,0,0,1,1.38.42A3.259,3.259,0,0,1,7,41.75a3.434,3.434,0,0,1,2.19.73A1.926,1.926,0,0,1,9.6,41.93Z"/><path class="cls-8" d="M34.41,34.19c.38,2.7.99,6.21,1.59,6.81l-.03.13A3.394,3.394,0,0,0,35,41a3.047,3.047,0,0,0-2.82,1.51c-.06,0-.12-.01-.18-.01a2.354,2.354,0,0,0-1.38.42,3.519,3.519,0,0,0-5.24,0,2.477,2.477,0,0,0-2.76,0A3.259,3.259,0,0,0,20,41.75a3.259,3.259,0,0,0-2.62,1.17A2.354,2.354,0,0,0,16,42.5a2.486,2.486,0,0,0-1.08.24A2.959,2.959,0,0,0,12,41c.6-.6,1.21-4.11,1.59-6.81C13.84,32.42,14,31,14,31V30a3,3,0,0,1,3-3H31a3,3,0,0,1,3,3v1S34.16,32.42,34.41,34.19Z"/><path class="cls-6" d="M37.553,20.9C35.764,20,33.717,20,30,20a1,1,0,0,1-1-1c0-2.265,3.568-5,8-5v2a7.8,7.8,0,0,0-5.418,2c3.057.018,4.962.151,6.865,1.1Z"/><path class="cls-6" d="M10.447,20.9l-.894-1.79c1.9-.951,3.808-1.084,6.865-1.1A7.8,7.8,0,0,0,11,16V14c4.432,0,8,2.735,8,5a1,1,0,0,1-1,1C14.283,20,12.236,20,10.447,20.9Z"/><path class="cls-6" d="M36,13c-5.131,0-9-2.149-9-5h2c0,1.416,2.994,3,7,3Z"/><path class="cls-6" d="M12,13V11c4.006,0,7-1.584,7-3h2C21,10.851,17.131,13,12,13Z"/><path class="cls-9" d="M24,25c6.547,0,11.949,2.609,12.852,6A3.846,3.846,0,0,0,37,30c0-3.866-5.82-7-13-7s-13,3.134-13,7a3.846,3.846,0,0,0,.148,1C12.051,27.609,17.453,25,24,25Z"/><path class="cls-7" d="M14,33V32a3,3,0,0,1,3-3H31a3,3,0,0,1,3,3v1s.16,1.42.41,3.19c.223,1.581.524,3.437.856,4.827a3.187,3.187,0,0,1,.7.113L36,41c-.6-.6-1.21-4.11-1.59-6.81C34.16,32.42,34,31,34,31V30a3,3,0,0,0-3-3H17a3,3,0,0,0-3,3v1s-.16,1.42-.41,3.19C13.21,36.89,12.6,40.4,12,41a3.931,3.931,0,0,1,.72.074c.337-1.4.644-3.281.87-4.884C13.84,34.42,14,33,14,33Z"/><path class="cls-10" d="M35,39a3.047,3.047,0,0,0-2.82,1.51c-.06,0-.12-.01-.18-.01a2.354,2.354,0,0,0-1.38.42,3.519,3.519,0,0,0-5.24,0,2.477,2.477,0,0,0-2.76,0A3.259,3.259,0,0,0,20,39.75a3.259,3.259,0,0,0-2.62,1.17A2.354,2.354,0,0,0,16,40.5a2.486,2.486,0,0,0-1.08.24,2.737,2.737,0,0,0-2.2-1.666A5.137,5.137,0,0,1,12,41a2.959,2.959,0,0,1,2.92,1.74A2.486,2.486,0,0,1,16,42.5a2.354,2.354,0,0,1,1.38.42A3.259,3.259,0,0,1,20,41.75a3.259,3.259,0,0,1,2.62,1.17,2.477,2.477,0,0,1,2.76,0,3.519,3.519,0,0,1,5.24,0A2.354,2.354,0,0,1,32,42.5c.06,0,.12.01.18.01A3.047,3.047,0,0,1,35,41a3.394,3.394,0,0,1,.97.13L36,41a5.292,5.292,0,0,1-.734-1.983C35.178,39.011,35.091,39,35,39Z"/><circle class="cls-7" cx="19" cy="32" r="2"/><circle class="cls-7" cx="22" cy="36" r="1"/><circle class="cls-7" cx="25" cy="32" r="1"/><circle class="cls-8" cx="16" cy="45" r="1"/><circle class="cls-8" cx="24" cy="44" r="1"/><circle class="cls-8" cx="32" cy="45" r="1"/><circle class="cls-8" cx="44" cy="43" r="1"/><circle class="cls-8" cx="8" cy="44" r="1"/><circle class="cls-11" cx="16.5" cy="37.5" r="0.5"/><circle class="cls-11" cx="29.5" cy="31.5" r="0.5"/><circle class="cls-11" cx="32.5" cy="36.5" r="0.5"/><circle class="cls-11" cx="34.5" cy="44.5" r="0.5"/><circle class="cls-11" cx="3.5" cy="43.5" r="0.5"/><circle class="cls-11" cx="42.5" cy="43.5" r="0.5"/><circle class="cls-11" cx="44.5" cy="45.5" r="0.5"/><circle class="cls-11" cx="34.5" cy="42.5" r="0.5"/><circle class="cls-11" cx="18.5" cy="43.5" r="0.5"/><circle class="cls-11" cx="27.5" cy="45.5" r="0.5"/><circle class="cls-11" cx="24.5" cy="38.5" r="0.5"/><circle class="cls-7" cx="28" cy="36" r="2"/><circle class="cls-11" cx="39" cy="44" r="2"/><circle class="cls-11" cx="12" cy="44" r="2"/><ellipse class="cls-4" cx="41" cy="44" rx="0.825" ry="1.148" transform="translate(-19.105 41.899) rotate(-45.02)"/><ellipse class="cls-4" cx="32" cy="31" rx="0.825" ry="1.148" transform="translate(-12.547 31.722) rotate(-45.02)"/><ellipse class="cls-4" cx="38.746" cy="43.5" rx="0.413" ry="0.574" transform="translate(-19.412 40.158) rotate(-45.02)"/><ellipse class="cls-4" cx="32.746" cy="33.5" rx="0.413" ry="0.574" transform="translate(-14.097 32.983) rotate(-45.02)"/></g></svg>