<svg xmlns="http://www.w3.org/2000/svg" viewBox="0 0 48 48"><defs><style>.cls-1{fill:#ffce52;}.cls-2{fill:#273941;}.cls-3{fill:#f6fafd;}.cls-4{fill:#141e21;}.cls-5{fill:#ffe369;}.cls-6{fill:#ffb32b;}.cls-7{fill:#fbb40a;}</style></defs><title>08-sarcastic</title><g id="_08-sarcastic" data-name="08-sarcastic"><circle class="cls-1" cx="24" cy="24" r="23"/><path class="cls-2" d="M21,36.014,19,36c0-3.158,6.915-4,11-4v2C24.141,34,21.147,35.459,21,36.014Z"/><path class="cls-3" d="M39.14,15.92c-.042-.074-.094-.142-.14-.214V17a2,2,0,0,1-4,0V15H29.54A5.931,5.931,0,0,0,28,19a6,6,0,0,0,12,0A5.871,5.871,0,0,0,39.14,15.92Z"/><path class="cls-4" d="M37,19a2,2,0,0,0,2-2V15.706A5.133,5.133,0,0,0,38.46,15H35v2A2,2,0,0,0,37,19Z"/><path class="cls-3" d="M19.14,15.92c-.042-.074-.094-.142-.14-.214V17a2,2,0,0,1-4,0V15H9.54A5.931,5.931,0,0,0,8,19a6,6,0,0,0,12,0A5.871,5.871,0,0,0,19.14,15.92Z"/><path class="cls-4" d="M17,19a2,2,0,0,0,2-2V15.706A5.133,5.133,0,0,0,18.46,15H15v2A2,2,0,0,0,17,19Z"/><path class="cls-5" d="M24,4c12.15,0,22,8.507,22,19h.975a23,23,0,0,0-45.95,0H2C2,12.507,11.85,4,24,4Z"/><path class="cls-6" d="M46,23c0,10.493-9.85,19-22,19S2,33.493,2,23H1.025c-.014.332-.025.665-.025,1a23,23,0,0,0,46,0c0-.335-.011-.668-.025-1Z"/><ellipse class="cls-3" cx="36.5" cy="8.5" rx="0.825" ry="1.148" transform="translate(4.687 28.31) rotate(-45.02)"/><ellipse class="cls-3" cx="30.246" cy="4" rx="0.413" ry="0.574" transform="translate(6.037 22.567) rotate(-45.02)"/><ellipse class="cls-3" cx="33.5" cy="6.5" rx="1.65" ry="2.297" transform="translate(5.222 25.602) rotate(-45.02)"/><path class="cls-7" d="M34,25a6,6,0,0,1-5.908-4.985,6,6,0,1,0,11.817-.009A6,6,0,0,1,34,25Z"/><path class="cls-7" d="M14,25a6,6,0,0,1-5.908-4.985,6,6,0,1,0,11.817-.009A6,6,0,0,1,14,25Z"/><path class="cls-7" d="M35,15h3.46a5.133,5.133,0,0,1,.54.706c.046.072.1.14.14.214a5.851,5.851,0,0,1,.831,2.655c.018-.189.029-.381.029-.575a5.871,5.871,0,0,0-.86-3.08c-.042-.074-.094-.142-.14-.214A5.133,5.133,0,0,0,38.46,14H29.54A5.931,5.931,0,0,0,28,18a6.032,6.032,0,0,0,.034.634A5.927,5.927,0,0,1,29.54,15Z"/><path class="cls-7" d="M15,15h3.46a5.133,5.133,0,0,1,.54.706c.046.072.1.14.14.214a5.851,5.851,0,0,1,.831,2.655c.018-.189.029-.381.029-.575a5.871,5.871,0,0,0-.86-3.08c-.042-.074-.094-.142-.14-.214A5.133,5.133,0,0,0,18.46,14H9.54A5.931,5.931,0,0,0,8,18a6.032,6.032,0,0,0,.034.634A5.927,5.927,0,0,1,9.54,15Z"/></g></svg>