<svg xmlns="http://www.w3.org/2000/svg" xmlns:xlink="http://www.w3.org/1999/xlink" viewBox="0 0 48 48"><defs><style>.cls-1{fill:#ffce52;}.cls-2{fill:#ffe369;}.cls-3{fill:#ffb32b;}.cls-4{fill:#f6fafd;}.cls-5{fill:url(#radial-gradient);}.cls-6{fill:url(#radial-gradient-2);}.cls-7{fill:#273941;}</style><radialGradient id="radial-gradient" cx="36" cy="18" r="6" gradientUnits="userSpaceOnUse"><stop offset="0" stop-color="#ff568d"/><stop offset="0.454" stop-color="#ff9678"/><stop offset="0.817" stop-color="#ffc26a"/><stop offset="1" stop-color="#ffd364"/></radialGradient><radialGradient id="radial-gradient-2" cx="12" xlink:href="#radial-gradient"/></defs><title>10-shy</title><g id="_10-shy" data-name="10-shy"><circle class="cls-1" cx="24" cy="24" r="23"/><path class="cls-2" d="M24,4c12.15,0,22,8.507,22,19h.975a23,23,0,0,0-45.95,0H2C2,12.507,11.85,4,24,4Z"/><path class="cls-3" d="M46,23c0,10.493-9.85,19-22,19S2,33.493,2,23H1.025c-.014.332-.025.665-.025,1a23,23,0,0,0,46,0c0-.335-.011-.668-.025-1Z"/><ellipse class="cls-4" cx="36.5" cy="7.5" rx="0.825" ry="1.148" transform="translate(5.394 28.017) rotate(-45.02)"/><ellipse class="cls-4" cx="30.246" cy="4" rx="0.413" ry="0.574" transform="translate(6.037 22.567) rotate(-45.02)"/><ellipse class="cls-4" cx="33.5" cy="5.5" rx="1.65" ry="2.297" transform="translate(5.93 25.308) rotate(-45.02)"/><circle class="cls-5" cx="36" cy="18" r="6"/><circle class="cls-6" cx="12" cy="18" r="6"/><path class="cls-7" d="M24,28c-4.411,0-8-3.14-8-7h2c0,2.757,2.691,5,6,5s6-2.243,6-5h2C32,24.86,28.411,28,24,28Z"/><path class="cls-7" d="M38,13H36a3,3,0,0,0-6,0H28a5,5,0,0,1,10,0Z"/><path class="cls-7" d="M20,13H18a3,3,0,0,0-6,0H10a5,5,0,0,1,10,0Z"/></g></svg>