<svg xmlns="http://www.w3.org/2000/svg" viewBox="0 0 48 48"><defs><style>.cls-1{fill:#ffce52;}.cls-2{fill:#ffe369;}.cls-3{fill:#ffb32b;}.cls-4{fill:#f6fafd;}.cls-5{fill:#273941;}.cls-6{fill:#141e21;}.cls-7{fill:#ae2d4c;}.cls-8{fill:#8a293d;}.cls-9{fill:#048ec6;}</style></defs><title>24-sleep</title><g id="_24-sleep" data-name="24-sleep"><circle class="cls-1" cx="24" cy="24" r="23"/><path class="cls-2" d="M24,4c12.15,0,22,8.507,22,19h.975a23,23,0,0,0-45.95,0H2C2,12.507,11.85,4,24,4Z"/><path class="cls-3" d="M46,23c0,10.493-9.85,19-22,19S2,33.493,2,23H1.025c-.014.332-.025.665-.025,1a23,23,0,0,0,46,0c0-.335-.011-.668-.025-1Z"/><ellipse class="cls-4" cx="37" cy="8" rx="0.825" ry="1.148" transform="translate(5.187 28.517) rotate(-45.02)"/><ellipse class="cls-4" cx="30.746" cy="3.5" rx="0.413" ry="0.574" transform="translate(6.537 22.774) rotate(-45.02)"/><ellipse class="cls-4" cx="34" cy="6" rx="1.65" ry="2.297" transform="translate(5.723 25.809) rotate(-45.02)"/><ellipse class="cls-5" cx="24" cy="31" rx="4" ry="5"/><path class="cls-6" d="M24,27c2.072,0,3.756,1.977,3.96,4.5.013-.167.04-.329.04-.5,0-2.761-1.791-5-4-5s-4,2.239-4,5c0,.171.027.333.04.5C20.244,28.977,21.928,27,24,27Z"/><path class="cls-7" d="M24,36a4.024,4.024,0,0,0,3.579-2.808,5.969,5.969,0,0,0-7.158,0A4.024,4.024,0,0,0,24,36Z"/><path class="cls-8" d="M24,35a3.789,3.789,0,0,1-3.2-2.047c-.125.08-.258.15-.378.239A4.024,4.024,0,0,0,24,36a4.024,4.024,0,0,0,3.579-2.808c-.12-.089-.253-.159-.378-.239A3.789,3.789,0,0,1,24,35Z"/><path class="cls-5" d="M14,23a5.006,5.006,0,0,1-5-5h2a3,3,0,0,0,6,0h2A5.006,5.006,0,0,1,14,23Z"/><path class="cls-5" d="M34,23a5.006,5.006,0,0,1-5-5h2a3,3,0,0,0,6,0h2A5.006,5.006,0,0,1,34,23Z"/><path class="cls-9" d="M48,8H41a1,1,0,0,1-.707-1.707L44.586,2H41V0h6a1,1,0,0,1,.707,1.707L43.414,6H48Z"/><path class="cls-9" d="M36,15H30a1,1,0,0,1-.707-1.707L33.586,9H30V7h6a1,1,0,0,1,.707,1.707L32.414,13H36Z"/><path class="cls-9" d="M26,11H22a1,1,0,0,1-.707-1.707L23.586,7H22V5h4a1,1,0,0,1,.707,1.707L24.414,9H26Z"/></g></svg>