<svg width="24" height="24" viewBox="0 0 24 24" fill="none" xmlns="http://www.w3.org/2000/svg">
<mask id="mask0_813_12094" style="mask-type:alpha" maskUnits="userSpaceOnUse" x="0" y="0" width="24" height="24">
<rect width="24" height="24" fill="#D9D9D9"/>
</mask>
<g mask="url(#mask0_813_12094)">
<path d="M5.5252 16.925C6.45853 16.225 7.4752 15.6873 8.5752 15.312C9.6752 14.9373 10.8169 14.75 12.0002 14.75C13.1835 14.75 14.3252 14.9373 15.4252 15.312C16.5252 15.6873 17.5419 16.225 18.4752 16.925C19.0585 16.1583 19.4835 15.3706 19.7502 14.562C20.0169 13.754 20.1502 12.9 20.1502 12C20.1502 9.76662 19.3502 7.84995 17.7502 6.24995C16.1502 4.64995 14.2335 3.84995 12.0002 3.84995C9.76686 3.84995 7.8502 4.64995 6.2502 6.24995C4.6502 7.84995 3.8502 9.76662 3.8502 12C3.8502 12.9 3.98353 13.754 4.2502 14.562C4.51686 15.3706 4.94186 16.1583 5.5252 16.925ZM12.0002 13.6C10.8502 13.6 9.87953 13.204 9.0882 12.412C8.2962 11.6206 7.9002 10.65 7.9002 9.49995C7.9002 8.34995 8.2962 7.37895 9.0882 6.58695C9.87953 5.79562 10.8502 5.39995 12.0002 5.39995C13.1502 5.39995 14.1212 5.79562 14.9132 6.58695C15.7045 7.37895 16.1002 8.34995 16.1002 9.49995C16.1002 10.65 15.7045 11.6206 14.9132 12.412C14.1212 13.204 13.1502 13.6 12.0002 13.6ZM12.0002 22.7999C10.5335 22.7999 9.14186 22.5126 7.8252 21.938C6.50853 21.3626 5.36286 20.5873 4.3882 19.6119C3.41286 18.6373 2.63753 17.4916 2.0622 16.175C1.48753 14.8583 1.2002 13.4583 1.2002 11.975C1.2002 10.5083 1.48753 9.12062 2.0622 7.81195C2.63753 6.50395 3.41286 5.36228 4.3882 4.38695C5.36286 3.41228 6.50853 2.63728 7.8252 2.06195C9.14186 1.48728 10.5419 1.19995 12.0252 1.19995C13.4919 1.19995 14.8795 1.48728 16.1882 2.06195C17.4962 2.63728 18.6379 3.41228 19.6132 4.38695C20.5879 5.36228 21.3629 6.50395 21.9382 7.81195C22.5129 9.12062 22.8002 10.5166 22.8002 12C22.8002 13.4666 22.5129 14.8583 21.9382 16.175C21.3629 17.4916 20.5879 18.6373 19.6132 19.6119C18.6379 20.5873 17.4962 21.3626 16.1882 21.938C14.8795 22.5126 13.4835 22.7999 12.0002 22.7999ZM12.0002 20.15C12.8002 20.15 13.5835 20.0333 14.3502 19.7999C15.1169 19.5666 15.8252 19.225 16.4752 18.775C15.8252 18.3249 15.1169 17.9833 14.3502 17.75C13.5835 17.5166 12.8002 17.4 12.0002 17.4C11.2002 17.4 10.4169 17.5166 9.6502 17.75C8.88353 17.9833 8.1752 18.3249 7.5252 18.775C8.1752 19.225 8.88353 19.5666 9.6502 19.7999C10.4169 20.0333 11.2002 20.15 12.0002 20.15ZM12.0002 10.95C12.4002 10.95 12.7419 10.8083 13.0252 10.525C13.3085 10.2416 13.4502 9.89995 13.4502 9.49995C13.4502 9.09995 13.3085 8.75829 13.0252 8.47495C12.7419 8.19162 12.4002 8.04995 12.0002 8.04995C11.6002 8.04995 11.2585 8.19162 10.9752 8.47495C10.6919 8.75829 10.5502 9.09995 10.5502 9.49995C10.5502 9.89995 10.6919 10.2416 10.9752 10.525C11.2585 10.8083 11.6002 10.95 12.0002 10.95Z" fill="#535AF1"/>
</g>
</svg>
