<svg width="16" height="16" viewBox="0 0 16 16" fill="none" xmlns="http://www.w3.org/2000/svg">
<path d="M8 15.3501C7.63333 15.3501 7.32067 15.2208 7.062 14.9621C6.804 14.7041 6.675 14.3918 6.675 14.0251V9.3001H1.95C1.58333 9.3001 1.271 9.17076 1.013 8.9121C0.754333 8.6541 0.625 8.34176 0.625 7.9751C0.625 7.60843 0.754333 7.29576 1.013 7.0371C1.271 6.7791 1.58333 6.6501 1.95 6.6501H6.675V1.9251C6.675 1.55843 6.804 1.24576 7.062 0.987098C7.32067 0.729098 7.63333 0.600098 8 0.600098C8.36667 0.600098 8.67933 0.729098 8.938 0.987098C9.196 1.24576 9.325 1.55843 9.325 1.9251V6.6501H14.05C14.4167 6.6501 14.7293 6.7791 14.988 7.0371C15.246 7.29576 15.375 7.60843 15.375 7.9751C15.375 8.34176 15.246 8.6541 14.988 8.9121C14.7293 9.17076 14.4167 9.3001 14.05 9.3001H9.325V14.0251C9.325 14.3918 9.196 14.7041 8.938 14.9621C8.67933 15.2208 8.36667 15.3501 8 15.3501Z" fill="#535AF1"/>
</svg>
