<svg width="22" height="22" viewBox="0 0 22 22" fill="none" xmlns="http://www.w3.org/2000/svg">
<path d="M14.7002 10.2C15.2002 10.2 15.6169 10.0333 15.9502 9.69995C16.2835 9.36662 16.4502 8.94995 16.4502 8.44995C16.4502 7.94995 16.2835 7.53328 15.9502 7.19995C15.6169 6.86662 15.2002 6.69995 14.7002 6.69995C14.2002 6.69995 13.7835 6.86662 13.4502 7.19995C13.1169 7.53328 12.9502 7.94995 12.9502 8.44995C12.9502 8.94995 13.1169 9.36662 13.4502 9.69995C13.7835 10.0333 14.2002 10.2 14.7002 10.2ZM7.3002 10.2C7.8002 10.2 8.21686 10.0333 8.5502 9.69995C8.88353 9.36662 9.0502 8.94995 9.0502 8.44995C9.0502 7.94995 8.88353 7.53328 8.5502 7.19995C8.21686 6.86662 7.8002 6.69995 7.3002 6.69995C6.8002 6.69995 6.38353 6.86662 6.0502 7.19995C5.71686 7.53328 5.5502 7.94995 5.5502 8.44995C5.5502 8.94995 5.71686 9.36662 6.0502 9.69995C6.38353 10.0333 6.8002 10.2 7.3002 10.2ZM11.0002 17C12.1002 17 13.0712 16.754 13.9132 16.2619C14.7545 15.7706 15.4002 15.1833 15.8502 14.5C16.0835 14.1333 16.1045 13.8 15.9132 13.5C15.7212 13.2 15.4585 13.05 15.1252 13.05C14.8752 13.05 14.6795 13.1 14.5382 13.2C14.3962 13.3 14.2585 13.4333 14.1252 13.6C13.7585 14.05 13.3085 14.4126 12.7752 14.688C12.2419 14.9626 11.6502 15.1 11.0002 15.1C10.3502 15.1 9.75853 14.9626 9.2252 14.688C8.69186 14.4126 8.24186 14.05 7.8752 13.6C7.74186 13.4333 7.60453 13.3 7.4632 13.2C7.3212 13.1 7.1252 13.05 6.8752 13.05C6.5252 13.05 6.26286 13.2123 6.08819 13.537C5.91286 13.8623 5.95853 14.225 6.22519 14.625C6.64186 15.2416 7.26686 15.7916 8.1002 16.275C8.93353 16.7583 9.9002 17 11.0002 17ZM11.0002 21.7999C9.5002 21.7999 8.09586 21.5166 6.7872 20.95C5.4792 20.3833 4.33786 19.6126 3.3632 18.638C2.38786 17.6626 1.61686 16.5206 1.0502 15.212C0.483529 13.904 0.200195 12.5 0.200195 11C0.200195 9.49995 0.483529 8.09162 1.0502 6.77495C1.61686 5.45828 2.38786 4.31262 3.3632 3.33795C4.33786 2.36262 5.4792 1.59562 6.7872 1.03695C8.09586 0.478951 9.5002 0.199951 11.0002 0.199951C12.5002 0.199951 13.9085 0.478951 15.2252 1.03695C16.5419 1.59562 17.6879 2.36262 18.6632 3.33795C19.6379 4.31262 20.4042 5.45828 20.9622 6.77495C21.5209 8.09162 21.8002 9.49995 21.8002 11C21.8002 12.5 21.5209 13.904 20.9622 15.212C20.4042 16.5206 19.6379 17.6626 18.6632 18.638C17.6879 19.6126 16.5419 20.3833 15.2252 20.95C13.9085 21.5166 12.5002 21.7999 11.0002 21.7999ZM11.0002 19.15C13.2669 19.15 15.1919 18.3583 16.7752 16.775C18.3585 15.1916 19.1502 13.2666 19.1502 11C19.1502 8.73328 18.3585 6.80828 16.7752 5.22495C15.1919 3.64162 13.2669 2.84995 11.0002 2.84995C8.73353 2.84995 6.80853 3.64162 5.22519 5.22495C3.64186 6.80828 2.8502 8.73328 2.8502 11C2.8502 13.2666 3.64186 15.1916 5.22519 16.775C6.80853 18.3583 8.73353 19.15 11.0002 19.15Z" fill="#535AF1"/>
</svg>
