<svg width="22" height="22" viewBox="0 0 22 22" fill="none" xmlns="http://www.w3.org/2000/svg">
<path d="M11.0002 21.7999C9.53353 21.7999 8.14186 21.5126 6.8252 20.938C5.50853 20.3626 4.36286 19.5873 3.3882 18.6119C2.41286 17.6373 1.63753 16.4916 1.0622 15.175C0.487529 13.8583 0.200195 12.4666 0.200195 11C0.200195 9.51662 0.487529 8.12062 1.0622 6.81195C1.63753 5.50395 2.41286 4.36228 3.3882 3.38695C4.36286 2.41228 5.50853 1.63728 6.8252 1.06195C8.14186 0.487284 9.53353 0.199951 11.0002 0.199951C12.4835 0.199951 13.8795 0.487284 15.1882 1.06195C16.4962 1.63728 17.6379 2.41228 18.6132 3.38695C19.5879 4.36228 20.3629 5.50395 20.9382 6.81195C21.5129 8.12062 21.8002 9.51662 21.8002 11V12.825C21.8002 14.0083 21.4129 14.95 20.6382 15.65C19.8629 16.35 18.9585 16.7 17.9252 16.7C17.3419 16.7 16.7752 16.5873 16.2252 16.3619C15.6752 16.1373 15.2002 15.8333 14.8002 15.45C14.3002 15.85 13.7045 16.1583 13.0132 16.375C12.3212 16.5916 11.6502 16.7 11.0002 16.7C9.41686 16.7 8.07119 16.146 6.96319 15.038C5.85453 13.9293 5.3002 12.5833 5.3002 11C5.3002 9.41662 5.85453 8.07095 6.96319 6.96295C8.07119 5.85428 9.41686 5.29995 11.0002 5.29995C12.5835 5.29995 13.9295 5.85428 15.0382 6.96295C16.1462 8.07095 16.7002 9.41662 16.7002 11V12.825C16.7002 13.1583 16.8209 13.446 17.0622 13.688C17.3042 13.9293 17.5919 14.05 17.9252 14.05C18.2585 14.05 18.5462 13.9293 18.7882 13.688C19.0295 13.446 19.1502 13.1583 19.1502 12.825V11C19.1502 8.76662 18.3502 6.84995 16.7502 5.24995C15.1502 3.64995 13.2335 2.84995 11.0002 2.84995C8.76686 2.84995 6.8502 3.64995 5.2502 5.24995C3.6502 6.84995 2.8502 8.76662 2.8502 11C2.8502 13.2333 3.6502 15.15 5.2502 16.75C6.8502 18.35 8.76686 19.15 11.0002 19.15H14.7752C15.1419 19.15 15.4542 19.2793 15.7122 19.538C15.9709 19.7959 16.1002 20.1083 16.1002 20.475C16.1002 20.8416 15.9709 21.1543 15.7122 21.413C15.4542 21.6709 15.1419 21.7999 14.7752 21.7999H11.0002ZM11.0002 14.05C11.8502 14.05 12.5712 13.754 13.1632 13.162C13.7545 12.5706 14.0502 11.85 14.0502 11C14.0502 10.15 13.7545 9.42895 13.1632 8.83695C12.5712 8.24562 11.8502 7.94995 11.0002 7.94995C10.1502 7.94995 9.42953 8.24562 8.8382 8.83695C8.2462 9.42895 7.9502 10.15 7.9502 11C7.9502 11.85 8.2462 12.5706 8.8382 13.162C9.42953 13.754 10.1502 14.05 11.0002 14.05Z" fill="#535AF1"/>
</svg>
