<svg width="15" height="10" viewBox="0 0 15 10" fill="none" xmlns="http://www.w3.org/2000/svg">
<path d="M7.45324 9.125C7.2449 9.125 7.04157 9.08333 6.84324 9C6.64574 8.91667 6.46365 8.79167 6.29699 8.625L0.484489 2.8125C0.171989 2.5 0.0207386 2.10917 0.0307386 1.64C0.0415719 1.17167 0.203239 0.78125 0.515739 0.46875C0.828239 0.15625 1.21907 0 1.68824 0C2.15657 0 2.54699 0.15625 2.85949 0.46875L7.45324 5.09375L12.0782 0.46875C12.3907 0.15625 12.7812 0 13.2495 0C13.7187 0 14.1095 0.15625 14.422 0.46875C14.7345 0.78125 14.8907 1.17167 14.8907 1.64C14.8907 2.10917 14.7345 2.5 14.422 2.8125L8.60949 8.625C8.44282 8.79167 8.26074 8.91667 8.06324 9C7.8649 9.08333 7.66157 9.125 7.45324 9.125Z" fill="#444DF2"/>
</svg>
