<svg width="30" height="30" viewBox="0 0 30 30" fill="none" xmlns="http://www.w3.org/2000/svg">
<mask id="mask0_64811_15891" style="mask-type:alpha" maskUnits="userSpaceOnUse" x="0" y="0" width="30" height="30">
<rect width="30" height="30" fill="#D9D9D9"/>
</mask>
<g mask="url(#mask0_64811_15891)">
<path d="M15 18.7188C14.8333 18.7188 14.6721 18.6875 14.5162 18.625C14.3596 18.5625 14.2292 18.4792 14.125 18.375L8.375 12.625C8.14583 12.3958 8.03125 12.1042 8.03125 11.75C8.03125 11.3958 8.14583 11.1042 8.375 10.875C8.60417 10.6458 8.89583 10.5312 9.25 10.5312C9.60417 10.5312 9.89583 10.6458 10.125 10.875L15 15.75L19.875 10.875C20.1042 10.6458 20.3958 10.5312 20.75 10.5312C21.1042 10.5312 21.3958 10.6458 21.625 10.875C21.8542 11.1042 21.9688 11.3958 21.9688 11.75C21.9688 12.1042 21.8542 12.3958 21.625 12.625L15.875 18.375C15.75 18.5 15.6146 18.5883 15.4688 18.64C15.3229 18.6925 15.1667 18.7188 15 18.7188Z" fill="black"/>
</g>
</svg>
