<svg width="18" height="18" viewBox="0 0 18 18" fill="none" xmlns="http://www.w3.org/2000/svg">
<path d="M7.5 16.6999L0.75 9.94987C0.616667 9.81654 0.521 9.67054 0.463 9.51187C0.404333 9.35387 0.375 9.19154 0.375 9.02487C0.375 8.85821 0.404333 8.69554 0.463 8.53687C0.521 8.37887 0.616667 8.23321 0.75 8.09987L7.525 1.32487C7.79167 1.05821 8.10433 0.928873 8.463 0.936873C8.821 0.94554 9.13333 1.08321 9.4 1.34987C9.66667 1.61654 9.8 1.93321 9.8 2.29987C9.8 2.66654 9.66667 2.98321 9.4 3.24987L4.95 7.69987H15.75C16.1167 7.69987 16.4293 7.82887 16.688 8.08687C16.946 8.34554 17.075 8.65821 17.075 9.02487C17.075 9.39154 16.946 9.70387 16.688 9.96187C16.4293 10.2205 16.1167 10.3499 15.75 10.3499H4.95L9.425 14.8249C9.69167 15.0915 9.82067 15.4042 9.812 15.7629C9.804 16.1209 9.66667 16.4332 9.4 16.6999C9.13333 16.9665 8.81667 17.0999 8.45 17.0999C8.08333 17.0999 7.76667 16.9665 7.5 16.6999Z" fill="#535AF1"/>
</svg>
