<svg width="168" height="168" viewBox="0 0 168 168" fill="none" xmlns="http://www.w3.org/2000/svg">
<rect width="168" height="168" rx="84" fill="#797EF3"/>
<mask id="mask0_6179_20538" style="mask-type:alpha" maskUnits="userSpaceOnUse" x="16" y="16" width="136" height="136">
<rect x="16" y="16" width="136" height="136" fill="#D9D9D9"/>
</mask>
<g mask="url(#mask0_6179_20538)">
<path d="M84.0111 84.0111C77.7777 84.0111 72.4416 81.7916 68.0027 77.3527C63.5639 72.9139 61.3444 67.5777 61.3444 61.3444C61.3444 55.1111 63.5639 49.775 68.0027 45.3361C72.4416 40.8972 77.7777 38.6777 84.0111 38.6777C90.2444 38.6777 95.5805 40.8972 100.019 45.3361C104.458 49.775 106.678 55.1111 106.678 61.3444C106.678 67.5777 104.458 72.9139 100.019 77.3527C95.5805 81.7916 90.2444 84.0111 84.0111 84.0111ZM38.6777 129.344V113.478C38.6777 110.267 39.5041 107.315 41.1569 104.624C42.8097 101.932 45.0055 99.8778 47.7444 98.4611C53.6 95.5333 59.55 93.3375 65.5944 91.8736C71.6389 90.4097 77.7777 89.6777 84.0111 89.6777C90.2444 89.6777 96.3833 90.4097 102.428 91.8736C108.472 93.3375 114.422 95.5333 120.278 98.4611C123.017 99.8778 125.212 101.932 126.865 104.624C128.518 107.315 129.344 110.267 129.344 113.478V129.344H38.6777Z" fill="#ECEEFE"/>
</g>
</svg>
