<svg width="26" height="26" viewBox="0 0 26 26" fill="none" xmlns="http://www.w3.org/2000/svg">
<mask id="mask0_75396_1716" style="mask-type:alpha" maskUnits="userSpaceOnUse" x="0" y="0" width="26" height="26">
<rect x="25.7703" y="0.5" width="25" height="25" transform="rotate(90 25.7703 0.5)" fill="#D9D9D9"/>
</mask>
<g mask="url(#mask0_75396_1716)">
<path d="M9.78084 13C9.78084 12.8612 9.80689 12.7268 9.85897 12.5969C9.91105 12.4664 9.9805 12.3577 10.0673 12.2709L14.859 7.47921C15.0499 7.28823 15.293 7.19275 15.5881 7.19275C15.8833 7.19275 16.1263 7.28823 16.3173 7.47921C16.5083 7.67018 16.6038 7.91324 16.6038 8.20837C16.6038 8.50351 16.5083 8.74657 16.3173 8.93754L12.2548 13L16.3173 17.0625C16.5083 17.2535 16.6038 17.4966 16.6038 17.7917C16.6038 18.0868 16.5083 18.3299 16.3173 18.5209C16.1263 18.7118 15.8833 18.8073 15.5881 18.8073C15.293 18.8073 15.0499 18.7118 14.859 18.5209L10.0673 13.7292C9.96314 13.625 9.88953 13.5122 9.84647 13.3907C9.80272 13.2691 9.78084 13.1389 9.78084 13Z" fill="black"/>
</g>
</svg>
