<?xml version="1.0" encoding="UTF-8" standalone="no" ?>
<!DOCTYPE svg PUBLIC "-//W3C//DTD SVG 1.1//EN" "http://www.w3.org/Graphics/SVG/1.1/DTD/svg11.dtd">
<svg xmlns="http://www.w3.org/2000/svg" xmlns:xlink="http://www.w3.org/1999/xlink" version="1.1" width="500" height="150" viewBox="0 0 500 150" xml:space="preserve">
<desc>Created with Fabric.js 5.2.4</desc>
<defs>
</defs>
<rect x="0" y="0" width="100%" height="100%" fill="transparent"></rect>
<g transform="matrix(1 0 0 1 250 75)" id="7f2a196e-79c8-4c33-8ff2-6811286f7db8"  >
<rect style="stroke: none; stroke-width: 1; stroke-dasharray: none; stroke-linecap: butt; stroke-dashoffset: 0; stroke-linejoin: miter; stroke-miterlimit: 4; fill: rgb(255,255,255); fill-rule: nonzero; opacity: 1; visibility: hidden;" vector-effect="non-scaling-stroke"  x="-250" y="-75" rx="0" ry="0" width="500" height="150" />
</g>
<g transform="matrix(Infinity NaN NaN Infinity 0 0)" id="b2db3709-b56e-40f2-9a1b-2538b0ceede7"  >
</g>
<g transform="matrix(NaN NaN NaN NaN 0 0)"  >
<g style=""   >
</g>
</g>
<g transform="matrix(0.13 0 0 0.13 181.25 25)"  >
<rect style="stroke: none; stroke-width: 1; stroke-dasharray: none; stroke-linecap: butt; stroke-dashoffset: 0; stroke-linejoin: miter; stroke-miterlimit: 4; fill: rgb(255,255,255); fill-opacity: 0; fill-rule: nonzero; opacity: 1;" vector-effect="non-scaling-stroke"  x="-50" y="-50" rx="0" ry="0" width="100" height="100" />
</g>
<g transform="matrix(0.13 0 0 0.13 242.5 86.25)" id="3"  >
<rect style="stroke: none; stroke-width: 1; stroke-dasharray: none; stroke-linecap: butt; stroke-dashoffset: 0; stroke-linejoin: miter; stroke-miterlimit: 4; fill: rgb(255,255,255); fill-rule: nonzero; opacity: 1; visibility: hidden;" vector-effect="non-scaling-stroke"  x="-540" y="-540" rx="0" ry="0" width="1080" height="1080" />
</g>
<g transform="matrix(2.98 0 0 2.98 52.53 74.89)"  >
<path style="stroke: none; stroke-width: 1; stroke-dasharray: none; stroke-linecap: butt; stroke-dashoffset: 0; stroke-linejoin: miter; stroke-miterlimit: 4; fill: rgb(255,255,255); fill-rule: nonzero; opacity: 1;" vector-effect="non-scaling-stroke"  transform=" translate(-96.49, -34.97)" d="M 94.6946 23.2674 L 88.2589 23.2674 C 87.5305 23.2674 86.9681 23.461 86.5809 23.8483 C 86.1936 24.2355 86 24.7979 86 25.5263 L 86 44.4092 C 86 45.1375 86.1936 45.7 86.5809 46.0872 C 86.9681 46.4745 87.5305 46.6681 88.2589 46.6681 L 94.6946 46.6681 C 96.6677 46.6681 98.4103 46.4099 99.9224 45.8844 C 101.434 45.368 102.725 44.6028 103.776 43.607 C 104.828 42.6112 105.62 41.385 106.164 39.9374 C 106.708 38.4898 106.976 36.821 106.976 34.9401 C 106.976 31.1783 105.906 28.2924 103.776 26.2732 C 101.637 24.2724 98.6131 23.2674 94.6946 23.2674 Z M 102.034 38.5544 C 101.702 39.587 101.195 40.4353 100.522 41.1083 C 99.8486 41.7814 99.0096 42.2885 97.9954 42.6389 C 96.9904 42.98 95.801 43.1552 94.4272 43.1552 L 90.2413 43.1552 L 90.2413 26.7803 L 94.4272 26.7803 C 97.1287 26.7803 99.1479 27.4533 100.503 28.8087 C 101.849 30.1548 102.532 32.2017 102.532 34.9493 C 102.532 36.3231 102.366 37.5217 102.034 38.5544 Z" stroke-linecap="round" />
</g>
<g transform="matrix(2.98 0 0 2.98 119.14 74.87)"  >
<path style="stroke: none; stroke-width: 1; stroke-dasharray: none; stroke-linecap: butt; stroke-dashoffset: 0; stroke-linejoin: miter; stroke-miterlimit: 4; fill: rgb(255,255,255); fill-rule: nonzero; opacity: 1;" vector-effect="non-scaling-stroke"  transform=" translate(-118.81, -34.96)" d="M 121.203 24.7887 C 120.917 24.1433 120.566 23.6915 120.161 23.4149 C 119.755 23.1383 119.294 23 118.787 23 C 118.28 23 117.782 23.1383 117.376 23.4149 C 116.971 23.6915 116.62 24.1525 116.334 24.7887 L 107.575 44.2063 C 107.354 44.7134 107.28 45.1744 107.345 45.5801 C 107.409 45.9858 107.603 46.3177 107.926 46.5574 C 108.248 46.7972 108.672 46.9262 109.207 46.9262 C 109.779 46.9262 110.221 46.7787 110.535 46.4929 C 110.848 46.2071 111.143 45.7368 111.429 45.1007 L 113.061 41.2466 L 124.476 41.2466 L 126.135 45.1007 C 126.403 45.7184 126.707 46.1794 127.048 46.4745 C 127.389 46.7695 127.869 46.9262 128.496 46.9262 C 129.003 46.9262 129.418 46.8064 129.722 46.5759 C 130.035 46.3454 130.22 46.0134 130.284 45.5985 C 130.349 45.1744 130.266 44.7134 130.017 44.2063 L 121.203 24.7887 Z M 118.713 27.8774 L 118.778 27.8774 L 123.01 37.8721 L 114.509 37.8721 L 118.713 27.8774 Z" stroke-linecap="round" />
</g>
<g transform="matrix(2.98 0 0 2.98 188.31 74.84)"  >
<path style="stroke: none; stroke-width: 1; stroke-dasharray: none; stroke-linecap: butt; stroke-dashoffset: 0; stroke-linejoin: miter; stroke-miterlimit: 4; fill: rgb(255,255,255); fill-rule: nonzero; opacity: 1;" vector-effect="non-scaling-stroke"  transform=" translate(-142, -34.96)" d="M 147.046 34.5895 C 148.024 34.2207 148.826 33.6675 149.453 32.9207 C 150.273 31.9434 150.679 30.754 150.679 29.3341 C 150.679 28.0709 150.375 26.9921 149.766 26.0794 C 149.158 25.1758 148.282 24.4751 147.129 23.9864 C 145.977 23.4977 144.585 23.258 142.943 23.258 L 134.977 23.258 C 134.249 23.258 133.686 23.4516 133.299 23.8389 C 132.912 24.2261 132.718 24.7885 132.718 25.5169 L 132.718 44.3998 C 132.718 45.1281 132.912 45.6906 133.299 46.0778 C 133.686 46.4651 134.249 46.6587 134.977 46.6587 L 143.312 46.6587 C 145.811 46.6587 147.766 46.087 149.167 44.953 C 150.568 43.8097 151.278 42.2054 151.278 40.1216 C 151.278 38.5265 150.827 37.2357 149.914 36.2399 C 149.195 35.447 148.227 34.903 147.046 34.5895 Z M 136.803 26.485 L 142.215 26.485 C 143.672 26.485 144.769 26.7709 145.488 27.3333 C 146.207 27.8957 146.567 28.7348 146.567 29.8412 C 146.567 30.9476 146.207 31.7866 145.488 32.349 C 144.769 32.9115 143.681 33.1973 142.215 33.1973 L 136.803 33.1973 L 136.803 26.485 Z M 146.097 42.5649 C 145.387 43.155 144.28 43.4409 142.777 43.4409 L 136.803 43.4409 L 136.803 36.4059 L 142.777 36.4059 C 144.28 36.4059 145.387 36.6917 146.097 37.2726 C 146.807 37.8442 147.157 38.7294 147.157 39.928 C 147.157 41.1266 146.807 41.9841 146.097 42.5649 Z" stroke-linecap="round" />
</g>
<g transform="matrix(2.98 0 0 2.98 249.69 85.69)"  >
<path style="stroke: none; stroke-width: 1; stroke-dasharray: none; stroke-linecap: butt; stroke-dashoffset: 0; stroke-linejoin: miter; stroke-miterlimit: 4; fill: rgb(255,255,255); fill-rule: nonzero; opacity: 1;" vector-effect="non-scaling-stroke"  transform=" translate(-162.56, -38.59)" d="M 167.976 30.173 C 167.312 30.173 166.805 30.3482 166.446 30.6894 C 166.095 31.0305 165.911 31.5561 165.911 32.266 L 165.911 39.5683 C 165.911 40.8315 165.56 41.8457 164.85 42.6018 C 164.141 43.367 163.237 43.7451 162.131 43.7451 C 161.116 43.7451 160.37 43.4685 159.909 42.9153 C 159.447 42.362 159.208 41.5138 159.208 40.3613 L 159.208 32.266 C 159.208 31.5561 159.023 31.0305 158.664 30.6894 C 158.295 30.3482 157.788 30.173 157.124 30.173 C 156.46 30.173 155.953 30.3482 155.593 30.6894 C 155.243 31.0305 155.059 31.5561 155.059 32.266 L 155.059 40.2967 C 155.059 41.7812 155.271 43.0167 155.704 44.0125 C 156.137 45.0082 156.792 45.7551 157.677 46.2529 C 158.562 46.7508 159.678 46.9998 161.033 46.9998 C 162.389 46.9998 163.431 46.6771 164.371 46.0409 C 165.044 45.5799 165.588 44.9806 166.012 44.243 L 166.012 44.8146 C 166.012 45.4969 166.187 46.0224 166.547 46.3912 C 166.897 46.76 167.395 46.9352 168.041 46.9352 C 169.387 46.9352 170.069 46.2253 170.069 44.8146 L 170.069 32.266 C 170.069 31.5561 169.885 31.0305 169.525 30.6894 C 169.156 30.3482 168.649 30.173 167.985 30.173 L 167.976 30.173 Z" stroke-linecap="round" />
</g>
<g transform="matrix(2.98 0 0 2.98 309.56 74.98)"  >
<path style="stroke: none; stroke-width: 1; stroke-dasharray: none; stroke-linecap: butt; stroke-dashoffset: 0; stroke-linejoin: miter; stroke-miterlimit: 4; fill: rgb(255,255,255); fill-rule: nonzero; opacity: 1;" vector-effect="non-scaling-stroke"  transform=" translate(-182.63, -35)" d="M 187.486 31.1322 C 186.426 30.4499 185.172 30.0995 183.733 30.0995 C 182.387 30.0995 181.198 30.4314 180.184 31.0953 C 179.455 31.5655 178.911 32.1464 178.524 32.8379 L 178.524 25.093 C 178.524 24.4107 178.34 23.8851 177.98 23.5348 C 177.62 23.1844 177.104 23 176.44 23 C 175.776 23 175.269 23.1752 174.91 23.5348 C 174.559 23.8851 174.375 24.4107 174.375 25.093 L 174.375 44.8056 C 174.375 45.4879 174.55 46.0134 174.91 46.3823 C 175.26 46.7511 175.776 46.9262 176.44 46.9262 C 177.104 46.9262 177.584 46.7418 177.934 46.3823 C 178.284 46.0134 178.469 45.4879 178.469 44.8056 L 178.469 44.1141 C 178.847 44.8517 179.4 45.4695 180.147 45.9673 C 181.179 46.6496 182.378 47 183.752 47 C 185.126 47 186.416 46.6589 187.486 45.9673 C 188.556 45.2851 189.395 44.2985 189.994 43.0261 C 190.593 41.7537 190.888 40.2509 190.888 38.5267 C 190.888 36.8025 190.593 35.2812 189.994 34.0273 C 189.395 32.7733 188.565 31.8052 187.504 31.1229 L 187.486 31.1322 Z M 186.177 41.4679 C 185.836 42.2516 185.356 42.8417 184.729 43.2474 C 184.102 43.6531 183.392 43.8467 182.572 43.8467 C 181.336 43.8467 180.34 43.3949 179.584 42.5006 C 178.828 41.6062 178.46 40.2785 178.46 38.5359 C 178.46 37.365 178.635 36.3876 178.976 35.5947 C 179.317 34.811 179.796 34.2209 180.423 33.8337 C 181.041 33.4464 181.76 33.2528 182.581 33.2528 C 183.816 33.2528 184.812 33.6861 185.568 34.562 C 186.324 35.438 186.693 36.7564 186.693 38.5267 C 186.693 39.6977 186.518 40.675 186.177 41.4679 Z" stroke-linecap="round" />
</g>
<g transform="matrix(2.98 0 0 2.98 368.97 74.98)"  >
<path style="stroke: none; stroke-width: 1; stroke-dasharray: none; stroke-linecap: butt; stroke-dashoffset: 0; stroke-linejoin: miter; stroke-miterlimit: 4; fill: rgb(255,255,255); fill-rule: nonzero; opacity: 1;" vector-effect="non-scaling-stroke"  transform=" translate(-202.55, -35)" d="M 207.401 31.1322 C 206.341 30.4499 205.087 30.0995 203.649 30.0995 C 202.303 30.0995 201.113 30.4314 200.099 31.0953 C 199.371 31.5655 198.827 32.1464 198.439 32.8379 L 198.439 25.093 C 198.439 24.4107 198.255 23.8851 197.895 23.5348 C 197.536 23.1844 197.02 23 196.356 23 C 195.692 23 195.185 23.1752 194.825 23.5348 C 194.475 23.8851 194.29 24.4107 194.29 25.093 L 194.29 44.8056 C 194.29 45.4879 194.466 46.0134 194.825 46.3823 C 195.176 46.7511 195.692 46.9262 196.356 46.9262 C 197.02 46.9262 197.499 46.7418 197.849 46.3823 C 198.2 46.0134 198.384 45.4879 198.384 44.8056 L 198.384 44.1141 C 198.762 44.8517 199.315 45.4695 200.062 45.9673 C 201.095 46.6496 202.293 47 203.667 47 C 205.041 47 206.332 46.6589 207.401 45.9673 C 208.471 45.2851 209.31 44.2985 209.909 43.0261 C 210.509 41.7537 210.804 40.2509 210.804 38.5267 C 210.804 36.8025 210.509 35.2812 209.909 34.0273 C 209.31 32.7733 208.48 31.8052 207.42 31.1229 L 207.401 31.1322 Z M 206.092 41.4679 C 205.751 42.2516 205.272 42.8417 204.645 43.2474 C 204.018 43.6531 203.308 43.8467 202.487 43.8467 C 201.252 43.8467 200.256 43.3949 199.5 42.5006 C 198.744 41.6062 198.375 40.2785 198.375 38.5359 C 198.375 37.365 198.55 36.3876 198.891 35.5947 C 199.232 34.811 199.712 34.2209 200.339 33.8337 C 200.957 33.4464 201.676 33.2528 202.496 33.2528 C 203.732 33.2528 204.728 33.6861 205.484 34.562 C 206.24 35.438 206.608 36.7564 206.608 38.5267 C 206.608 39.6977 206.433 40.675 206.092 41.4679 Z" stroke-linecap="round" />
</g>
<g transform="matrix(2.98 0 0 2.98 416.02 74.67)"  >
<path style="stroke: none; stroke-width: 0; stroke-dasharray: none; stroke-linecap: butt; stroke-dashoffset: 0; stroke-linejoin: miter; stroke-miterlimit: 4; fill: rgb(255,255,255); fill-rule: nonzero; opacity: 1;" vector-effect="non-scaling-stroke"  transform=" translate(-218.42, -35)" d="M 221.813 43.5148 C 221.656 43.5332 221.499 43.5517 221.352 43.5609 C 221.195 43.5701 221.029 43.5793 220.854 43.5793 C 220.061 43.5793 219.443 43.3396 219.01 42.8509 C 218.576 42.3623 218.364 41.6154 218.364 40.592 L 218.364 25.093 C 218.364 24.4107 218.18 23.8851 217.82 23.5348 C 217.461 23.1844 216.944 23 216.281 23 C 215.617 23 215.11 23.1752 214.75 23.5348 C 214.4 23.8851 214.215 24.4107 214.215 25.093 L 214.215 40.7949 C 214.215 42.8325 214.676 44.3723 215.607 45.4234 C 216.539 46.4745 217.922 47 219.757 47 C 219.996 47 220.245 46.9908 220.485 46.9631 C 220.725 46.9447 220.964 46.917 221.186 46.8986 C 221.693 46.834 222.062 46.6404 222.283 46.3361 C 222.504 46.0227 222.615 45.5985 222.615 45.0453 C 222.615 44.3999 222.559 43.9758 222.449 43.7637 C 222.338 43.5517 222.126 43.4687 221.822 43.5148 L 221.813 43.5148 Z" stroke-linecap="round" />
</g>
<g transform="matrix(2.98 0 0 2.98 455.48 85.61)"  >
<path style="stroke: none; stroke-width: 1; stroke-dasharray: none; stroke-linecap: butt; stroke-dashoffset: 0; stroke-linejoin: miter; stroke-miterlimit: 4; fill: rgb(255,255,255); fill-rule: nonzero; opacity: 1;" vector-effect="non-scaling-stroke"  transform=" translate(-231.54, -38.56)" d="M 237.911 42.5374 C 237.56 42.5006 237.145 42.6204 236.684 42.8878 C 236.039 43.2382 235.366 43.4871 234.647 43.6346 C 233.928 43.7822 233.282 43.8467 232.701 43.8467 C 231.042 43.8467 229.788 43.3949 228.93 42.5006 C 228.257 41.7906 227.861 40.7856 227.722 39.4948 L 237.745 39.4948 C 238.252 39.4948 238.648 39.3934 238.925 39.1813 C 239.202 38.9693 239.34 38.665 239.34 38.2685 C 239.34 37.0054 239.165 35.8713 238.824 34.8663 C 238.482 33.8613 237.984 33.0038 237.33 32.2939 C 236.675 31.5839 235.892 31.0399 234.97 30.6711 C 234.047 30.2931 233.015 30.1087 231.862 30.1087 C 230.295 30.1087 228.893 30.4683 227.667 31.1875 C 226.441 31.9066 225.473 32.8932 224.781 34.1563 C 224.081 35.4195 223.739 36.8855 223.739 38.5728 C 223.739 40.2601 224.099 41.7906 224.818 43.0538 C 225.537 44.3169 226.561 45.285 227.888 45.9766 C 229.216 46.6588 230.802 47.0092 232.637 47.0092 C 233.503 47.0092 234.435 46.8893 235.44 46.6588 C 236.445 46.4283 237.339 46.0688 238.114 45.5801 C 238.51 45.3404 238.796 45.0453 238.962 44.7134 C 239.128 44.3815 239.192 44.0588 239.146 43.7361 C 239.1 43.4134 238.971 43.146 238.768 42.9247 C 238.556 42.7034 238.28 42.5743 237.92 42.5467 L 237.911 42.5374 Z M 229.659 33.5755 C 230.313 33.1421 231.106 32.9301 232.028 32.9301 C 232.867 32.9301 233.568 33.1145 234.14 33.4741 C 234.702 33.8429 235.135 34.3684 235.431 35.0507 C 235.679 35.6223 235.818 36.3139 235.864 37.1068 L 227.722 37.1068 C 227.805 36.4798 227.944 35.8989 228.165 35.4011 C 228.506 34.6173 229.004 34.0088 229.659 33.5755 Z" stroke-linecap="round" />
</g>
</svg>