<svg width="696" height="184" viewBox="0 0 696 184" fill="" xmlns="http://www.w3.org/2000/svg">
<g clip-path="url(#clip0_134_1031)">
<g clip-path="url(#clip1_134_1031)">
<path d="M381.488 0H295.622C287.856 0 281.671 6.08615 281.671 13.5877V83.5077H381.345C388.968 83.5077 395.152 77.4215 395.152 69.92V13.5877C395.296 6.08615 389.111 0 381.488 0Z" fill="#92C83E"/>
<path d="M312.019 48.4062C315.752 48.4062 318.779 45.4278 318.779 41.7539C318.779 38.0799 315.752 35.1016 312.019 35.1016C308.285 35.1016 305.259 38.0799 305.259 41.7539C305.259 45.4278 308.285 48.4062 312.019 48.4062Z" fill="white"/>
<path d="M338.483 48.4062C342.217 48.4062 345.243 45.4278 345.243 41.7539C345.243 38.0799 342.217 35.1016 338.483 35.1016C334.75 35.1016 331.723 38.0799 331.723 41.7539C331.723 45.4278 334.75 48.4062 338.483 48.4062Z" fill="white"/>
<path d="M364.948 48.4062C368.681 48.4062 371.708 45.4278 371.708 41.7539C371.708 38.0799 368.681 35.1016 364.948 35.1016C361.215 35.1016 358.188 38.0799 358.188 41.7539C358.188 45.4278 361.215 48.4062 364.948 48.4062Z" fill="white"/>
<path d="M222.557 99.643C214.934 99.643 208.749 105.729 208.749 113.231V170.271C208.749 177.772 214.934 183.858 222.557 183.858H308.423C316.046 183.858 322.231 177.772 322.231 170.271V99.5015H222.557V99.643Z" fill="#FBB03B"/>
<path d="M238.954 148.474C242.687 148.474 245.714 145.495 245.714 141.821C245.714 138.148 242.687 135.169 238.954 135.169C235.22 135.169 232.194 138.148 232.194 141.821C232.194 145.495 235.22 148.474 238.954 148.474Z" fill="white"/>
<path d="M265.418 148.474C269.152 148.474 272.178 145.495 272.178 141.821C272.178 138.148 269.152 135.169 265.418 135.169C261.685 135.169 258.658 138.148 258.658 141.821C258.658 145.495 261.685 148.474 265.418 148.474Z" fill="white"/>
<path d="M291.883 148.474C295.616 148.474 298.643 145.495 298.643 141.821C298.643 138.148 295.616 135.169 291.883 135.169C288.149 135.169 285.123 138.148 285.123 141.821C285.123 145.495 288.149 148.474 291.883 148.474Z" fill="white"/>
<path d="M265.418 55.4831V83.6492H236.94C221.119 83.6492 208.318 71.0523 208.318 55.4831C208.318 39.9138 221.119 27.3169 236.94 27.3169C252.761 27.3169 265.418 40.0554 265.418 55.4831Z" fill="#ED1E79"/>
<path d="M338.196 127.809V99.6431H366.818C382.639 99.6431 395.44 112.24 395.44 127.809C395.44 143.378 382.639 155.975 366.818 155.975C350.996 155.975 338.196 143.237 338.196 127.809Z" fill="#3FA9F5"/>
</g>
</g>
<defs>
<clipPath id="clip0_134_1031">
<rect width="696" height="184" fill="white"/>
</clipPath>
<clipPath id="clip1_134_1031">
<rect width="186.978" height="184" fill="white" transform="translate(208.318)"/>
</clipPath>
</defs>
</svg>
