<svg width="16" height="16" viewBox="0 0 16 16" fill="none" xmlns="http://www.w3.org/2000/svg">
<path d="M8.0502 9.8499L3.2752 14.6249C3.00853 14.8916 2.69186 15.0249 2.3252 15.0249C1.95853 15.0249 1.64186 14.8916 1.3752 14.6249C1.10853 14.3582 0.975195 14.0459 0.975195 13.6879C0.975195 13.3292 1.10853 13.0166 1.3752 12.7499L6.1752 7.9499L1.3502 3.1499C1.08353 2.88324 0.950195 2.5749 0.950195 2.2249C0.950195 1.8749 1.08353 1.56657 1.3502 1.2999C1.61686 1.03324 1.9292 0.899902 2.2872 0.899902C2.64586 0.899902 2.95853 1.03324 3.2252 1.2999L8.0002 6.0499L12.7252 1.3249C12.9919 1.05824 13.3085 0.924902 13.6752 0.924902C14.0419 0.924902 14.3585 1.05824 14.6252 1.3249C14.8919 1.59157 15.0252 1.91224 15.0252 2.2869C15.0252 2.66224 14.8919 2.98324 14.6252 3.2499L9.8752 8.0249L14.6502 12.7999C14.9002 13.0499 15.0252 13.3582 15.0252 13.7249C15.0252 14.0916 14.9002 14.3999 14.6502 14.6499C14.4002 14.8999 14.0962 15.0249 13.7382 15.0249C13.3795 15.0249 13.0752 14.8999 12.8252 14.6499L8.0502 9.8499Z" fill="#535AF1"/>
</svg>
