<svg width="22" height="22" viewBox="0 0 22 22" fill="none" xmlns="http://www.w3.org/2000/svg">
<path d="M3.6251 18.4001H5.4751L13.9751 9.9001L12.1251 8.0501L3.6251 16.5501V18.4001ZM19.1501 8.4501L13.5501 2.8501L14.9001 1.5001C15.4168 0.983431 16.0461 0.725098 16.7881 0.725098C17.5294 0.725098 18.1584 0.983431 18.6751 1.5001L20.5251 3.3751C21.0418 3.89176 21.3001 4.50843 21.3001 5.2251C21.3001 5.94176 21.0418 6.55843 20.5251 7.0751L19.1501 8.4501ZM2.2751 21.0501C1.90843 21.0501 1.6001 20.9251 1.3501 20.6751C1.1001 20.4251 0.975098 20.1168 0.975098 19.7501V15.9751C0.975098 15.7918 1.0041 15.6251 1.0621 15.4751C1.12076 15.3251 1.21676 15.1834 1.3501 15.0501L12.1251 4.2751L17.7251 9.8751L6.9751 20.6751C6.84176 20.8084 6.7001 20.9041 6.5501 20.9621C6.4001 21.0208 6.23343 21.0501 6.0501 21.0501H2.2751Z" fill="#535AF1"/>
</svg>
