<svg width="461" height="169" viewBox="0 0 461 169" fill="none" xmlns="http://www.w3.org/2000/svg">
<g filter="url(#filter0_d_182_544)">
<path d="M10 34C10 17.4315 23.4315 4 40 4H421C437.569 4 451 17.4315 451 34V153H40C23.4315 153 10 139.569 10 123V34Z" fill="#444DF2" shape-rendering="crispEdges"/>
<mask id="mask0_182_544" style="mask-type:alpha" maskUnits="userSpaceOnUse" x="60" y="58" width="40" height="41">
<rect x="60" y="58.5" width="40" height="40" fill="#D9D9D9"/>
</mask>
<g mask="url(#mask0_182_544)">
<path d="M64.2497 93.6086C63.5552 93.8864 62.8955 93.8253 62.2705 93.4253C61.6455 93.0267 61.333 92.4454 61.333 91.6815V83.9211C61.333 83.435 61.4719 83.001 61.7497 82.619C62.0275 82.2371 62.4094 81.994 62.8955 81.8899L77.9997 78.1399L62.8955 74.3899C62.4094 74.2857 62.0275 74.0426 61.7497 73.6607C61.4719 73.2788 61.333 72.8447 61.333 72.3586V64.5982C61.333 63.8343 61.6455 63.2524 62.2705 62.8524C62.8955 62.4538 63.5552 62.3933 64.2497 62.6711L96.333 76.2128C97.2011 76.5947 97.6351 77.2371 97.6351 78.1399C97.6351 79.0426 97.2011 79.685 96.333 80.0669L64.2497 93.6086Z" fill="white"/>
</g>
<path d="M133.22 90C132.428 90 131.816 89.796 131.384 89.388C130.976 88.956 130.772 88.344 130.772 87.552V67.068C130.772 66.276 130.976 65.676 131.384 65.268C131.816 64.836 132.428 64.62 133.22 64.62H146.072C146.672 64.62 147.128 64.776 147.44 65.088C147.776 65.4 147.944 65.844 147.944 66.42C147.944 67.02 147.776 67.488 147.44 67.824C147.128 68.136 146.672 68.292 146.072 68.292H135.2V75.276H145.28C145.904 75.276 146.372 75.432 146.684 75.744C146.996 76.056 147.152 76.512 147.152 77.112C147.152 77.712 146.996 78.168 146.684 78.48C146.372 78.792 145.904 78.948 145.28 78.948H135.2V86.328H146.072C146.672 86.328 147.128 86.484 147.44 86.796C147.776 87.108 147.944 87.564 147.944 88.164C147.944 88.764 147.776 89.22 147.44 89.532C147.128 89.844 146.672 90 146.072 90H133.22ZM153.406 82.152C152.878 82.152 152.434 81.984 152.074 81.648C151.738 81.288 151.57 80.856 151.57 80.352C151.57 79.824 151.738 79.392 152.074 79.056C152.434 78.72 152.878 78.552 153.406 78.552H161.074C161.578 78.552 161.998 78.72 162.334 79.056C162.694 79.392 162.874 79.824 162.874 80.352C162.874 80.856 162.694 81.288 162.334 81.648C161.998 81.984 161.578 82.152 161.074 82.152H153.406ZM169.952 90.288C169.28 90.288 168.764 90.096 168.404 89.712C168.044 89.328 167.864 88.8 167.864 88.128V66.492C167.864 65.796 168.056 65.268 168.44 64.908C168.824 64.524 169.352 64.332 170.024 64.332C170.624 64.332 171.092 64.452 171.428 64.692C171.788 64.908 172.112 65.292 172.4 65.844L181.292 82.296H180.14L189.032 65.844C189.32 65.292 189.632 64.908 189.968 64.692C190.304 64.452 190.772 64.332 191.372 64.332C192.044 64.332 192.56 64.524 192.92 64.908C193.28 65.268 193.46 65.796 193.46 66.492V88.128C193.46 88.8 193.28 89.328 192.92 89.712C192.584 90.096 192.068 90.288 191.372 90.288C190.7 90.288 190.184 90.096 189.824 89.712C189.464 89.328 189.284 88.8 189.284 88.128V71.46H190.076L182.516 85.248C182.276 85.656 182.024 85.956 181.76 86.148C181.496 86.34 181.136 86.436 180.68 86.436C180.224 86.436 179.852 86.34 179.564 86.148C179.276 85.932 179.024 85.632 178.808 85.248L171.176 71.424H172.04V88.128C172.04 88.8 171.86 89.328 171.5 89.712C171.164 90.096 170.648 90.288 169.952 90.288ZM204.409 90.36C203.137 90.36 201.997 90.12 200.989 89.64C200.005 89.136 199.225 88.464 198.649 87.624C198.097 86.784 197.821 85.836 197.821 84.78C197.821 83.484 198.157 82.464 198.829 81.72C199.501 80.952 200.593 80.4 202.105 80.064C203.617 79.728 205.645 79.56 208.189 79.56H209.989V82.152H208.225C206.737 82.152 205.549 82.224 204.661 82.368C203.773 82.512 203.137 82.764 202.753 83.124C202.393 83.46 202.213 83.94 202.213 84.564C202.213 85.356 202.489 86.004 203.041 86.508C203.593 87.012 204.361 87.264 205.345 87.264C206.137 87.264 206.833 87.084 207.433 86.724C208.057 86.34 208.549 85.824 208.909 85.176C209.269 84.528 209.449 83.784 209.449 82.944V78.804C209.449 77.604 209.185 76.74 208.657 76.212C208.129 75.684 207.241 75.42 205.993 75.42C205.297 75.42 204.541 75.504 203.725 75.672C202.933 75.84 202.093 76.128 201.205 76.536C200.749 76.752 200.341 76.812 199.981 76.716C199.645 76.62 199.381 76.428 199.189 76.14C198.997 75.828 198.901 75.492 198.901 75.132C198.901 74.772 198.997 74.424 199.189 74.088C199.381 73.728 199.705 73.464 200.161 73.296C201.265 72.84 202.321 72.516 203.329 72.324C204.361 72.132 205.297 72.036 206.137 72.036C207.865 72.036 209.281 72.3 210.385 72.828C211.513 73.356 212.353 74.16 212.905 75.24C213.457 76.296 213.733 77.664 213.733 79.344V87.984C213.733 88.728 213.553 89.304 213.193 89.712C212.833 90.096 212.317 90.288 211.645 90.288C210.973 90.288 210.445 90.096 210.061 89.712C209.701 89.304 209.521 88.728 209.521 87.984V86.256H209.809C209.641 87.096 209.305 87.828 208.801 88.452C208.321 89.052 207.709 89.52 206.965 89.856C206.221 90.192 205.369 90.36 204.409 90.36ZM220.533 90.252C219.813 90.252 219.261 90.036 218.877 89.604C218.493 89.172 218.301 88.572 218.301 87.804V74.592C218.301 73.8 218.493 73.2 218.877 72.792C219.261 72.36 219.813 72.144 220.533 72.144C221.253 72.144 221.805 72.36 222.189 72.792C222.597 73.2 222.801 73.8 222.801 74.592V87.804C222.801 88.572 222.609 89.172 222.225 89.604C221.841 90.036 221.277 90.252 220.533 90.252ZM220.533 68.796C219.693 68.796 219.033 68.592 218.553 68.184C218.097 67.752 217.869 67.164 217.869 66.42C217.869 65.652 218.097 65.064 218.553 64.656C219.033 64.248 219.693 64.044 220.533 64.044C221.397 64.044 222.057 64.248 222.513 64.656C222.969 65.064 223.197 65.652 223.197 66.42C223.197 67.164 222.969 67.752 222.513 68.184C222.057 68.592 221.397 68.796 220.533 68.796ZM233.489 90.36C231.497 90.36 229.997 89.796 228.989 88.668C227.981 87.516 227.477 85.836 227.477 83.628V66.6C227.477 65.856 227.669 65.292 228.053 64.908C228.437 64.524 228.989 64.332 229.709 64.332C230.429 64.332 230.981 64.524 231.365 64.908C231.773 65.292 231.977 65.856 231.977 66.6V83.412C231.977 84.516 232.205 85.332 232.661 85.86C233.141 86.388 233.813 86.652 234.677 86.652C234.869 86.652 235.049 86.652 235.217 86.652C235.385 86.628 235.553 86.604 235.721 86.58C236.057 86.532 236.285 86.628 236.405 86.868C236.525 87.084 236.585 87.54 236.585 88.236C236.585 88.836 236.465 89.304 236.225 89.64C235.985 89.976 235.589 90.18 235.037 90.252C234.797 90.276 234.545 90.3 234.281 90.324C234.017 90.348 233.753 90.36 233.489 90.36ZM256.954 96.84C255.658 96.84 254.398 96.72 253.174 96.48C251.974 96.24 250.882 95.868 249.898 95.364C249.442 95.124 249.13 94.836 248.962 94.5C248.818 94.164 248.77 93.816 248.818 93.456C248.89 93.12 249.034 92.82 249.25 92.556C249.49 92.292 249.778 92.112 250.114 92.016C250.45 91.92 250.798 91.968 251.158 92.16C252.214 92.688 253.21 93.024 254.146 93.168C255.106 93.336 255.922 93.42 256.594 93.42C258.202 93.42 259.402 93.024 260.194 92.232C261.01 91.464 261.418 90.312 261.418 88.776V85.536H261.742C261.382 86.76 260.626 87.744 259.474 88.488C258.346 89.208 257.062 89.568 255.622 89.568C254.038 89.568 252.658 89.208 251.482 88.488C250.306 87.744 249.394 86.712 248.746 85.392C248.098 84.072 247.774 82.536 247.774 80.784C247.774 79.464 247.954 78.276 248.314 77.22C248.698 76.14 249.226 75.216 249.898 74.448C250.594 73.68 251.422 73.092 252.382 72.684C253.366 72.252 254.446 72.036 255.622 72.036C257.11 72.036 258.406 72.408 259.51 73.152C260.638 73.872 261.37 74.832 261.706 76.032L261.346 76.932V74.376C261.346 73.632 261.538 73.068 261.922 72.684C262.33 72.3 262.882 72.108 263.578 72.108C264.298 72.108 264.85 72.3 265.234 72.684C265.618 73.068 265.81 73.632 265.81 74.376V88.236C265.81 91.092 265.054 93.24 263.542 94.68C262.03 96.12 259.834 96.84 256.954 96.84ZM256.846 86.148C257.782 86.148 258.586 85.932 259.258 85.5C259.93 85.068 260.446 84.456 260.806 83.664C261.19 82.848 261.382 81.888 261.382 80.784C261.382 79.128 260.974 77.832 260.158 76.896C259.342 75.936 258.238 75.456 256.846 75.456C255.91 75.456 255.106 75.672 254.434 76.104C253.762 76.536 253.234 77.148 252.85 77.94C252.49 78.732 252.31 79.68 252.31 80.784C252.31 82.44 252.718 83.748 253.534 84.708C254.35 85.668 255.454 86.148 256.846 86.148ZM279.149 90.36C277.157 90.36 275.441 89.988 274.001 89.244C272.561 88.5 271.445 87.444 270.653 86.076C269.885 84.708 269.501 83.088 269.501 81.216C269.501 79.392 269.873 77.796 270.617 76.428C271.385 75.06 272.429 73.992 273.749 73.224C275.093 72.432 276.617 72.036 278.321 72.036C279.569 72.036 280.685 72.24 281.669 72.648C282.677 73.056 283.529 73.644 284.225 74.412C284.945 75.18 285.485 76.116 285.845 77.22C286.229 78.3 286.421 79.524 286.421 80.892C286.421 81.324 286.265 81.66 285.953 81.9C285.665 82.116 285.245 82.224 284.693 82.224H273.137V79.632H283.253L282.677 80.172C282.677 79.068 282.509 78.144 282.173 77.4C281.861 76.656 281.393 76.092 280.769 75.708C280.169 75.3 279.413 75.096 278.501 75.096C277.493 75.096 276.629 75.336 275.909 75.816C275.213 76.272 274.673 76.932 274.289 77.796C273.929 78.636 273.749 79.644 273.749 80.82V81.072C273.749 83.04 274.205 84.516 275.117 85.5C276.053 86.46 277.421 86.94 279.221 86.94C279.845 86.94 280.541 86.868 281.309 86.724C282.101 86.556 282.845 86.28 283.541 85.896C284.045 85.608 284.489 85.488 284.873 85.536C285.257 85.56 285.557 85.692 285.773 85.932C286.013 86.172 286.157 86.472 286.205 86.832C286.253 87.168 286.181 87.516 285.989 87.876C285.821 88.236 285.521 88.548 285.089 88.812C284.249 89.34 283.277 89.736 282.173 90C281.093 90.24 280.085 90.36 279.149 90.36ZM296.429 90.36C295.397 90.36 294.305 90.252 293.153 90.036C292.001 89.82 290.969 89.448 290.057 88.92C289.673 88.68 289.397 88.404 289.229 88.092C289.085 87.756 289.025 87.432 289.049 87.12C289.097 86.784 289.217 86.496 289.409 86.256C289.625 86.016 289.889 85.86 290.201 85.788C290.537 85.716 290.897 85.776 291.281 85.968C292.241 86.424 293.141 86.748 293.981 86.94C294.821 87.108 295.649 87.192 296.465 87.192C297.617 87.192 298.469 87 299.021 86.616C299.597 86.208 299.885 85.68 299.885 85.032C299.885 84.48 299.693 84.06 299.309 83.772C298.949 83.46 298.397 83.232 297.653 83.088L294.053 82.404C292.565 82.116 291.425 81.576 290.633 80.784C289.865 79.968 289.481 78.924 289.481 77.652C289.481 76.5 289.793 75.504 290.417 74.664C291.065 73.824 291.953 73.176 293.081 72.72C294.209 72.264 295.505 72.036 296.969 72.036C298.025 72.036 299.009 72.156 299.921 72.396C300.857 72.612 301.757 72.96 302.621 73.44C302.981 73.632 303.221 73.884 303.341 74.196C303.485 74.508 303.521 74.832 303.449 75.168C303.377 75.48 303.233 75.768 303.017 76.032C302.801 76.272 302.525 76.428 302.189 76.5C301.877 76.548 301.517 76.476 301.109 76.284C300.365 75.9 299.645 75.624 298.949 75.456C298.277 75.288 297.629 75.204 297.005 75.204C295.829 75.204 294.953 75.408 294.377 75.816C293.825 76.224 293.549 76.764 293.549 77.436C293.549 77.94 293.717 78.36 294.053 78.696C294.389 79.032 294.905 79.26 295.601 79.38L299.201 80.064C300.761 80.352 301.937 80.88 302.729 81.648C303.545 82.416 303.953 83.448 303.953 84.744C303.953 86.496 303.269 87.876 301.901 88.884C300.533 89.868 298.709 90.36 296.429 90.36ZM316.239 90.36C314.247 90.36 312.531 89.988 311.091 89.244C309.651 88.5 308.535 87.444 307.743 86.076C306.975 84.708 306.591 83.088 306.591 81.216C306.591 79.392 306.963 77.796 307.707 76.428C308.475 75.06 309.519 73.992 310.839 73.224C312.183 72.432 313.707 72.036 315.411 72.036C316.659 72.036 317.775 72.24 318.759 72.648C319.767 73.056 320.619 73.644 321.315 74.412C322.035 75.18 322.575 76.116 322.935 77.22C323.319 78.3 323.511 79.524 323.511 80.892C323.511 81.324 323.355 81.66 323.043 81.9C322.755 82.116 322.335 82.224 321.783 82.224H310.227V79.632H320.343L319.767 80.172C319.767 79.068 319.599 78.144 319.263 77.4C318.951 76.656 318.483 76.092 317.859 75.708C317.259 75.3 316.503 75.096 315.591 75.096C314.583 75.096 313.719 75.336 312.999 75.816C312.303 76.272 311.763 76.932 311.379 77.796C311.019 78.636 310.839 79.644 310.839 80.82V81.072C310.839 83.04 311.295 84.516 312.207 85.5C313.143 86.46 314.511 86.94 316.311 86.94C316.935 86.94 317.631 86.868 318.399 86.724C319.191 86.556 319.935 86.28 320.631 85.896C321.135 85.608 321.579 85.488 321.963 85.536C322.347 85.56 322.647 85.692 322.863 85.932C323.103 86.172 323.247 86.472 323.295 86.832C323.343 87.168 323.271 87.516 323.079 87.876C322.911 88.236 322.611 88.548 322.179 88.812C321.339 89.34 320.367 89.736 319.263 90C318.183 90.24 317.175 90.36 316.239 90.36ZM329.306 90.288C328.586 90.288 328.034 90.096 327.65 89.712C327.266 89.304 327.074 88.728 327.074 87.984V74.376C327.074 73.632 327.266 73.068 327.65 72.684C328.034 72.3 328.574 72.108 329.27 72.108C329.966 72.108 330.506 72.3 330.89 72.684C331.274 73.068 331.466 73.632 331.466 74.376V76.824L331.07 75.924C331.598 74.652 332.414 73.692 333.518 73.044C334.646 72.372 335.918 72.036 337.334 72.036C338.75 72.036 339.914 72.3 340.826 72.828C341.738 73.356 342.422 74.16 342.878 75.24C343.334 76.296 343.562 77.64 343.562 79.272V87.984C343.562 88.728 343.37 89.304 342.986 89.712C342.602 90.096 342.05 90.288 341.33 90.288C340.61 90.288 340.046 90.096 339.638 89.712C339.254 89.304 339.062 88.728 339.062 87.984V79.488C339.062 78.12 338.798 77.124 338.27 76.5C337.766 75.876 336.974 75.564 335.894 75.564C334.574 75.564 333.518 75.984 332.726 76.824C331.958 77.64 331.574 78.732 331.574 80.1V87.984C331.574 89.52 330.818 90.288 329.306 90.288ZM354.901 90.36C353.365 90.36 352.009 89.988 350.833 89.244C349.681 88.5 348.781 87.444 348.133 86.076C347.485 84.684 347.161 83.052 347.161 81.18C347.161 79.284 347.485 77.664 348.133 76.32C348.781 74.952 349.681 73.896 350.833 73.152C352.009 72.408 353.365 72.036 354.901 72.036C356.365 72.036 357.637 72.396 358.717 73.116C359.821 73.836 360.565 74.784 360.949 75.96H360.553V66.6C360.553 65.856 360.745 65.292 361.129 64.908C361.513 64.524 362.065 64.332 362.785 64.332C363.505 64.332 364.057 64.524 364.441 64.908C364.849 65.292 365.053 65.856 365.053 66.6V87.984C365.053 88.728 364.861 89.304 364.477 89.712C364.093 90.096 363.541 90.288 362.821 90.288C362.101 90.288 361.549 90.096 361.165 89.712C360.781 89.304 360.589 88.728 360.589 87.984V85.176L360.985 86.256C360.625 87.504 359.893 88.5 358.789 89.244C357.685 89.988 356.389 90.36 354.901 90.36ZM356.161 86.94C357.049 86.94 357.829 86.724 358.501 86.292C359.173 85.86 359.689 85.224 360.049 84.384C360.433 83.52 360.625 82.452 360.625 81.18C360.625 79.26 360.217 77.832 359.401 76.896C358.585 75.936 357.505 75.456 356.161 75.456C355.273 75.456 354.493 75.672 353.821 76.104C353.149 76.512 352.621 77.148 352.237 78.012C351.877 78.852 351.697 79.908 351.697 81.18C351.697 83.076 352.105 84.516 352.921 85.5C353.737 86.46 354.817 86.94 356.161 86.94ZM378.395 90.36C376.403 90.36 374.687 89.988 373.247 89.244C371.807 88.5 370.691 87.444 369.899 86.076C369.131 84.708 368.747 83.088 368.747 81.216C368.747 79.392 369.119 77.796 369.863 76.428C370.631 75.06 371.675 73.992 372.995 73.224C374.339 72.432 375.863 72.036 377.567 72.036C378.815 72.036 379.931 72.24 380.915 72.648C381.923 73.056 382.775 73.644 383.471 74.412C384.191 75.18 384.731 76.116 385.091 77.22C385.475 78.3 385.667 79.524 385.667 80.892C385.667 81.324 385.511 81.66 385.199 81.9C384.911 82.116 384.491 82.224 383.939 82.224H372.383V79.632H382.499L381.923 80.172C381.923 79.068 381.755 78.144 381.419 77.4C381.107 76.656 380.639 76.092 380.015 75.708C379.415 75.3 378.659 75.096 377.747 75.096C376.739 75.096 375.875 75.336 375.155 75.816C374.459 76.272 373.919 76.932 373.535 77.796C373.175 78.636 372.995 79.644 372.995 80.82V81.072C372.995 83.04 373.451 84.516 374.363 85.5C375.299 86.46 376.667 86.94 378.467 86.94C379.091 86.94 379.787 86.868 380.555 86.724C381.347 86.556 382.091 86.28 382.787 85.896C383.291 85.608 383.735 85.488 384.119 85.536C384.503 85.56 384.803 85.692 385.019 85.932C385.259 86.172 385.403 86.472 385.451 86.832C385.499 87.168 385.427 87.516 385.235 87.876C385.067 88.236 384.767 88.548 384.335 88.812C383.495 89.34 382.523 89.736 381.419 90C380.339 90.24 379.331 90.36 378.395 90.36ZM397.224 90.36C395.664 90.36 394.356 90.096 393.3 89.568C392.268 89.04 391.5 88.272 390.996 87.264C390.492 86.232 390.24 84.96 390.24 83.448V75.78H388.368C387.792 75.78 387.348 75.636 387.036 75.348C386.724 75.036 386.568 74.616 386.568 74.088C386.568 73.536 386.724 73.116 387.036 72.828C387.348 72.54 387.792 72.396 388.368 72.396H390.24V69.12C390.24 68.376 390.432 67.812 390.816 67.428C391.224 67.044 391.788 66.852 392.508 66.852C393.228 66.852 393.78 67.044 394.164 67.428C394.548 67.812 394.74 68.376 394.74 69.12V72.396H398.556C399.132 72.396 399.576 72.54 399.888 72.828C400.2 73.116 400.356 73.536 400.356 74.088C400.356 74.616 400.2 75.036 399.888 75.348C399.576 75.636 399.132 75.78 398.556 75.78H394.74V83.196C394.74 84.348 394.992 85.212 395.496 85.788C396 86.364 396.816 86.652 397.944 86.652C398.352 86.652 398.712 86.616 399.024 86.544C399.336 86.472 399.612 86.424 399.852 86.4C400.14 86.376 400.38 86.472 400.572 86.688C400.764 86.88 400.86 87.288 400.86 87.912C400.86 88.392 400.776 88.824 400.608 89.208C400.464 89.568 400.188 89.82 399.78 89.964C399.468 90.06 399.06 90.144 398.556 90.216C398.052 90.312 397.608 90.36 397.224 90.36Z" fill="white"/>
</g>
<defs>
<filter id="filter0_d_182_544" x="0" y="0" width="461" height="169" filterUnits="userSpaceOnUse" color-interpolation-filters="sRGB">
<feFlood flood-opacity="0" result="BackgroundImageFix"/>
<feColorMatrix in="SourceAlpha" type="matrix" values="0 0 0 0 0 0 0 0 0 0 0 0 0 0 0 0 0 0 127 0" result="hardAlpha"/>
<feOffset dy="6"/>
<feGaussianBlur stdDeviation="5"/>
<feComposite in2="hardAlpha" operator="out"/>
<feColorMatrix type="matrix" values="0 0 0 0 0 0 0 0 0 0 0 0 0 0 0 0 0 0 0.2 0"/>
<feBlend mode="normal" in2="BackgroundImageFix" result="effect1_dropShadow_182_544"/>
<feBlend mode="normal" in="SourceGraphic" in2="effect1_dropShadow_182_544" result="shape"/>
</filter>
</defs>
</svg>
