<svg width="14" height="9" viewBox="0 0 14 9" fill="none" xmlns="http://www.w3.org/2000/svg">
<path d="M7 8.59375C6.83259 8.59375 6.67061 8.5625 6.51408 8.5C6.35671 8.4375 6.22571 8.35417 6.12108 8.25L0.345291 2.5C0.115097 2.27083 0 1.97917 0 1.625C0 1.27083 0.115097 0.979166 0.345291 0.75C0.575485 0.520833 0.86846 0.40625 1.22422 0.40625C1.57997 0.40625 1.87294 0.520833 2.10314 0.75L7 5.625L11.8969 0.75C12.1271 0.520833 12.42 0.40625 12.7758 0.40625C13.1315 0.40625 13.4245 0.520833 13.6547 0.75C13.8849 0.979166 14 1.27083 14 1.625C14 1.97917 13.8849 2.27083 13.6547 2.5L7.87892 8.25C7.75336 8.375 7.61734 8.46333 7.47085 8.515C7.32436 8.5675 7.16741 8.59375 7 8.59375Z" fill="black"/>
</svg>
