<svg width="293" height="169" viewBox="0 0 293 169" fill="none" xmlns="http://www.w3.org/2000/svg">
<g filter="url(#filter0_d_182_546)">
<path d="M10 34C10 17.4315 23.4315 4 40 4H253C269.569 4 283 17.4315 283 34V153H40C23.4315 153 10 139.569 10 123V34Z" fill="#444DF2" shape-rendering="crispEdges"/>
<path d="M63.024 90.288C62.448 90.288 61.98 90.156 61.62 89.892C61.284 89.628 61.08 89.28 61.008 88.848C60.936 88.392 61.02 87.888 61.26 87.336L70.764 66.276C71.076 65.58 71.448 65.088 71.88 64.8C72.336 64.488 72.852 64.332 73.428 64.332C73.98 64.332 74.472 64.488 74.904 64.8C75.36 65.088 75.744 65.58 76.056 66.276L85.596 87.336C85.86 87.888 85.956 88.392 85.884 88.848C85.812 89.304 85.608 89.664 85.272 89.928C84.936 90.168 84.492 90.288 83.94 90.288C83.268 90.288 82.74 90.132 82.356 89.82C81.996 89.484 81.672 88.98 81.384 88.308L79.044 82.872L80.988 84.132H65.796L67.74 82.872L65.436 88.308C65.124 89.004 64.8 89.508 64.464 89.82C64.128 90.132 63.648 90.288 63.024 90.288ZM73.356 69.624L68.316 81.612L67.38 80.46H79.404L78.504 81.612L73.428 69.624H73.356ZM91.3611 90.288C90.6411 90.288 90.0891 90.096 89.7051 89.712C89.3211 89.304 89.1291 88.728 89.1291 87.984V74.376C89.1291 73.632 89.3211 73.068 89.7051 72.684C90.0891 72.3 90.6291 72.108 91.3251 72.108C92.0211 72.108 92.5611 72.3 92.9451 72.684C93.3291 73.068 93.5211 73.632 93.5211 74.376V76.824L93.1251 75.924C93.6531 74.652 94.4691 73.692 95.5731 73.044C96.7011 72.372 97.9731 72.036 99.3891 72.036C100.805 72.036 101.969 72.3 102.881 72.828C103.793 73.356 104.477 74.16 104.933 75.24C105.389 76.296 105.617 77.64 105.617 79.272V87.984C105.617 88.728 105.425 89.304 105.041 89.712C104.657 90.096 104.105 90.288 103.385 90.288C102.665 90.288 102.101 90.096 101.693 89.712C101.309 89.304 101.117 88.728 101.117 87.984V79.488C101.117 78.12 100.853 77.124 100.325 76.5C99.8211 75.876 99.0291 75.564 97.9491 75.564C96.6291 75.564 95.5731 75.984 94.7811 76.824C94.0131 77.64 93.6291 78.732 93.6291 80.1V87.984C93.6291 89.52 92.8731 90.288 91.3611 90.288ZM112.492 90.288C111.772 90.288 111.22 90.096 110.836 89.712C110.452 89.304 110.26 88.728 110.26 87.984V74.376C110.26 73.632 110.452 73.068 110.836 72.684C111.22 72.3 111.76 72.108 112.456 72.108C113.152 72.108 113.692 72.3 114.076 72.684C114.46 73.068 114.652 73.632 114.652 74.376V77.004L114.256 75.924C114.736 74.724 115.48 73.776 116.488 73.08C117.496 72.384 118.696 72.036 120.088 72.036C121.504 72.036 122.668 72.372 123.58 73.044C124.492 73.716 125.128 74.748 125.488 76.14H124.984C125.464 74.868 126.256 73.872 127.36 73.152C128.464 72.408 129.736 72.036 131.176 72.036C132.52 72.036 133.624 72.3 134.488 72.828C135.376 73.356 136.036 74.16 136.468 75.24C136.9 76.296 137.116 77.64 137.116 79.272V87.984C137.116 88.728 136.912 89.304 136.504 89.712C136.12 90.096 135.568 90.288 134.848 90.288C134.128 90.288 133.576 90.096 133.192 89.712C132.808 89.304 132.616 88.728 132.616 87.984V79.452C132.616 78.108 132.388 77.124 131.932 76.5C131.5 75.876 130.756 75.564 129.7 75.564C128.524 75.564 127.6 75.984 126.928 76.824C126.256 77.64 125.92 78.78 125.92 80.244V87.984C125.92 88.728 125.728 89.304 125.344 89.712C124.96 90.096 124.408 90.288 123.688 90.288C122.968 90.288 122.404 90.096 121.996 89.712C121.612 89.304 121.42 88.728 121.42 87.984V79.452C121.42 78.108 121.192 77.124 120.736 76.5C120.304 75.876 119.572 75.564 118.54 75.564C117.364 75.564 116.44 75.984 115.768 76.824C115.096 77.64 114.76 78.78 114.76 80.244V87.984C114.76 89.52 114.004 90.288 112.492 90.288ZM150.434 90.36C148.442 90.36 146.726 89.988 145.286 89.244C143.846 88.5 142.73 87.444 141.938 86.076C141.17 84.708 140.786 83.088 140.786 81.216C140.786 79.392 141.158 77.796 141.902 76.428C142.67 75.06 143.714 73.992 145.034 73.224C146.378 72.432 147.902 72.036 149.606 72.036C150.854 72.036 151.97 72.24 152.954 72.648C153.962 73.056 154.814 73.644 155.51 74.412C156.23 75.18 156.77 76.116 157.13 77.22C157.514 78.3 157.706 79.524 157.706 80.892C157.706 81.324 157.55 81.66 157.238 81.9C156.95 82.116 156.53 82.224 155.978 82.224H144.422V79.632H154.538L153.962 80.172C153.962 79.068 153.794 78.144 153.458 77.4C153.146 76.656 152.678 76.092 152.054 75.708C151.454 75.3 150.698 75.096 149.786 75.096C148.778 75.096 147.914 75.336 147.194 75.816C146.498 76.272 145.958 76.932 145.574 77.796C145.214 78.636 145.034 79.644 145.034 80.82V81.072C145.034 83.04 145.49 84.516 146.402 85.5C147.338 86.46 148.706 86.94 150.506 86.94C151.13 86.94 151.826 86.868 152.594 86.724C153.386 86.556 154.13 86.28 154.826 85.896C155.33 85.608 155.774 85.488 156.158 85.536C156.542 85.56 156.842 85.692 157.058 85.932C157.298 86.172 157.442 86.472 157.49 86.832C157.538 87.168 157.466 87.516 157.274 87.876C157.106 88.236 156.806 88.548 156.374 88.812C155.534 89.34 154.562 89.736 153.458 90C152.378 90.24 151.37 90.36 150.434 90.36ZM167.282 90.36C165.29 90.36 163.79 89.796 162.782 88.668C161.774 87.516 161.27 85.836 161.27 83.628V66.6C161.27 65.856 161.462 65.292 161.846 64.908C162.23 64.524 162.782 64.332 163.502 64.332C164.222 64.332 164.774 64.524 165.158 64.908C165.566 65.292 165.77 65.856 165.77 66.6V83.412C165.77 84.516 165.998 85.332 166.454 85.86C166.934 86.388 167.606 86.652 168.47 86.652C168.662 86.652 168.842 86.652 169.01 86.652C169.178 86.628 169.346 86.604 169.514 86.58C169.85 86.532 170.078 86.628 170.198 86.868C170.318 87.084 170.378 87.54 170.378 88.236C170.378 88.836 170.258 89.304 170.018 89.64C169.778 89.976 169.382 90.18 168.83 90.252C168.59 90.276 168.338 90.3 168.074 90.324C167.81 90.348 167.546 90.36 167.282 90.36ZM179.358 90.36C177.822 90.36 176.466 89.988 175.29 89.244C174.138 88.5 173.238 87.444 172.59 86.076C171.942 84.684 171.618 83.052 171.618 81.18C171.618 79.284 171.942 77.664 172.59 76.32C173.238 74.952 174.138 73.896 175.29 73.152C176.466 72.408 177.822 72.036 179.358 72.036C180.822 72.036 182.094 72.396 183.174 73.116C184.278 73.836 185.022 74.784 185.406 75.96H185.01V66.6C185.01 65.856 185.202 65.292 185.586 64.908C185.97 64.524 186.522 64.332 187.242 64.332C187.962 64.332 188.514 64.524 188.898 64.908C189.306 65.292 189.51 65.856 189.51 66.6V87.984C189.51 88.728 189.318 89.304 188.934 89.712C188.55 90.096 187.998 90.288 187.278 90.288C186.558 90.288 186.006 90.096 185.622 89.712C185.238 89.304 185.046 88.728 185.046 87.984V85.176L185.442 86.256C185.082 87.504 184.35 88.5 183.246 89.244C182.142 89.988 180.846 90.36 179.358 90.36ZM180.618 86.94C181.506 86.94 182.286 86.724 182.958 86.292C183.63 85.86 184.146 85.224 184.506 84.384C184.89 83.52 185.082 82.452 185.082 81.18C185.082 79.26 184.674 77.832 183.858 76.896C183.042 75.936 181.962 75.456 180.618 75.456C179.73 75.456 178.95 75.672 178.278 76.104C177.606 76.512 177.078 77.148 176.694 78.012C176.334 78.852 176.154 79.908 176.154 81.18C176.154 83.076 176.562 84.516 177.378 85.5C178.194 86.46 179.274 86.94 180.618 86.94ZM202.852 90.36C200.86 90.36 199.144 89.988 197.704 89.244C196.264 88.5 195.148 87.444 194.356 86.076C193.588 84.708 193.204 83.088 193.204 81.216C193.204 79.392 193.576 77.796 194.32 76.428C195.088 75.06 196.132 73.992 197.452 73.224C198.796 72.432 200.32 72.036 202.024 72.036C203.272 72.036 204.388 72.24 205.372 72.648C206.38 73.056 207.232 73.644 207.928 74.412C208.648 75.18 209.188 76.116 209.548 77.22C209.932 78.3 210.124 79.524 210.124 80.892C210.124 81.324 209.968 81.66 209.656 81.9C209.368 82.116 208.948 82.224 208.396 82.224H196.84V79.632H206.956L206.38 80.172C206.38 79.068 206.212 78.144 205.876 77.4C205.564 76.656 205.096 76.092 204.472 75.708C203.872 75.3 203.116 75.096 202.204 75.096C201.196 75.096 200.332 75.336 199.612 75.816C198.916 76.272 198.376 76.932 197.992 77.796C197.632 78.636 197.452 79.644 197.452 80.82V81.072C197.452 83.04 197.908 84.516 198.82 85.5C199.756 86.46 201.124 86.94 202.924 86.94C203.548 86.94 204.244 86.868 205.012 86.724C205.804 86.556 206.548 86.28 207.244 85.896C207.748 85.608 208.192 85.488 208.576 85.536C208.96 85.56 209.26 85.692 209.476 85.932C209.716 86.172 209.86 86.472 209.908 86.832C209.956 87.168 209.884 87.516 209.692 87.876C209.524 88.236 209.224 88.548 208.792 88.812C207.952 89.34 206.98 89.736 205.876 90C204.796 90.24 203.788 90.36 202.852 90.36ZM215.92 90.288C215.2 90.288 214.648 90.096 214.264 89.712C213.88 89.304 213.688 88.728 213.688 87.984V74.376C213.688 73.632 213.88 73.068 214.264 72.684C214.648 72.3 215.188 72.108 215.884 72.108C216.58 72.108 217.12 72.3 217.504 72.684C217.888 73.068 218.08 73.632 218.08 74.376V76.824L217.684 75.924C218.212 74.652 219.028 73.692 220.132 73.044C221.26 72.372 222.532 72.036 223.948 72.036C225.364 72.036 226.528 72.3 227.44 72.828C228.352 73.356 229.036 74.16 229.492 75.24C229.948 76.296 230.176 77.64 230.176 79.272V87.984C230.176 88.728 229.984 89.304 229.6 89.712C229.216 90.096 228.664 90.288 227.944 90.288C227.224 90.288 226.66 90.096 226.252 89.712C225.868 89.304 225.676 88.728 225.676 87.984V79.488C225.676 78.12 225.412 77.124 224.884 76.5C224.38 75.876 223.588 75.564 222.508 75.564C221.188 75.564 220.132 75.984 219.34 76.824C218.572 77.64 218.188 78.732 218.188 80.1V87.984C218.188 89.52 217.432 90.288 215.92 90.288Z" fill="white"/>
</g>
<defs>
<filter id="filter0_d_182_546" x="0" y="0" width="293" height="169" filterUnits="userSpaceOnUse" color-interpolation-filters="sRGB">
<feFlood flood-opacity="0" result="BackgroundImageFix"/>
<feColorMatrix in="SourceAlpha" type="matrix" values="0 0 0 0 0 0 0 0 0 0 0 0 0 0 0 0 0 0 127 0" result="hardAlpha"/>
<feOffset dy="6"/>
<feGaussianBlur stdDeviation="5"/>
<feComposite in2="hardAlpha" operator="out"/>
<feColorMatrix type="matrix" values="0 0 0 0 0 0 0 0 0 0 0 0 0 0 0 0 0 0 0.2 0"/>
<feBlend mode="normal" in2="BackgroundImageFix" result="effect1_dropShadow_182_546"/>
<feBlend mode="normal" in="SourceGraphic" in2="effect1_dropShadow_182_546" result="shape"/>
</filter>
</defs>
</svg>
