<svg width="243" height="70" viewBox="0 0 243 70" fill="none" xmlns="http://www.w3.org/2000/svg">
<g clip-path="url(#clip0_235_430)">
<path d="M64.8308 0H32.6846C29.7769 0 27.4615 2.31538 27.4615 5.16923V31.7692H64.7769C67.6308 31.7692 69.9462 29.4538 69.9462 26.6V5.16923C70 2.31538 67.6846 0 64.8308 0Z" fill="#92C83E"/>
<path d="M38.8231 18.4154C40.2208 18.4154 41.3539 17.2823 41.3539 15.8846C41.3539 14.4869 40.2208 13.3538 38.8231 13.3538C37.4254 13.3538 36.2924 14.4869 36.2924 15.8846C36.2924 17.2823 37.4254 18.4154 38.8231 18.4154Z" fill="white"/>
<path d="M48.7307 18.4154C50.1284 18.4154 51.2615 17.2823 51.2615 15.8846C51.2615 14.4869 50.1284 13.3538 48.7307 13.3538C47.333 13.3538 46.2 14.4869 46.2 15.8846C46.2 17.2823 47.333 18.4154 48.7307 18.4154Z" fill="white"/>
<path d="M58.6384 18.4154C60.0361 18.4154 61.1692 17.2823 61.1692 15.8846C61.1692 14.4869 60.0361 13.3538 58.6384 13.3538C57.2407 13.3538 56.1077 14.4869 56.1077 15.8846C56.1077 17.2823 57.2407 18.4154 58.6384 18.4154Z" fill="white"/>
<path d="M5.33073 37.9077C2.47688 37.9077 0.161499 40.223 0.161499 43.0769V64.7769C0.161499 67.6307 2.47688 69.9461 5.33073 69.9461H37.4769C40.3307 69.9461 42.6461 67.6307 42.6461 64.7769V37.8538H5.33073V37.9077Z" fill="#FBB03B"/>
<path d="M11.4692 56.4846C12.8669 56.4846 14 55.3516 14 53.9539C14 52.5562 12.8669 51.4231 11.4692 51.4231C10.0715 51.4231 8.93848 52.5562 8.93848 53.9539C8.93848 55.3516 10.0715 56.4846 11.4692 56.4846Z" fill="white"/>
<path d="M21.377 56.4846C22.7747 56.4846 23.9077 55.3516 23.9077 53.9539C23.9077 52.5562 22.7747 51.4231 21.377 51.4231C19.9793 51.4231 18.8462 52.5562 18.8462 53.9539C18.8462 55.3516 19.9793 56.4846 21.377 56.4846Z" fill="white"/>
<path d="M31.2846 56.4846C32.6823 56.4846 33.8153 55.3516 33.8153 53.9539C33.8153 52.5562 32.6823 51.4231 31.2846 51.4231C29.8868 51.4231 28.7538 52.5562 28.7538 53.9539C28.7538 55.3516 29.8868 56.4846 31.2846 56.4846Z" fill="white"/>
<path d="M21.3769 21.1077V31.8231H10.7154C4.7923 31.8231 0 27.0308 0 21.1077C0 15.1846 4.7923 10.3923 10.7154 10.3923C16.6385 10.3923 21.3769 15.2385 21.3769 21.1077Z" fill="#ED1E79"/>
<path d="M48.623 48.6231V37.9077H59.3384C65.2615 37.9077 70.0538 42.7 70.0538 48.6231C70.0538 54.5462 65.2615 59.3385 59.3384 59.3385C53.4154 59.3385 48.623 54.4923 48.623 48.6231Z" fill="#3FA9F5"/>
</g>
<g clip-path="url(#clip1_235_430)">
<path d="M94.6946 23.2674H88.2589C87.5305 23.2674 86.9681 23.461 86.5809 23.8483C86.1936 24.2355 86 24.7979 86 25.5263V44.4092C86 45.1375 86.1936 45.7 86.5809 46.0872C86.9681 46.4745 87.5305 46.6681 88.2589 46.6681H94.6946C96.6677 46.6681 98.4103 46.4099 99.9224 45.8844C101.434 45.368 102.725 44.6028 103.776 43.607C104.828 42.6112 105.62 41.385 106.164 39.9374C106.708 38.4898 106.976 36.821 106.976 34.9401C106.976 31.1783 105.906 28.2924 103.776 26.2732C101.637 24.2724 98.6131 23.2674 94.6946 23.2674ZM102.034 38.5544C101.702 39.587 101.195 40.4353 100.522 41.1083C99.8486 41.7814 99.0096 42.2885 97.9954 42.6389C96.9904 42.98 95.801 43.1552 94.4272 43.1552H90.2413V26.7803H94.4272C97.1287 26.7803 99.1479 27.4533 100.503 28.8087C101.849 30.1548 102.532 32.2017 102.532 34.9493C102.532 36.3231 102.366 37.5217 102.034 38.5544Z" fill="black"/>
<path d="M121.203 24.7887C120.917 24.1433 120.566 23.6915 120.161 23.4149C119.755 23.1383 119.294 23 118.787 23C118.28 23 117.782 23.1383 117.376 23.4149C116.971 23.6915 116.62 24.1525 116.334 24.7887L107.575 44.2063C107.354 44.7134 107.28 45.1744 107.345 45.5801C107.409 45.9858 107.603 46.3177 107.926 46.5574C108.248 46.7972 108.672 46.9262 109.207 46.9262C109.779 46.9262 110.221 46.7787 110.535 46.4929C110.848 46.2071 111.143 45.7368 111.429 45.1007L113.061 41.2466H124.476L126.135 45.1007C126.403 45.7184 126.707 46.1794 127.048 46.4745C127.389 46.7695 127.869 46.9262 128.496 46.9262C129.003 46.9262 129.418 46.8064 129.722 46.5759C130.035 46.3454 130.22 46.0134 130.284 45.5985C130.349 45.1744 130.266 44.7134 130.017 44.2063L121.203 24.7887ZM118.713 27.8774H118.778L123.01 37.8721H114.509L118.713 27.8774Z" fill="black"/>
<path d="M147.046 34.5895C148.024 34.2207 148.826 33.6675 149.453 32.9207C150.273 31.9434 150.679 30.754 150.679 29.3341C150.679 28.0709 150.375 26.9921 149.766 26.0794C149.158 25.1758 148.282 24.4751 147.129 23.9864C145.977 23.4977 144.585 23.258 142.943 23.258H134.977C134.249 23.258 133.686 23.4516 133.299 23.8389C132.912 24.2261 132.718 24.7885 132.718 25.5169V44.3998C132.718 45.1281 132.912 45.6906 133.299 46.0778C133.686 46.4651 134.249 46.6587 134.977 46.6587H143.312C145.811 46.6587 147.766 46.087 149.167 44.953C150.568 43.8097 151.278 42.2054 151.278 40.1216C151.278 38.5265 150.827 37.2357 149.914 36.2399C149.195 35.447 148.227 34.903 147.046 34.5895ZM136.803 26.485H142.215C143.672 26.485 144.769 26.7709 145.488 27.3333C146.207 27.8957 146.567 28.7348 146.567 29.8412C146.567 30.9476 146.207 31.7866 145.488 32.349C144.769 32.9115 143.681 33.1973 142.215 33.1973H136.803V26.485ZM146.097 42.5649C145.387 43.155 144.28 43.4409 142.777 43.4409H136.803V36.4059H142.777C144.28 36.4059 145.387 36.6917 146.097 37.2726C146.807 37.8442 147.157 38.7294 147.157 39.928C147.157 41.1266 146.807 41.9841 146.097 42.5649Z" fill="black"/>
<path d="M167.976 30.173C167.312 30.173 166.805 30.3482 166.446 30.6894C166.095 31.0305 165.911 31.5561 165.911 32.266V39.5683C165.911 40.8315 165.56 41.8457 164.85 42.6018C164.141 43.367 163.237 43.7451 162.131 43.7451C161.116 43.7451 160.37 43.4685 159.909 42.9153C159.447 42.362 159.208 41.5138 159.208 40.3613V32.266C159.208 31.5561 159.023 31.0305 158.664 30.6894C158.295 30.3482 157.788 30.173 157.124 30.173C156.46 30.173 155.953 30.3482 155.593 30.6894C155.243 31.0305 155.059 31.5561 155.059 32.266V40.2967C155.059 41.7812 155.271 43.0167 155.704 44.0125C156.137 45.0082 156.792 45.7551 157.677 46.2529C158.562 46.7508 159.678 46.9998 161.033 46.9998C162.389 46.9998 163.431 46.6771 164.371 46.0409C165.044 45.5799 165.588 44.9806 166.012 44.243V44.8146C166.012 45.4969 166.187 46.0224 166.547 46.3912C166.897 46.76 167.395 46.9352 168.041 46.9352C169.387 46.9352 170.069 46.2253 170.069 44.8146V32.266C170.069 31.5561 169.885 31.0305 169.525 30.6894C169.156 30.3482 168.649 30.173 167.985 30.173H167.976Z" fill="black"/>
<path d="M187.486 31.1322C186.426 30.4499 185.172 30.0995 183.733 30.0995C182.387 30.0995 181.198 30.4314 180.184 31.0953C179.455 31.5655 178.911 32.1464 178.524 32.8379V25.093C178.524 24.4107 178.34 23.8851 177.98 23.5348C177.62 23.1844 177.104 23 176.44 23C175.776 23 175.269 23.1752 174.91 23.5348C174.559 23.8851 174.375 24.4107 174.375 25.093V44.8056C174.375 45.4879 174.55 46.0134 174.91 46.3823C175.26 46.7511 175.776 46.9262 176.44 46.9262C177.104 46.9262 177.584 46.7418 177.934 46.3823C178.284 46.0134 178.469 45.4879 178.469 44.8056V44.1141C178.847 44.8517 179.4 45.4695 180.147 45.9673C181.179 46.6496 182.378 47 183.752 47C185.126 47 186.416 46.6589 187.486 45.9673C188.556 45.2851 189.395 44.2985 189.994 43.0261C190.593 41.7537 190.888 40.2509 190.888 38.5267C190.888 36.8025 190.593 35.2812 189.994 34.0273C189.395 32.7733 188.565 31.8052 187.504 31.1229L187.486 31.1322ZM186.177 41.4679C185.836 42.2516 185.356 42.8417 184.729 43.2474C184.102 43.6531 183.392 43.8467 182.572 43.8467C181.336 43.8467 180.34 43.3949 179.584 42.5006C178.828 41.6062 178.46 40.2785 178.46 38.5359C178.46 37.365 178.635 36.3876 178.976 35.5947C179.317 34.811 179.796 34.2209 180.423 33.8337C181.041 33.4464 181.76 33.2528 182.581 33.2528C183.816 33.2528 184.812 33.6861 185.568 34.562C186.324 35.438 186.693 36.7564 186.693 38.5267C186.693 39.6977 186.518 40.675 186.177 41.4679Z" fill="black"/>
<path d="M207.401 31.1322C206.341 30.4499 205.087 30.0995 203.649 30.0995C202.303 30.0995 201.113 30.4314 200.099 31.0953C199.371 31.5655 198.827 32.1464 198.439 32.8379V25.093C198.439 24.4107 198.255 23.8851 197.895 23.5348C197.536 23.1844 197.02 23 196.356 23C195.692 23 195.185 23.1752 194.825 23.5348C194.475 23.8851 194.29 24.4107 194.29 25.093V44.8056C194.29 45.4879 194.466 46.0134 194.825 46.3823C195.176 46.7511 195.692 46.9262 196.356 46.9262C197.02 46.9262 197.499 46.7418 197.849 46.3823C198.2 46.0134 198.384 45.4879 198.384 44.8056V44.1141C198.762 44.8517 199.315 45.4695 200.062 45.9673C201.095 46.6496 202.293 47 203.667 47C205.041 47 206.332 46.6589 207.401 45.9673C208.471 45.2851 209.31 44.2985 209.909 43.0261C210.509 41.7537 210.804 40.2509 210.804 38.5267C210.804 36.8025 210.509 35.2812 209.909 34.0273C209.31 32.7733 208.48 31.8052 207.42 31.1229L207.401 31.1322ZM206.092 41.4679C205.751 42.2516 205.272 42.8417 204.645 43.2474C204.018 43.6531 203.308 43.8467 202.487 43.8467C201.252 43.8467 200.256 43.3949 199.5 42.5006C198.744 41.6062 198.375 40.2785 198.375 38.5359C198.375 37.365 198.55 36.3876 198.891 35.5947C199.232 34.811 199.712 34.2209 200.339 33.8337C200.957 33.4464 201.676 33.2528 202.496 33.2528C203.732 33.2528 204.728 33.6861 205.484 34.562C206.24 35.438 206.608 36.7564 206.608 38.5267C206.608 39.6977 206.433 40.675 206.092 41.4679Z" fill="black"/>
<path d="M221.813 43.5148C221.656 43.5332 221.499 43.5517 221.352 43.5609C221.195 43.5701 221.029 43.5793 220.854 43.5793C220.061 43.5793 219.443 43.3396 219.01 42.8509C218.576 42.3623 218.364 41.6154 218.364 40.592V25.093C218.364 24.4107 218.18 23.8851 217.82 23.5348C217.461 23.1844 216.944 23 216.281 23C215.617 23 215.11 23.1752 214.75 23.5348C214.4 23.8851 214.215 24.4107 214.215 25.093V40.7949C214.215 42.8325 214.676 44.3723 215.607 45.4234C216.539 46.4745 217.922 47 219.757 47C219.996 47 220.245 46.9908 220.485 46.9631C220.725 46.9447 220.964 46.917 221.186 46.8986C221.693 46.834 222.062 46.6404 222.283 46.3361C222.504 46.0227 222.615 45.5985 222.615 45.0453C222.615 44.3999 222.559 43.9758 222.449 43.7637C222.338 43.5517 222.126 43.4687 221.822 43.5148H221.813Z" fill="black"/>
<path d="M237.911 42.5374C237.56 42.5006 237.145 42.6204 236.684 42.8878C236.039 43.2382 235.366 43.4871 234.647 43.6346C233.928 43.7822 233.282 43.8467 232.701 43.8467C231.042 43.8467 229.788 43.3949 228.93 42.5006C228.257 41.7906 227.861 40.7856 227.722 39.4948H237.745C238.252 39.4948 238.648 39.3934 238.925 39.1813C239.202 38.9693 239.34 38.665 239.34 38.2685C239.34 37.0054 239.165 35.8713 238.824 34.8663C238.482 33.8613 237.984 33.0038 237.33 32.2939C236.675 31.5839 235.892 31.0399 234.97 30.6711C234.047 30.2931 233.015 30.1087 231.862 30.1087C230.295 30.1087 228.893 30.4683 227.667 31.1875C226.441 31.9066 225.473 32.8932 224.781 34.1563C224.081 35.4195 223.739 36.8855 223.739 38.5728C223.739 40.2601 224.099 41.7906 224.818 43.0538C225.537 44.3169 226.561 45.285 227.888 45.9766C229.216 46.6588 230.802 47.0092 232.637 47.0092C233.503 47.0092 234.435 46.8893 235.44 46.6588C236.445 46.4283 237.339 46.0688 238.114 45.5801C238.51 45.3404 238.796 45.0453 238.962 44.7134C239.128 44.3815 239.192 44.0588 239.146 43.7361C239.1 43.4134 238.971 43.146 238.768 42.9247C238.556 42.7034 238.28 42.5743 237.92 42.5467L237.911 42.5374ZM229.659 33.5755C230.313 33.1421 231.106 32.9301 232.028 32.9301C232.867 32.9301 233.568 33.1145 234.14 33.4741C234.702 33.8429 235.135 34.3684 235.431 35.0507C235.679 35.6223 235.818 36.3139 235.864 37.1068H227.722C227.805 36.4798 227.944 35.8989 228.165 35.4011C228.506 34.6173 229.004 34.0088 229.659 33.5755Z" fill="black"/>
</g>
<defs>
<clipPath id="clip0_235_430">
<rect width="70" height="70" fill="white"/>
</clipPath>
<clipPath id="clip1_235_430">
<rect width="156.106" height="24" fill="white" transform="translate(86 23)"/>
</clipPath>
</defs>
</svg>
