<svg width="24" height="24" viewBox="0 0 24 24" fill="none" xmlns="http://www.w3.org/2000/svg">
<path d="M12 24C18.6274 24 24 18.6274 24 12C24 5.37258 18.6274 0 12 0C5.37258 0 0 5.37258 0 12C0 18.6274 5.37258 24 12 24Z" fill="#FFDD67"/>
<path d="M5.99998 15.6C8.43003 15.6 10.4 13.6301 10.4 11.2C10.4 8.77 8.43003 6.80005 5.99998 6.80005C3.56992 6.80005 1.59998 8.77 1.59998 11.2C1.59998 13.6301 3.56992 15.6 5.99998 15.6Z" fill="white"/>
<path d="M17.9999 15.6C20.4299 15.6 22.3999 13.6301 22.3999 11.2C22.3999 8.77 20.4299 6.80005 17.9999 6.80005C15.5698 6.80005 13.5999 8.77 13.5999 11.2C13.5999 13.6301 15.5698 15.6 17.9999 15.6Z" fill="white"/>
<path d="M13.6 9.99999C12.88 9.47999 11.12 9.47999 10.4 9.99999C9.95998 9.59999 10.04 9.15999 9.59998 8.75999C10.84 7.83999 12.96 7.67999 14.4 8.75999C13.96 9.15999 14.04 9.59999 13.6 9.99999Z" fill="#494949"/>
<path d="M18 6C15.12 6 12.8 8.32 12.8 11.2C12.8 14.08 15.12 16.4 18 16.4C20.88 16.4 23.2 14.08 23.2 11.2C23.2 8.32 20.88 6 18 6ZM18 15.2C15.8 15.2 14 13.4 14 11.2C14 9 15.8 7.2 18 7.2C20.2 7.2 22 9 22 11.2C22 13.4 20.2 15.2 18 15.2ZM6.00005 6C3.12005 6 0.800049 8.32 0.800049 11.2C0.800049 14.08 3.12005 16.4 6.00005 16.4C8.88005 16.4 11.2 14.08 11.2 11.2C11.2 8.32 8.88005 6 6.00005 6ZM6.00005 15.2C3.80005 15.2 2.00005 13.4 2.00005 11.2C2.00005 9 3.80005 7.2 6.00005 7.2C8.20005 7.2 10 9 10 11.2C10 13.4 8.20005 15.2 6.00005 15.2Z" fill="#494949"/>
<path d="M7.19998 13.3999C8.08363 13.3999 8.79998 12.5045 8.79998 11.3999C8.79998 10.2953 8.08363 9.3999 7.19998 9.3999C6.31632 9.3999 5.59998 10.2953 5.59998 11.3999C5.59998 12.5045 6.31632 13.3999 7.19998 13.3999Z" fill="#664E27"/>
<path d="M16.7998 13.3999C17.6835 13.3999 18.3998 12.5045 18.3998 11.3999C18.3998 10.2953 17.6835 9.3999 16.7998 9.3999C15.9162 9.3999 15.1998 10.2953 15.1998 11.3999C15.1998 12.5045 15.9162 13.3999 16.7998 13.3999Z" fill="#664E27"/>
<path d="M9.8799 19.7197C12.1999 20.3197 14.6799 19.8797 16.6399 18.5197C17.1199 18.1597 16.1999 16.9197 15.7199 17.2397C14.4399 18.1597 12.3599 18.7597 10.2399 18.1997C9.7199 18.0797 9.2799 19.5597 9.8799 19.7197Z" fill="#664E27"/>
<path d="M20.48 5.47996C19.2 4.39996 17.48 3.91996 15.8 4.23996C15.56 4.27996 15.36 3.43996 15.64 3.35996C17.56 2.99996 19.56 3.55996 21.04 4.79996C21.28 4.99996 20.64 5.63996 20.48 5.47996ZM8.19998 4.15996C6.51998 3.87996 4.79998 4.31996 3.51998 5.39996C3.35998 5.55996 2.71998 4.91996 2.95998 4.71996C4.43998 3.43996 6.43998 2.91996 8.35998 3.27996C8.63998 3.35996 8.43998 4.19996 8.19998 4.15996Z" fill="#917524"/>
</svg>
