<svg width="24" height="24" viewBox="0 0 24 24" fill="none" xmlns="http://www.w3.org/2000/svg">
<mask id="mask0_1817_19562" style="mask-type:alpha" maskUnits="userSpaceOnUse" x="0" y="0" width="24" height="24">
<rect width="24" height="24" fill="#D9D9D9"/>
</mask>
<g mask="url(#mask0_1817_19562)">
<path d="M6.59995 13.9499H17.4C17.6833 13.9499 17.921 13.8539 18.113 13.6619C18.3043 13.4706 18.4 13.2332 18.4 12.9499C18.4 12.6666 18.3043 12.4289 18.113 12.2369C17.921 12.0456 17.6833 11.9499 17.4 11.9499H6.59995C6.31662 11.9499 6.07928 12.0456 5.88795 12.2369C5.69595 12.4289 5.59995 12.6666 5.59995 12.9499C5.59995 13.2332 5.69595 13.4706 5.88795 13.6619C6.07928 13.8539 6.31662 13.9499 6.59995 13.9499ZM6.59995 10.5999H17.4C17.6833 10.5999 17.921 10.5039 18.113 10.3119C18.3043 10.1206 18.4 9.88324 18.4 9.5999C18.4 9.31657 18.3043 9.0789 18.113 8.8869C17.921 8.69557 17.6833 8.5999 17.4 8.5999H6.59995C6.31662 8.5999 6.07928 8.69557 5.88795 8.8869C5.69595 9.0789 5.59995 9.31657 5.59995 9.5999C5.59995 9.88324 5.69595 10.1206 5.88795 10.3119C6.07928 10.5039 6.31662 10.5999 6.59995 10.5999ZM6.59995 7.2499H17.4C17.6833 7.2499 17.921 7.15424 18.113 6.9629C18.3043 6.7709 18.4 6.53324 18.4 6.2499C18.4 5.96657 18.3043 5.7289 18.113 5.5369C17.921 5.34557 17.6833 5.2499 17.4 5.2499H6.59995C6.31662 5.2499 6.07928 5.34557 5.88795 5.5369C5.69595 5.7289 5.59995 5.96657 5.59995 6.2499C5.59995 6.53324 5.69595 6.7709 5.88795 6.9629C6.07928 7.15424 6.31662 7.2499 6.59995 7.2499ZM20.575 20.8249L18.15 18.3999H3.84995C3.11662 18.3999 2.49162 18.1416 1.97495 17.6249C1.45828 17.1082 1.19995 16.4832 1.19995 15.7499V3.5499C1.19995 2.81657 1.45828 2.19157 1.97495 1.6749C2.49162 1.15824 3.11662 0.899902 3.84995 0.899902H20.15C20.8833 0.899902 21.5083 1.15824 22.025 1.6749C22.5416 2.19157 22.7999 2.81657 22.7999 3.5499V19.8999C22.7999 20.4832 22.5333 20.8872 22 21.1119C21.4666 21.3372 20.9916 21.2416 20.575 20.8249ZM3.84995 3.5499V15.7499H19.25L20.15 16.6499V3.5499H3.84995Z" fill="#535AF1"/>
</g>
</svg>
