<svg width="22" height="22" viewBox="0 0 22 22" fill="none" xmlns="http://www.w3.org/2000/svg">
<path d="M5.60019 13.9499H16.4002C16.6835 13.9499 16.9212 13.8539 17.1132 13.6619C17.3045 13.4706 17.4002 13.2332 17.4002 12.9499C17.4002 12.6666 17.3045 12.4289 17.1132 12.2369C16.9212 12.0456 16.6835 11.9499 16.4002 11.9499H5.60019C5.31686 11.9499 5.07953 12.0456 4.8882 12.2369C4.6962 12.4289 4.60019 12.6666 4.60019 12.9499C4.60019 13.2332 4.6962 13.4706 4.8882 13.6619C5.07953 13.8539 5.31686 13.9499 5.60019 13.9499ZM5.60019 10.5999H16.4002C16.6835 10.5999 16.9212 10.5039 17.1132 10.3119C17.3045 10.1206 17.4002 9.88324 17.4002 9.5999C17.4002 9.31657 17.3045 9.0789 17.1132 8.8869C16.9212 8.69557 16.6835 8.5999 16.4002 8.5999H5.60019C5.31686 8.5999 5.07953 8.69557 4.8882 8.8869C4.6962 9.0789 4.60019 9.31657 4.60019 9.5999C4.60019 9.88324 4.6962 10.1206 4.8882 10.3119C5.07953 10.5039 5.31686 10.5999 5.60019 10.5999ZM5.60019 7.2499H16.4002C16.6835 7.2499 16.9212 7.15424 17.1132 6.9629C17.3045 6.7709 17.4002 6.53324 17.4002 6.2499C17.4002 5.96657 17.3045 5.7289 17.1132 5.5369C16.9212 5.34557 16.6835 5.2499 16.4002 5.2499H5.60019C5.31686 5.2499 5.07953 5.34557 4.8882 5.5369C4.6962 5.7289 4.60019 5.96657 4.60019 6.2499C4.60019 6.53324 4.6962 6.7709 4.8882 6.9629C5.07953 7.15424 5.31686 7.2499 5.60019 7.2499ZM19.5752 20.8249L17.1502 18.3999H2.8502C2.11686 18.3999 1.49186 18.1416 0.975195 17.6249C0.458529 17.1082 0.200195 16.4832 0.200195 15.7499V3.5499C0.200195 2.81657 0.458529 2.19157 0.975195 1.6749C1.49186 1.15824 2.11686 0.899902 2.8502 0.899902H19.1502C19.8835 0.899902 20.5085 1.15824 21.0252 1.6749C21.5419 2.19157 21.8002 2.81657 21.8002 3.5499V19.8999C21.8002 20.4832 21.5335 20.8872 21.0002 21.1119C20.4669 21.3372 19.9919 21.2416 19.5752 20.8249ZM2.8502 3.5499V15.7499H18.2502L19.1502 16.6499V3.5499H2.8502Z" fill="#535AF1"/>
</svg>
