<svg width="25" height="24" viewBox="0 0 25 24" fill="none" xmlns="http://www.w3.org/2000/svg">
<path d="M10.026 0L12.026 4L14.026 0H10.026ZM17.186 0.4L16.906 4.88L20.626 2.4L17.186 0.4ZM3.42603 2.4L7.18603 4.88L6.90603 0.4L3.42603 2.4Z" fill="#4AA9FF"/>
<path d="M7.38589 24H2.66589V18.84L8.18589 20.12C6.86589 21.52 7.38589 24 7.38589 24Z" fill="#EBA352"/>
<path d="M6.94609 24H1.66609C1.66609 24 1.74609 21.44 0.866089 19.24L7.46609 20.2C6.70609 22.16 6.94609 24 6.94609 24ZM6.42609 16.96H8.42609V8.08C8.42609 7.48 7.98609 7 7.42609 7C6.86609 7 6.42609 7.48 6.42609 8.12V16.96ZM4.06609 16.96H6.42609V7.32C6.42609 6.6 5.90609 6 5.22609 6C4.58609 6 4.02609 6.6 4.02609 7.32V16.96H4.06609Z" fill="#FFDD67"/>
<path d="M2.026 16.96H4.106V7.87997C4.106 7.23997 3.626 6.71997 3.066 6.71997C2.506 6.71997 2.026 7.23997 2.026 7.87997V16.96ZM1.066 8.07997C0.545996 8.07997 0.145996 8.55997 0.145996 9.15997V16.96H2.026V9.15997C2.026 8.55997 1.586 8.07997 1.066 8.07997Z" fill="#FFDD67"/>
<path d="M7.42588 6.96H7.22588C7.70588 7.04 8.06588 7.52 8.06588 8.04V16.96H8.42588V8.08C8.42588 7.48 7.98588 6.96 7.42588 6.96ZM5.26588 6C5.18588 6 5.14588 6 5.10588 6.04C5.66588 6.12 6.10588 6.68 6.10588 7.32V13.76L6.46588 14.16V7.32C6.42588 6.6 5.90588 6 5.26588 6ZM3.06588 6.72H2.90588C3.38588 6.8 3.74588 7.28 3.74588 7.84V13.72L4.10588 14.12V7.88C4.06588 7.24 3.62588 6.72 3.06588 6.72ZM1.06588 8.08C0.985884 8.08 0.945884 8.08 0.905884 8.12C1.34588 8.2 1.66588 8.64 1.66588 9.16V13.76L2.02588 14.16V9.16C2.02588 8.56 1.58588 8.08 1.06588 8.08Z" fill="#EBA352"/>
<path d="M11.786 12.88C11.186 12.2 9.98595 12.52 9.14595 14.28C8.54595 15.48 8.38595 15.24 8.06595 15.32V14.24C8.06595 14.24 0.105953 13.72 0.105953 14.92C0.105953 14.92 -0.254047 17.88 0.505953 19.72C1.66595 22.48 7.58595 23.2 9.42595 18.52C9.78595 17.6 10.306 16.6 10.706 15.6C11.226 14.4 12.466 13.68 11.786 12.88Z" fill="#FFDD67"/>
<path d="M11.3859 12.6C12.6659 13.56 10.3059 15.4 9.18592 18.24C7.58592 22.32 2.90592 22.32 0.945923 20.44C2.74592 22.56 7.74592 22.96 9.42592 18.52C10.5459 15.64 13.2659 13.44 11.3859 12.6Z" fill="#EBA352"/>
<path d="M8.42571 15.28C6.86571 14.72 3.58571 15.8 4.02571 18.92C4.02571 16 6.62571 15.32 8.06571 15.32C8.26571 15.32 8.42571 15.28 8.42571 15.28ZM16.6657 24H21.3857V18.84L15.8657 20.12C17.1857 21.52 16.6657 24 16.6657 24Z" fill="#EBA352"/>
<path d="M17.1059 24H22.3859C22.3859 24 22.3059 21.44 23.1859 19.24L16.5859 20.2C17.3459 22.16 17.1059 24 17.1059 24ZM17.6259 16.96H15.6259V8.08C15.6259 7.48 16.0659 7 16.6259 7C17.1859 7 17.6259 7.48 17.6259 8.12V16.96ZM19.9859 16.96H17.6259V7.32C17.6259 6.6 18.1459 6 18.8259 6C19.4659 6 20.0259 6.6 20.0259 7.32V16.96H19.9859Z" fill="#FFDD67"/>
<path d="M22.0258 16.96H19.9458V7.87997C19.9458 7.23997 20.4258 6.71997 20.9858 6.71997C21.5458 6.71997 22.0258 7.23997 22.0258 7.87997V16.96ZM22.9858 8.07997C23.5058 8.07997 23.9058 8.55997 23.9058 9.15997V16.96H22.0258V9.15997C22.0258 8.55997 22.4658 8.07997 22.9858 8.07997Z" fill="#FFDD67"/>
<path d="M16.6259 6.96H16.8259C16.3459 7.04 15.9859 7.52 15.9859 8.04V16.96H15.6259V8.08C15.6259 7.48 16.0659 6.96 16.6259 6.96ZM18.7859 6C18.8659 6 18.9059 6 18.9459 6.04C18.3859 6.12 17.9459 6.68 17.9459 7.32V13.76L17.5859 14.16V7.32C17.6259 6.6 18.1459 6 18.7859 6ZM20.9859 6.72H21.1459C20.6659 6.8 20.3059 7.28 20.3059 7.84V13.72L19.9459 14.12V7.88C19.9859 7.24 20.4259 6.72 20.9859 6.72ZM22.9859 8.08C23.0659 8.08 23.1059 8.08 23.1459 8.12C22.7059 8.2 22.3859 8.64 22.3859 9.16V13.76L22.0259 14.16V9.16C22.0259 8.56 22.4659 8.08 22.9859 8.08Z" fill="#EBA352"/>
<path d="M12.2661 12.88C12.8661 12.2 14.0661 12.52 14.9061 14.28C15.5061 15.48 15.6661 15.24 15.9862 15.32V14.24C15.9862 14.24 23.9461 13.72 23.9461 14.92C23.9461 14.92 24.3061 17.88 23.5461 19.72C22.3861 22.48 16.4661 23.2 14.6261 18.52C14.2661 17.6 13.7461 16.6 13.3461 15.6C12.8261 14.4 11.5861 13.68 12.2661 12.88Z" fill="#FFDD67"/>
<path d="M12.6662 12.6C11.3862 13.56 13.7462 15.4 14.8662 18.24C16.4662 22.32 21.1462 22.32 23.1062 20.44C21.3062 22.56 16.3062 22.96 14.6262 18.52C13.5062 15.64 10.7862 13.44 12.6662 12.6Z" fill="#EBA352"/>
<path d="M15.626 15.28C17.186 14.72 20.466 15.8 20.026 18.92C20.026 16 17.426 15.32 15.986 15.32C15.786 15.32 15.626 15.28 15.626 15.28Z" fill="#EBA352"/>
</svg>
