<svg width="6" height="20" viewBox="0 0 6 20" fill="none" xmlns="http://www.w3.org/2000/svg">
<path d="M2.99605 19.25C2.3487 19.25 1.79586 19.0195 1.33752 18.5585C0.879191 18.0975 0.650024 17.5434 0.650024 16.896C0.650024 16.2487 0.880516 15.6958 1.3415 15.2375C1.8025 14.7792 2.35667 14.55 3.004 14.55C3.65135 14.55 4.20419 14.7805 4.66252 15.2415C5.12086 15.7025 5.35002 16.2566 5.35002 16.904C5.35002 17.5513 5.11953 18.1042 4.65855 18.5625C4.19755 19.0208 3.64338 19.25 2.99605 19.25ZM2.99605 12.35C2.3487 12.35 1.79586 12.1195 1.33752 11.6585C0.879191 11.1975 0.650024 10.6434 0.650024 9.99603C0.650024 9.34867 0.880516 8.79583 1.3415 8.3375C1.8025 7.87917 2.35667 7.65 3.004 7.65C3.65135 7.65 4.20419 7.88049 4.66252 8.34148C5.12086 8.80247 5.35002 9.35664 5.35002 10.004C5.35002 10.6513 5.11953 11.2042 4.65855 11.6625C4.19755 12.1208 3.64338 12.35 2.99605 12.35ZM2.99605 5.45C2.3487 5.45 1.79586 5.21951 1.33752 4.75853C0.879191 4.29753 0.650024 3.74336 0.650024 3.09603C0.650024 2.44868 0.880516 1.89583 1.3415 1.4375C1.8025 0.979167 2.35667 0.75 3.004 0.75C3.65135 0.75 4.20419 0.980492 4.66252 1.44147C5.12086 1.90247 5.35002 2.45664 5.35002 3.10398C5.35002 3.75133 5.11953 4.30417 4.65855 4.7625C4.19755 5.22083 3.64338 5.45 2.99605 5.45Z" fill="#535AF1"/>
</svg>
