<svg width="24" height="24" viewBox="0 0 24 24" fill="none" xmlns="http://www.w3.org/2000/svg">
<mask id="mask0_1817_19525" style="mask-type:alpha" maskUnits="userSpaceOnUse" x="0" y="0" width="24" height="24">
<rect width="24" height="24" fill="#D9D9D9"/>
</mask>
<g mask="url(#mask0_1817_19525)">
<path d="M7 14H17C17.2833 14 17.5207 13.904 17.712 13.712C17.904 13.5207 18 13.2833 18 13C18 12.7167 17.904 12.479 17.712 12.287C17.5207 12.0957 17.2833 12 17 12H7C6.71667 12 6.479 12.0957 6.287 12.287C6.09567 12.479 6 12.7167 6 13C6 13.2833 6.09567 13.5207 6.287 13.712C6.479 13.904 6.71667 14 7 14ZM7 11H17C17.2833 11 17.5207 10.904 17.712 10.712C17.904 10.5207 18 10.2833 18 10C18 9.71667 17.904 9.479 17.712 9.287C17.5207 9.09567 17.2833 9 17 9H7C6.71667 9 6.479 9.09567 6.287 9.287C6.09567 9.479 6 9.71667 6 10C6 10.2833 6.09567 10.5207 6.287 10.712C6.479 10.904 6.71667 11 7 11ZM7 8H17C17.2833 8 17.5207 7.90433 17.712 7.713C17.904 7.521 18 7.28333 18 7C18 6.71667 17.904 6.479 17.712 6.287C17.5207 6.09567 17.2833 6 17 6H7C6.71667 6 6.479 6.09567 6.287 6.287C6.09567 6.479 6 6.71667 6 7C6 7.28333 6.09567 7.521 6.287 7.713C6.479 7.90433 6.71667 8 7 8ZM20.3 20.3L18 18H4C3.45 18 2.97933 17.8043 2.588 17.413C2.196 17.021 2 16.55 2 16V4C2 3.45 2.196 2.979 2.588 2.587C2.97933 2.19567 3.45 2 4 2H20C20.55 2 21.021 2.19567 21.413 2.587C21.8043 2.979 22 3.45 22 4V19.575C22 20.025 21.796 20.3373 21.388 20.512C20.9793 20.6873 20.6167 20.6167 20.3 20.3ZM4 4V16H18.825L20 17.175V4H4Z" fill="black"/>
</g>
</svg>
