<svg width="22" height="21" viewBox="0 0 22 21" fill="none" xmlns="http://www.w3.org/2000/svg">
<path d="M10 21C8.61667 21 7.31667 20.7373 6.1 20.212C4.88333 19.6873 3.825 18.975 2.925 18.075C2.025 17.175 1.31267 16.1167 0.788 14.9C0.262667 13.6833 0 12.3833 0 11C0 9.61667 0.262667 8.31667 0.788 7.1C1.31267 5.88333 2.025 4.825 2.925 3.925C3.825 3.025 4.88333 2.31233 6.1 1.787C7.31667 1.26233 8.61667 1 10 1C10.75 1 11.4793 1.079 12.188 1.237C12.896 1.39567 13.5667 1.625 14.2 1.925C14.1333 2.09167 14.0833 2.26667 14.05 2.45C14.0167 2.63333 14 2.81667 14 3C14 3.23333 14.025 3.454 14.075 3.662C14.125 3.87067 14.1917 4.06667 14.275 4.25C13.6583 3.86667 12.9917 3.56233 12.275 3.337C11.5583 3.11233 10.8 3 10 3C7.78333 3 5.896 3.779 4.338 5.337C2.77933 6.89567 2 8.78333 2 11C2 13.2167 2.77933 15.1043 4.338 16.663C5.896 18.221 7.78333 19 10 19C12.2167 19 14.1043 18.221 15.663 16.663C17.221 15.1043 18 13.2167 18 11C18 10.3333 17.921 9.69167 17.763 9.075C17.6043 8.45833 17.3833 7.875 17.1 7.325C17.3667 7.54167 17.6583 7.70833 17.975 7.825C18.2917 7.94167 18.6333 8 19 8C19.0833 8 19.171 7.996 19.263 7.988C19.3543 7.97933 19.4417 7.96667 19.525 7.95C19.675 8.43333 19.7917 8.92933 19.875 9.438C19.9583 9.946 20 10.4667 20 11C20 12.3833 19.7373 13.6833 19.212 14.9C18.6873 16.1167 17.975 17.175 17.075 18.075C16.175 18.975 15.1167 19.6873 13.9 20.212C12.6833 20.7373 11.3833 21 10 21ZM13.5 10C13.9333 10 14.2917 9.85833 14.575 9.575C14.8583 9.29167 15 8.93333 15 8.5C15 8.06667 14.8583 7.70833 14.575 7.425C14.2917 7.14167 13.9333 7 13.5 7C13.0667 7 12.7083 7.14167 12.425 7.425C12.1417 7.70833 12 8.06667 12 8.5C12 8.93333 12.1417 9.29167 12.425 9.575C12.7083 9.85833 13.0667 10 13.5 10ZM6.5 10C6.93333 10 7.29167 9.85833 7.575 9.575C7.85833 9.29167 8 8.93333 8 8.5C8 8.06667 7.85833 7.70833 7.575 7.425C7.29167 7.14167 6.93333 7 6.5 7C6.06667 7 5.70833 7.14167 5.425 7.425C5.14167 7.70833 5 8.06667 5 8.5C5 8.93333 5.14167 9.29167 5.425 9.575C5.70833 9.85833 6.06667 10 6.5 10ZM10 16.5C11.1833 16.5 12.229 16.175 13.137 15.525C14.0457 14.875 14.7 14.0333 15.1 13H4.9C5.3 14.0333 5.95433 14.875 6.863 15.525C7.771 16.175 8.81667 16.5 10 16.5ZM18 4H17C16.7167 4 16.4793 3.904 16.288 3.712C16.096 3.52067 16 3.28333 16 3C16 2.71667 16.096 2.479 16.288 2.287C16.4793 2.09567 16.7167 2 17 2H18V1C18 0.716667 18.096 0.479 18.288 0.287C18.4793 0.0956666 18.7167 0 19 0C19.2833 0 19.5207 0.0956666 19.712 0.287C19.904 0.479 20 0.716667 20 1V2H21C21.2833 2 21.5207 2.09567 21.712 2.287C21.904 2.479 22 2.71667 22 3C22 3.28333 21.904 3.52067 21.712 3.712C21.5207 3.904 21.2833 4 21 4H20V5C20 5.28333 19.904 5.521 19.712 5.713C19.5207 5.90433 19.2833 6 19 6C18.7167 6 18.4793 5.90433 18.288 5.713C18.096 5.521 18 5.28333 18 5V4Z" fill="#1C1B1F"/>
</svg>
