<svg width="5" height="16" viewBox="0 0 5 16" fill="none" xmlns="http://www.w3.org/2000/svg">
<path d="M2.33325 16C1.78325 16 1.31242 15.8042 0.920752 15.4125C0.529085 15.0208 0.333252 14.55 0.333252 14C0.333252 13.45 0.529085 12.9792 0.920752 12.5875C1.31242 12.1958 1.78325 12 2.33325 12C2.88325 12 3.35409 12.1958 3.74575 12.5875C4.13742 12.9792 4.33325 13.45 4.33325 14C4.33325 14.55 4.13742 15.0208 3.74575 15.4125C3.35409 15.8042 2.88325 16 2.33325 16ZM2.33325 10C1.78325 10 1.31242 9.80417 0.920752 9.4125C0.529085 9.02083 0.333252 8.55 0.333252 8C0.333252 7.45 0.529085 6.97917 0.920752 6.5875C1.31242 6.19583 1.78325 6 2.33325 6C2.88325 6 3.35409 6.19583 3.74575 6.5875C4.13742 6.97917 4.33325 7.45 4.33325 8C4.33325 8.55 4.13742 9.02083 3.74575 9.4125C3.35409 9.80417 2.88325 10 2.33325 10ZM2.33325 4C1.78325 4 1.31242 3.80417 0.920752 3.4125C0.529085 3.02083 0.333252 2.55 0.333252 2C0.333252 1.45 0.529085 0.979167 0.920752 0.5875C1.31242 0.195833 1.78325 0 2.33325 0C2.88325 0 3.35409 0.195833 3.74575 0.5875C4.13742 0.979167 4.33325 1.45 4.33325 2C4.33325 2.55 4.13742 3.02083 3.74575 3.4125C3.35409 3.80417 2.88325 4 2.33325 4Z" fill="#1C1B1F"/>
</svg>
