<svg width="23" height="23" viewBox="0 0 23 23" fill="none" xmlns="http://www.w3.org/2000/svg">
<path d="M11.0002 22.8C9.5002 22.8 8.09586 22.5167 6.7872 21.9501C5.4792 21.3834 4.33786 20.6127 3.3632 19.6381C2.38786 18.6627 1.61686 17.5207 1.0502 16.212C0.483529 14.904 0.200195 13.5 0.200195 12C0.200195 10.5 0.483529 9.09172 1.0502 7.77505C1.61686 6.45838 2.38786 5.31272 3.3632 4.33805C4.33786 3.36272 5.4792 2.59572 6.7872 2.03705C8.09586 1.47905 9.5002 1.20005 11.0002 1.20005C11.7669 1.20005 12.5129 1.27505 13.2382 1.42505C13.9629 1.57505 14.6502 1.79172 15.3002 2.07505C15.1169 2.35838 14.9669 2.65838 14.8502 2.97505C14.7335 3.29172 14.6752 3.63338 14.6752 4.00005C14.6752 4.13338 14.6835 4.26238 14.7002 4.38705C14.7169 4.51238 14.7419 4.64172 14.7752 4.77505C14.2085 4.47505 13.6085 4.24572 12.9752 4.08705C12.3419 3.92905 11.6835 3.85005 11.0002 3.85005C8.73353 3.85005 6.80853 4.64172 5.22519 6.22505C3.64186 7.80838 2.8502 9.73338 2.8502 12C2.8502 14.2667 3.64186 16.1917 5.22519 17.775C6.80853 19.3584 8.73353 20.15 11.0002 20.15C13.2669 20.15 15.1919 19.3584 16.7752 17.775C18.3585 16.1917 19.1502 14.2667 19.1502 12C19.1502 11.4667 19.1002 10.95 19.0002 10.45C18.9002 9.95005 18.7585 9.46671 18.5752 9.00005C18.7919 9.10005 19.0212 9.17905 19.2632 9.23705C19.5045 9.29572 19.7502 9.32505 20.0002 9.32505C20.2502 9.32505 20.4919 9.30005 20.7252 9.25005C20.9585 9.20005 21.1835 9.12505 21.4002 9.02505C21.5335 9.50838 21.6335 9.99605 21.7002 10.488C21.7669 10.9794 21.8002 11.4834 21.8002 12C21.8002 13.5 21.5209 14.904 20.9622 16.212C20.4042 17.5207 19.6379 18.6627 18.6632 19.6381C17.6879 20.6127 16.5419 21.3834 15.2252 21.9501C13.9085 22.5167 12.5002 22.8 11.0002 22.8ZM14.7002 11.2C15.2002 11.2 15.6169 11.0334 15.9502 10.7C16.2835 10.3667 16.4502 9.95005 16.4502 9.45005C16.4502 8.95005 16.2835 8.53338 15.9502 8.20005C15.6169 7.86671 15.2002 7.70005 14.7002 7.70005C14.2002 7.70005 13.7835 7.86671 13.4502 8.20005C13.1169 8.53338 12.9502 8.95005 12.9502 9.45005C12.9502 9.95005 13.1169 10.3667 13.4502 10.7C13.7835 11.0334 14.2002 11.2 14.7002 11.2ZM7.3002 11.2C7.8002 11.2 8.21686 11.0334 8.5502 10.7C8.88353 10.3667 9.0502 9.95005 9.0502 9.45005C9.0502 8.95005 8.88353 8.53338 8.5502 8.20005C8.21686 7.86671 7.8002 7.70005 7.3002 7.70005C6.8002 7.70005 6.38353 7.86671 6.0502 8.20005C5.71686 8.53338 5.5502 8.95005 5.5502 9.45005C5.5502 9.95005 5.71686 10.3667 6.0502 10.7C6.38353 11.0334 6.8002 11.2 7.3002 11.2ZM11.0002 18C12.3835 18 13.5669 17.6124 14.5502 16.837C15.5335 16.0624 16.2169 15.1334 16.6002 14.05H5.4002C5.78353 15.1334 6.46686 16.0624 7.4502 16.837C8.43353 17.6124 9.61686 18 11.0002 18ZM18.6752 5.32505H18.0002C17.6335 5.32505 17.3209 5.19571 17.0622 4.93705C16.8042 4.67905 16.6752 4.36672 16.6752 4.00005C16.6752 3.63338 16.8042 3.32072 17.0622 3.06205C17.3209 2.80405 17.6335 2.67505 18.0002 2.67505H18.6752V2.00005C18.6752 1.63338 18.8042 1.32072 19.0622 1.06205C19.3209 0.804049 19.6335 0.675049 20.0002 0.675049C20.3669 0.675049 20.6795 0.804049 20.9382 1.06205C21.1962 1.32072 21.3252 1.63338 21.3252 2.00005V2.67505H22.0002C22.3669 2.67505 22.6795 2.80405 22.9382 3.06205C23.1962 3.32072 23.3252 3.63338 23.3252 4.00005C23.3252 4.36672 23.1962 4.67905 22.9382 4.93705C22.6795 5.19571 22.3669 5.32505 22.0002 5.32505H21.3252V6.00005C21.3252 6.36672 21.1962 6.67938 20.9382 6.93805C20.6795 7.19605 20.3669 7.32505 20.0002 7.32505C19.6335 7.32505 19.3209 7.19605 19.0622 6.93805C18.8042 6.67938 18.6752 6.36672 18.6752 6.00005V5.32505Z" fill="#535AF1"/>
</svg>
