<svg width="21" height="21" viewBox="0 0 21 21" fill="none" xmlns="http://www.w3.org/2000/svg">
<path d="M2 20.7C1.45 20.7 0.979167 20.5042 0.5875 20.1125C0.195833 19.7209 0 19.25 0 18.7V4.70005C0 4.15005 0.195833 3.67922 0.5875 3.28755C0.979167 2.89588 1.45 2.70005 2 2.70005H10.925L8.925 4.70005H2V18.7H16V11.75L18 9.75005V18.7C18 19.25 17.8042 19.7209 17.4125 20.1125C17.0208 20.5042 16.55 20.7 16 20.7H2ZM13.175 3.27505L14.6 4.67505L8 11.275V12.7H9.4L16.025 6.07505L17.45 7.47505L10.825 14.1C10.6417 14.2834 10.4292 14.4292 10.1875 14.5375C9.94583 14.6459 9.69167 14.7 9.425 14.7H7C6.71667 14.7 6.47917 14.6042 6.2875 14.4125C6.09583 14.2209 6 13.9834 6 13.7V11.275C6 11.0084 6.05 10.7542 6.15 10.5125C6.25 10.2709 6.39167 10.0584 6.575 9.87505L13.175 3.27505ZM17.45 7.47505L13.175 3.27505L15.675 0.775049C16.075 0.375049 16.5542 0.175049 17.1125 0.175049C17.6708 0.175049 18.1417 0.375049 18.525 0.775049L19.925 2.20005C20.3083 2.58338 20.5 3.05005 20.5 3.60005C20.5 4.15005 20.3083 4.61672 19.925 5.00005L17.45 7.47505Z" fill="black"/>
</svg>
