<svg width="21" height="21" viewBox="0 0 21 21" fill="none" xmlns="http://www.w3.org/2000/svg">
<path d="M2 20.6998C1.45 20.6998 0.979167 20.504 0.5875 20.1123C0.195833 19.7206 0 19.2498 0 18.6998V4.6998C0 4.1498 0.195833 3.67897 0.5875 3.2873C0.979167 2.89564 1.45 2.6998 2 2.6998H10.925L8.925 4.6998H2V18.6998H16V11.7498L18 9.7498V18.6998C18 19.2498 17.8042 19.7206 17.4125 20.1123C17.0208 20.504 16.55 20.6998 16 20.6998H2ZM13.175 3.2748L14.6 4.6748L8 11.2748V12.6998H9.4L16.025 6.0748L17.45 7.4748L10.825 14.0998C10.6417 14.2831 10.4292 14.429 10.1875 14.5373C9.94583 14.6456 9.69167 14.6998 9.425 14.6998H7C6.71667 14.6998 6.47917 14.604 6.2875 14.4123C6.09583 14.2206 6 13.9831 6 13.6998V11.2748C6 11.0081 6.05 10.754 6.15 10.5123C6.25 10.2706 6.39167 10.0581 6.575 9.8748L13.175 3.2748ZM17.45 7.4748L13.175 3.2748L15.675 0.774805C16.075 0.374805 16.5542 0.174805 17.1125 0.174805C17.6708 0.174805 18.1417 0.374805 18.525 0.774805L19.925 2.1998C20.3083 2.58314 20.5 3.0498 20.5 3.5998C20.5 4.1498 20.3083 4.61647 19.925 4.9998L17.45 7.4748Z" fill="white"/>
</svg>
