<svg width="22" height="22" viewBox="0 0 22 22" fill="none" xmlns="http://www.w3.org/2000/svg">
<path d="M2.8502 22.5C2.11686 22.5 1.49186 22.2416 0.975195 21.725C0.458529 21.2083 0.200195 20.5833 0.200195 19.85V5.54995C0.200195 4.81662 0.458529 4.19162 0.975195 3.67495C1.49186 3.15828 2.11686 2.89995 2.8502 2.89995H12.2752L9.6252 5.54995H2.8502V19.85H17.1502V13.075L19.8002 10.425V19.85C19.8002 20.5833 19.5419 21.2083 19.0252 21.725C18.5085 22.2416 17.8835 22.5 17.1502 22.5H2.8502ZM13.7502 4.22495L15.6502 6.12495L9.3252 12.4V13.375H10.2752L16.6002 7.07495L18.4502 8.94995L12.1752 15.25C11.9252 15.5 11.6375 15.6916 11.3122 15.825C10.9875 15.9583 10.6502 16.025 10.3002 16.025H8.0002C7.63353 16.025 7.32086 15.8956 7.0622 15.637C6.8042 15.379 6.6752 15.0666 6.6752 14.7V12.4C6.6752 12.05 6.74186 11.7123 6.8752 11.387C7.00853 11.0623 7.2002 10.775 7.4502 10.525L13.7502 4.22495ZM18.4502 8.94995L13.7502 4.22495L16.2252 1.74995C16.7585 1.21662 17.3919 0.949951 18.1252 0.949951C18.8585 0.949951 19.4835 1.21662 20.0002 1.74995L20.9502 2.72495C21.4669 3.25828 21.7252 3.88328 21.7252 4.59995C21.7252 5.31662 21.4669 5.93328 20.9502 6.44995L18.4502 8.94995Z" fill="#535AF1"/>
</svg>
