<svg width="25" height="24" viewBox="0 0 25 24" fill="none" xmlns="http://www.w3.org/2000/svg">
<path d="M10.9801 0L12.9801 4L14.9801 0H10.9801ZM18.1401 0.4L17.8601 4.88L21.5801 2.4L18.1401 0.4ZM4.38013 2.4L8.14013 4.88L7.86013 0.4L4.38013 2.4Z" fill="#4AA9FF"/>
<path d="M8.33999 23.9998H3.62V18.8398L9.14 20.1198C7.81999 21.5198 8.33999 23.9998 8.33999 23.9998Z" fill="#EBA352"/>
<path d="M7.90019 24H2.62019C2.62019 24 2.70019 21.44 1.82019 19.24L8.42019 20.2C7.66019 22.16 7.90019 24 7.90019 24ZM7.38019 16.96H9.38019V8.08C9.38019 7.48 8.94019 7 8.38019 7C7.82019 7 7.38019 7.48 7.38019 8.12V16.96ZM5.02019 16.96H7.38019V7.32C7.38019 6.6 6.86019 6 6.18019 6C5.54019 6 4.98019 6.6 4.98019 7.32V16.96H5.02019Z" fill="#FFDD67"/>
<path d="M2.9801 16.96H5.0601V7.87997C5.0601 7.23997 4.5801 6.71997 4.0201 6.71997C3.4601 6.71997 2.9801 7.23997 2.9801 7.87997V16.96ZM2.0201 8.07997C1.5001 8.07997 1.1001 8.55997 1.1001 9.15997V16.96H2.9801V9.15997C2.9801 8.55997 2.5401 8.07997 2.0201 8.07997Z" fill="#FFDD67"/>
<path d="M8.37999 6.96H8.17999C8.65999 7.04 9.01999 7.52 9.01999 8.04V16.96H9.37999V8.08C9.37999 7.48 8.93999 6.96 8.37999 6.96ZM6.21999 6C6.13999 6 6.09999 6 6.05999 6.04C6.61999 6.12 7.05999 6.68 7.05999 7.32V13.76L7.41999 14.16V7.32C7.37999 6.6 6.85999 6 6.21999 6ZM4.01999 6.72H3.85999C4.33999 6.8 4.69999 7.28 4.69999 7.84V13.72L5.05999 14.12V7.88C5.01999 7.24 4.57999 6.72 4.01999 6.72ZM2.01999 8.08C1.93999 8.08 1.89999 8.08 1.85999 8.12C2.29999 8.2 2.61999 8.64 2.61999 9.16V13.76L2.97999 14.16V9.16C2.97999 8.56 2.53999 8.08 2.01999 8.08Z" fill="#EBA352"/>
<path d="M12.7401 12.88C12.1401 12.2 10.9401 12.52 10.1001 14.28C9.50006 15.48 9.34006 15.24 9.02006 15.32V14.24C9.02006 14.24 1.06005 13.72 1.06005 14.92C1.06005 14.92 0.700054 17.88 1.46005 19.72C2.62005 22.48 8.54006 23.2 10.3801 18.52C10.7401 17.6 11.2601 16.6 11.6601 15.6C12.1801 14.4 13.4201 13.68 12.7401 12.88Z" fill="#FFDD67"/>
<path d="M12.34 12.6001C13.62 13.5601 11.26 15.4001 10.14 18.2401C8.54002 22.3201 3.86002 22.3201 1.90002 20.4401C3.70002 22.5601 8.70003 22.9601 10.38 18.5201C11.5 15.6401 14.22 13.4401 12.34 12.6001Z" fill="#EBA352"/>
<path d="M9.37981 15.2802C7.81981 14.7202 4.53981 15.8002 4.97981 18.9202C4.97981 16.0002 7.57981 15.3202 9.01981 15.3202C9.21981 15.3202 9.37981 15.2802 9.37981 15.2802ZM17.6198 24.0002H22.3398V18.8402L16.8198 20.1202C18.1398 21.5202 17.6198 24.0002 17.6198 24.0002Z" fill="#EBA352"/>
<path d="M18.06 24H23.34C23.34 24 23.26 21.44 24.14 19.24L17.54 20.2C18.3 22.16 18.06 24 18.06 24ZM18.58 16.96H16.58V8.08C16.58 7.48 17.02 7 17.58 7C18.14 7 18.58 7.48 18.58 8.12V16.96ZM20.94 16.96H18.58V7.32C18.58 6.6 19.1 6 19.78 6C20.42 6 20.98 6.6 20.98 7.32V16.96H20.94Z" fill="#FFDD67"/>
<path d="M22.9799 16.96H20.8999V7.87997C20.8999 7.23997 21.3799 6.71997 21.9399 6.71997C22.4999 6.71997 22.9799 7.23997 22.9799 7.87997V16.96ZM23.9399 8.07997C24.4599 8.07997 24.8599 8.55997 24.8599 9.15997V16.96H22.9799V9.15997C22.9799 8.55997 23.4199 8.07997 23.9399 8.07997Z" fill="#FFDD67"/>
<path d="M17.58 6.96H17.78C17.3 7.04 16.94 7.52 16.94 8.04V16.96H16.58V8.08C16.58 7.48 17.02 6.96 17.58 6.96ZM19.74 6C19.82 6 19.86 6 19.9 6.04C19.34 6.12 18.9 6.68 18.9 7.32V13.76L18.54 14.16V7.32C18.58 6.6 19.1 6 19.74 6ZM21.94 6.72H22.1C21.62 6.8 21.26 7.28 21.26 7.84V13.72L20.9 14.12V7.88C20.94 7.24 21.38 6.72 21.94 6.72ZM23.94 8.08C24.02 8.08 24.06 8.08 24.1 8.12C23.66 8.2 23.34 8.64 23.34 9.16V13.76L22.98 14.16V9.16C22.98 8.56 23.42 8.08 23.94 8.08Z" fill="#EBA352"/>
<path d="M13.2202 12.88C13.8202 12.2 15.0203 12.52 15.8603 14.28C16.4603 15.48 16.6203 15.24 16.9403 15.32V14.24C16.9403 14.24 24.9003 13.72 24.9003 14.92C24.9003 14.92 25.2603 17.88 24.5003 19.72C23.3403 22.48 17.4203 23.2 15.5803 18.52C15.2203 17.6 14.7003 16.6 14.3003 15.6C13.7803 14.4 12.5402 13.68 13.2202 12.88Z" fill="#FFDD67"/>
<path d="M13.6203 12.6001C12.3403 13.5601 14.7003 15.4001 15.8203 18.2401C17.4203 22.3201 22.1003 22.3201 24.0603 20.4401C22.2603 22.5601 17.2603 22.9601 15.5803 18.5201C14.4603 15.6401 11.7403 13.4401 13.6203 12.6001Z" fill="#EBA352"/>
<path d="M16.5801 15.2802C18.1401 14.7202 21.4201 15.8002 20.9801 18.9202C20.9801 16.0002 18.3801 15.3202 16.9401 15.3202C16.7401 15.3202 16.5801 15.2802 16.5801 15.2802Z" fill="#EBA352"/>
</svg>
