<svg width="30" height="31" viewBox="0 0 30 31" fill="none" xmlns="http://www.w3.org/2000/svg">
<g clip-path="url(#clip0_740_11950)">
<mask id="mask0_740_11950" style="mask-type:alpha" maskUnits="userSpaceOnUse" x="8" y="8" width="24" height="25">
<rect x="8" y="8.5" width="24" height="24" fill="#D9D9D9"/>
</mask>
<g mask="url(#mask0_740_11950)">
<path d="M15 16.55L11.325 20.225C11.1875 20.3625 11.0125 20.4312 10.8 20.4312C10.5875 20.4312 10.4125 20.3625 10.275 20.225C10.1375 20.0875 10.0687 19.9125 10.0687 19.7C10.0687 19.4875 10.1375 19.3125 10.275 19.175L13.95 15.5L10.275 11.825C10.1375 11.6875 10.0687 11.5125 10.0687 11.3C10.0687 11.0875 10.1375 10.9125 10.275 10.775C10.4125 10.6375 10.5875 10.5687 10.8 10.5687C11.0125 10.5687 11.1875 10.6375 11.325 10.775L15 14.45L18.675 10.775C18.8125 10.6375 18.9875 10.5687 19.2 10.5687C19.4125 10.5687 19.5875 10.6375 19.725 10.775C19.8625 10.9125 19.9312 11.0875 19.9312 11.3C19.9312 11.5125 19.8625 11.6875 19.725 11.825L16.05 15.5L19.725 19.175C19.8625 19.3125 19.9312 19.4875 19.9312 19.7C19.9312 19.9125 19.8625 20.0875 19.725 20.225C19.5875 20.3625 19.4125 20.4312 19.2 20.4312C18.9875 20.4312 18.8125 20.3625 18.675 20.225L15 16.55Z" fill="black"/>
</g>
</g>
<defs>
<clipPath id="clip0_740_11950">
<rect y="0.5" width="30" height="30" rx="15" fill="white"/>
</clipPath>
</defs>
</svg>
