<svg width="35" height="36" viewBox="0 0 35 36" fill="none" xmlns="http://www.w3.org/2000/svg">
<mask id="mask0_210_968" style="mask-type:alpha" maskUnits="userSpaceOnUse" x="0" y="0" width="35" height="36">
<rect y="0.5" width="35" height="35" fill="#D9D9D9"/>
</mask>
<g mask="url(#mask0_210_968)">
<path d="M27.5625 30.1042L19.3958 21.9375C18.6667 22.5208 17.8281 22.9826 16.8802 23.3229C15.9323 23.6632 14.9236 23.8333 13.8542 23.8333C11.2049 23.8333 8.96292 22.916 7.12833 21.0815C5.29278 19.2459 4.375 17.0035 4.375 14.3542C4.375 11.7049 5.29278 9.46243 7.12833 7.62687C8.96292 5.79229 11.2049 4.875 13.8542 4.875C16.5035 4.875 18.7459 5.79229 20.5815 7.62687C22.416 9.46243 23.3333 11.7049 23.3333 14.3542C23.3333 15.4236 23.1632 16.4323 22.8229 17.3802C22.4826 18.3281 22.0208 19.1667 21.4375 19.8958L29.6406 28.099C29.908 28.3663 30.0417 28.6944 30.0417 29.0833C30.0417 29.4722 29.8958 29.8125 29.6042 30.1042C29.3368 30.3715 28.9965 30.5052 28.5833 30.5052C28.1701 30.5052 27.8299 30.3715 27.5625 30.1042ZM13.8542 20.9167C15.6771 20.9167 17.2268 20.2789 18.5033 19.0033C19.7789 17.7268 20.4167 16.1771 20.4167 14.3542C20.4167 12.5312 19.7789 10.9815 18.5033 9.705C17.2268 8.42944 15.6771 7.79167 13.8542 7.79167C12.0312 7.79167 10.4815 8.42944 9.205 9.705C7.92944 10.9815 7.29167 12.5312 7.29167 14.3542C7.29167 16.1771 7.92944 17.7268 9.205 19.0033C10.4815 20.2789 12.0312 20.9167 13.8542 20.9167Z" fill="#686868"/>
</g>
</svg>
