<svg width="24" height="24" viewBox="0 0 24 24" fill="none" xmlns="http://www.w3.org/2000/svg">
<mask id="mask0_210_1585" style="mask-type:alpha" maskUnits="userSpaceOnUse" x="0" y="0" width="24" height="24">
<rect width="24" height="24" fill="#D9D9D9"/>
</mask>
<g mask="url(#mask0_210_1585)">
<path d="M12.0252 17.4C12.3919 17.4 12.7045 17.2706 12.9632 17.012C13.2212 16.754 13.3502 16.4416 13.3502 16.075V13.35H16.1002C16.4669 13.35 16.7752 13.225 17.0252 12.975C17.2752 12.725 17.4002 12.4083 17.4002 12.025C17.4002 11.6583 17.2712 11.3456 17.0132 11.087C16.7545 10.829 16.4419 10.7 16.0752 10.7H13.3502V7.89995C13.3502 7.53328 13.2252 7.22495 12.9752 6.97495C12.7252 6.72495 12.4085 6.59995 12.0252 6.59995C11.6585 6.59995 11.3462 6.72895 11.0882 6.98695C10.8295 7.24562 10.7002 7.55828 10.7002 7.92495V10.7H7.9002C7.53353 10.7 7.22519 10.825 6.97519 11.075C6.72519 11.325 6.60019 11.6416 6.60019 12.025C6.60019 12.3916 6.72953 12.704 6.9882 12.962C7.2462 13.2206 7.55853 13.35 7.9252 13.35H10.7002V16.1C10.7002 16.4666 10.8252 16.775 11.0752 17.025C11.3252 17.275 11.6419 17.4 12.0252 17.4ZM12.0002 22.7999C10.5002 22.7999 9.09586 22.5166 7.7872 21.95C6.4792 21.3833 5.33786 20.6126 4.3632 19.638C3.38786 18.6626 2.61686 17.5206 2.0502 16.212C1.48353 14.904 1.2002 13.5 1.2002 12C1.2002 10.5 1.48353 9.09162 2.0502 7.77495C2.61686 6.45828 3.38786 5.31262 4.3632 4.33795C5.33786 3.36262 6.4792 2.59562 7.7872 2.03695C9.09586 1.47895 10.5002 1.19995 12.0002 1.19995C13.5002 1.19995 14.9085 1.47895 16.2252 2.03695C17.5419 2.59562 18.6879 3.36262 19.6632 4.33795C20.6379 5.31262 21.4042 6.45828 21.9622 7.77495C22.5209 9.09162 22.8002 10.5 22.8002 12C22.8002 13.5 22.5209 14.904 21.9622 16.212C21.4042 17.5206 20.6379 18.6626 19.6632 19.638C18.6879 20.6126 17.5419 21.3833 16.2252 21.95C14.9085 22.5166 13.5002 22.7999 12.0002 22.7999ZM12.0002 20.15C14.2669 20.15 16.1919 19.3583 17.7752 17.775C19.3585 16.1916 20.1502 14.2666 20.1502 12C20.1502 9.73328 19.3585 7.80828 17.7752 6.22495C16.1919 4.64162 14.2669 3.84995 12.0002 3.84995C9.73353 3.84995 7.80853 4.64162 6.22519 6.22495C4.64186 7.80828 3.8502 9.73328 3.8502 12C3.8502 14.2666 4.64186 16.1916 6.22519 17.775C7.80853 19.3583 9.73353 20.15 12.0002 20.15Z" fill="#535AF1"/>
</g>
</svg>
