<svg width="30" height="30" viewBox="0 0 30 30" fill="none" xmlns="http://www.w3.org/2000/svg">
<mask id="mask0_210_1570" style="mask-type:alpha" maskUnits="userSpaceOnUse" x="0" y="0" width="30" height="30">
<rect width="30" height="30" fill="#D9D9D9"/>
</mask>
<g mask="url(#mask0_210_1570)">
<path d="M13.8436 18.125L10.4998 14.7812C9.97899 14.2604 9.85399 13.6667 10.1248 13C10.3957 12.3333 10.8957 12 11.6248 12H18.3748C19.104 12 19.604 12.3333 19.8748 13C20.1457 13.6667 20.0207 14.2604 19.4998 14.7812L16.1561 18.125C15.9894 18.2917 15.8073 18.4112 15.6098 18.4837C15.4115 18.5571 15.2082 18.5937 14.9998 18.5937C14.7915 18.5937 14.5882 18.5571 14.3898 18.4837C14.1923 18.4112 14.0102 18.2917 13.8436 18.125Z" fill="#535AF1"/>
</g>
</svg>
