<svg width="17" height="16" viewBox="0 0 17 16" fill="none" xmlns="http://www.w3.org/2000/svg">
<path d="M3.94787 15.6666C3.64439 15.6666 3.39683 15.5469 3.20516 15.3073C3.01349 15.0677 2.95759 14.8041 3.03745 14.5166L3.70828 11.8333H1.57599C1.25655 11.8333 1.00099 11.7097 0.809325 11.4624C0.617659 11.2145 0.561756 10.9389 0.641617 10.6354C0.689534 10.4118 0.801339 10.2361 0.977034 10.1083C1.15273 9.98053 1.35238 9.91665 1.57599 9.91665H4.18745L5.14578 6.08331H2.53433C2.21488 6.08331 1.95933 5.95969 1.76766 5.71244C1.57599 5.46455 1.52009 5.18887 1.59995 4.8854C1.64787 4.66179 1.75967 4.48609 1.93537 4.35831C2.11106 4.23054 2.31071 4.16665 2.53433 4.16665H5.62495L6.41558 1.0281C6.46349 0.820466 6.56731 0.652757 6.72703 0.524979C6.88676 0.397202 7.07842 0.333313 7.30203 0.333313C7.60551 0.333313 7.85308 0.453105 8.04474 0.692688C8.23641 0.932271 8.29231 1.19581 8.21245 1.48331L7.54162 4.16665H11.375L12.1656 1.0281C12.2135 0.820466 12.3173 0.652757 12.477 0.524979C12.6368 0.397202 12.8284 0.333313 13.052 0.333313C13.3555 0.333313 13.6031 0.453105 13.7947 0.692688C13.9864 0.932271 14.0423 1.19581 13.9625 1.48331L13.2916 4.16665H15.4239C15.7434 4.16665 15.9989 4.29027 16.1906 4.53752C16.3822 4.78541 16.4381 5.06109 16.3583 5.36456C16.3104 5.58817 16.1986 5.76387 16.0229 5.89165C15.8472 6.01942 15.6475 6.08331 15.4239 6.08331H12.8125L11.8541 9.91665H14.4656C14.785 9.91665 15.0406 10.0403 15.2322 10.2875C15.4239 10.5354 15.4798 10.8111 15.4 11.1146C15.352 11.3382 15.2402 11.5139 15.0645 11.6416C14.8888 11.7694 14.6892 11.8333 14.4656 11.8333H11.375L10.5843 14.9719C10.5364 15.1795 10.4326 15.3472 10.2729 15.475C10.1131 15.6028 9.92148 15.6666 9.69787 15.6666C9.39439 15.6666 9.14683 15.5469 8.95516 15.3073C8.76349 15.0677 8.70759 14.8041 8.78745 14.5166L9.45828 11.8333H5.62495L4.83433 14.9719C4.78641 15.1795 4.68259 15.3472 4.52287 15.475C4.36314 15.6028 4.17148 15.6666 3.94787 15.6666ZM6.10412 9.91665H9.93745L10.8958 6.08331H7.06245L6.10412 9.91665Z" fill="#686868"/>
</svg>
