<svg width="24" height="25" viewBox="0 0 24 25" fill="none" xmlns="http://www.w3.org/2000/svg">
<mask id="mask0_74961_14496" style="mask-type:alpha" maskUnits="userSpaceOnUse" x="0" y="0" width="24" height="25">
<rect y="0.5" width="24" height="24" fill="#D9D9D9"/>
</mask>
<g mask="url(#mask0_74961_14496)">
<path d="M7.22504 20.825C6.7917 20.825 6.45004 20.6623 6.20004 20.337C5.95004 20.0123 5.87504 19.6417 5.97504 19.225L6.57504 16.825H4.77504C4.34171 16.825 3.9917 16.6583 3.72504 16.325C3.45837 15.9917 3.38337 15.6083 3.50004 15.175C3.58337 14.8917 3.7417 14.654 3.97504 14.462C4.20837 14.2707 4.47504 14.175 4.77504 14.175H7.25004L8.07504 10.825H5.77504C5.3417 10.825 4.9917 10.6583 4.72504 10.325C4.45837 9.99165 4.38337 9.60832 4.50004 9.17499C4.58337 8.89165 4.7417 8.65432 4.97504 8.46299C5.20837 8.27099 5.47504 8.17499 5.77504 8.17499H8.75004L9.50004 5.14999C9.58337 4.86665 9.74171 4.63332 9.97504 4.44999C10.2084 4.26665 10.475 4.17499 10.775 4.17499C11.2084 4.17499 11.55 4.33732 11.8 4.66199C12.05 4.98732 12.125 5.35832 12.025 5.77499L11.425 8.17499H14.75L15.5 5.14999C15.5834 4.86665 15.7417 4.63332 15.975 4.44999C16.2084 4.26665 16.475 4.17499 16.775 4.17499C17.2084 4.17499 17.55 4.33732 17.8 4.66199C18.05 4.98732 18.125 5.35832 18.025 5.77499L17.425 8.17499H19.225C19.6584 8.17499 20.0084 8.34165 20.275 8.67499C20.5417 9.00832 20.6167 9.39165 20.5 9.82499C20.4167 10.1083 20.2584 10.3457 20.025 10.537C19.7917 10.729 19.525 10.825 19.225 10.825H16.75L15.925 14.175H18.225C18.6584 14.175 19.0084 14.3417 19.275 14.675C19.5417 15.0083 19.6167 15.3917 19.5 15.825C19.4167 16.1083 19.2584 16.346 19.025 16.538C18.7917 16.7293 18.525 16.825 18.225 16.825H15.25L14.5 19.85C14.4167 20.1333 14.2584 20.3667 14.025 20.55C13.7917 20.7333 13.525 20.825 13.225 20.825C12.7917 20.825 12.45 20.6623 12.2 20.337C11.95 20.0123 11.875 19.6417 11.975 19.225L12.575 16.825H9.25004L8.50004 19.85C8.4167 20.1333 8.25837 20.3667 8.02504 20.55C7.7917 20.7333 7.52504 20.825 7.22504 20.825ZM9.92504 14.175H13.25L14.075 10.825H10.75L9.92504 14.175Z" fill="#535AF1"/>
</g>
</svg>
