<svg width="18" height="18" viewBox="0 0 18 18" fill="none" xmlns="http://www.w3.org/2000/svg">
<path d="M4.22504 17.3251C3.7917 17.3251 3.45004 17.1624 3.20004 16.837C2.95004 16.5124 2.87504 16.1417 2.97504 15.725L3.57504 13.325H1.77504C1.34171 13.325 0.991705 13.1584 0.725038 12.825C0.458371 12.4917 0.383372 12.1084 0.500038 11.675C0.583372 11.3917 0.741705 11.154 0.975038 10.962C1.20837 10.7707 1.47504 10.675 1.77504 10.675H4.25004L5.07504 7.32505H2.77504C2.3417 7.32505 1.9917 7.15838 1.72504 6.82505C1.45837 6.49171 1.38337 6.10838 1.50004 5.67505C1.58337 5.39172 1.7417 5.15438 1.97504 4.96305C2.20837 4.77105 2.47504 4.67505 2.77504 4.67505H5.75004L6.50004 1.65005C6.58337 1.36672 6.74171 1.13338 6.97504 0.950049C7.20837 0.766716 7.47504 0.675049 7.77504 0.675049C8.20837 0.675049 8.55004 0.837382 8.80004 1.16205C9.05004 1.48738 9.12504 1.85838 9.02504 2.27505L8.42504 4.67505H11.75L12.5 1.65005C12.5834 1.36672 12.7417 1.13338 12.975 0.950049C13.2084 0.766716 13.475 0.675049 13.775 0.675049C14.2084 0.675049 14.55 0.837382 14.8 1.16205C15.05 1.48738 15.125 1.85838 15.025 2.27505L14.425 4.67505H16.225C16.6584 4.67505 17.0084 4.84172 17.275 5.17505C17.5417 5.50838 17.6167 5.89172 17.5 6.32505C17.4167 6.60838 17.2584 6.84572 17.025 7.03705C16.7917 7.22905 16.525 7.32505 16.225 7.32505H13.75L12.925 10.675H15.225C15.6584 10.675 16.0084 10.8417 16.275 11.175C16.5417 11.5084 16.6167 11.8917 16.5 12.325C16.4167 12.6084 16.2584 12.846 16.025 13.038C15.7917 13.2294 15.525 13.325 15.225 13.325H12.25L11.5 16.35C11.4167 16.6334 11.2584 16.8667 11.025 17.05C10.7917 17.2334 10.525 17.3251 10.225 17.3251C9.79171 17.3251 9.45004 17.1624 9.20004 16.837C8.95004 16.5124 8.87504 16.1417 8.97504 15.725L9.57504 13.325H6.25004L5.50004 16.35C5.4167 16.6334 5.25837 16.8667 5.02504 17.05C4.7917 17.2334 4.52504 17.3251 4.22504 17.3251ZM6.92504 10.675H10.25L11.075 7.32505H7.75004L6.92504 10.675Z" fill="#535AF1"/>
</svg>
