<svg width="18" height="17" viewBox="0 0 18 17" fill="none" xmlns="http://www.w3.org/2000/svg">
<path d="M4.24995 16.5C3.93328 16.5 3.67495 16.375 3.47495 16.125C3.27495 15.875 3.21662 15.6 3.29995 15.3L3.99995 12.5H1.77495C1.44162 12.5 1.17495 12.371 0.974948 12.113C0.774948 11.8543 0.716615 11.5667 0.799948 11.25C0.849948 11.0167 0.966615 10.8333 1.14995 10.7C1.33328 10.5667 1.54162 10.5 1.77495 10.5H4.49995L5.49995 6.5H2.77495C2.44161 6.5 2.17495 6.371 1.97495 6.113C1.77495 5.85433 1.71662 5.56667 1.79995 5.25C1.84995 5.01667 1.96662 4.83333 2.14995 4.7C2.33328 4.56667 2.54162 4.5 2.77495 4.5H5.99995L6.82495 1.225C6.87495 1.00833 6.98328 0.833333 7.14995 0.7C7.31661 0.566666 7.51662 0.5 7.74995 0.5C8.06662 0.5 8.32495 0.625 8.52495 0.875C8.72495 1.125 8.78328 1.4 8.69995 1.7L7.99995 4.5H11.9999L12.8249 1.225C12.8749 1.00833 12.9833 0.833333 13.1499 0.7C13.3166 0.566666 13.5166 0.5 13.7499 0.5C14.0666 0.5 14.3249 0.625 14.5249 0.875C14.7249 1.125 14.7833 1.4 14.6999 1.7L13.9999 4.5H16.2249C16.5583 4.5 16.8249 4.629 17.0249 4.887C17.2249 5.14567 17.2833 5.43333 17.1999 5.75C17.15 5.98333 17.0333 6.16667 16.8499 6.3C16.6666 6.43333 16.4583 6.5 16.2249 6.5H13.4999L12.4999 10.5H15.2249C15.5583 10.5 15.8249 10.629 16.0249 10.887C16.2249 11.1457 16.2833 11.4333 16.1999 11.75C16.1499 11.9833 16.0333 12.1667 15.8499 12.3C15.6666 12.4333 15.4583 12.5 15.2249 12.5H11.9999L11.1749 15.775C11.1249 15.9917 11.0166 16.1667 10.8499 16.3C10.6833 16.4333 10.4833 16.5 10.2499 16.5C9.93328 16.5 9.67495 16.375 9.47495 16.125C9.27495 15.875 9.21662 15.6 9.29995 15.3L9.99995 12.5H5.99995L5.17495 15.775C5.12495 15.9917 5.01661 16.1667 4.84995 16.3C4.68328 16.4333 4.48328 16.5 4.24995 16.5ZM6.49995 10.5H10.4999L11.4999 6.5H7.49995L6.49995 10.5Z" fill="#797EF3"/>
</svg>
