<svg width="18" height="16" viewBox="0 0 18 16" fill="none" xmlns="http://www.w3.org/2000/svg">
<path d="M4.24995 16C3.93328 16 3.67495 15.875 3.47495 15.625C3.27495 15.375 3.21662 15.1 3.29995 14.8L3.99995 12H1.77495C1.44162 12 1.17495 11.871 0.974948 11.613C0.774948 11.3543 0.716615 11.0667 0.799948 10.75C0.849948 10.5167 0.966615 10.3333 1.14995 10.2C1.33328 10.0667 1.54162 10 1.77495 10H4.49995L5.49995 6H2.77495C2.44161 6 2.17495 5.871 1.97495 5.613C1.77495 5.35433 1.71662 5.06667 1.79995 4.75C1.84995 4.51667 1.96662 4.33333 2.14995 4.2C2.33328 4.06667 2.54162 4 2.77495 4H5.99995L6.82495 0.725C6.87495 0.508333 6.98328 0.333333 7.14995 0.2C7.31661 0.0666665 7.51662 0 7.74995 0C8.06662 0 8.32495 0.125 8.52495 0.375C8.72495 0.625 8.78328 0.9 8.69995 1.2L7.99995 4H11.9999L12.8249 0.725C12.8749 0.508333 12.9833 0.333333 13.1499 0.2C13.3166 0.0666665 13.5166 0 13.7499 0C14.0666 0 14.3249 0.125 14.5249 0.375C14.7249 0.625 14.7833 0.9 14.6999 1.2L13.9999 4H16.2249C16.5583 4 16.8249 4.129 17.0249 4.387C17.2249 4.64567 17.2833 4.93333 17.1999 5.25C17.15 5.48333 17.0333 5.66667 16.8499 5.8C16.6666 5.93333 16.4583 6 16.2249 6H13.4999L12.4999 10H15.2249C15.5583 10 15.8249 10.129 16.0249 10.387C16.2249 10.6457 16.2833 10.9333 16.1999 11.25C16.1499 11.4833 16.0333 11.6667 15.8499 11.8C15.6666 11.9333 15.4583 12 15.2249 12H11.9999L11.1749 15.275C11.1249 15.4917 11.0166 15.6667 10.8499 15.8C10.6833 15.9333 10.4833 16 10.2499 16C9.93328 16 9.67495 15.875 9.47495 15.625C9.27495 15.375 9.21662 15.1 9.29995 14.8L9.99995 12H5.99995L5.17495 15.275C5.12495 15.4917 5.01661 15.6667 4.84995 15.8C4.68328 15.9333 4.48328 16 4.24995 16ZM6.49995 10H10.4999L11.4999 6H7.49995L6.49995 10Z" fill="black"/>
</svg>
